<ttFont>
          <CharString index="0">
            35 30 -13 34 hhcurveto
            26 19 8 23 10 -15 23 -16 17 hvcurveto
            71 -70 14 109 -61 hhcurveto
            -26 -21 -25 -72 -13 hvcurveto
            -6 -30 -6 -30 -11 -7 -25 -18 -115 -94 -51 -29 rrcurveto
            -28 -16 -11 -21 -19 vvcurveto
            -23 18 -20 27 return
          </CharString>
          <CharString index="1">
            rmoveto
            -19 9 13 -7 12 hhcurveto
            17 17 14 16 8 hvcurveto
            32 49 87 66 42 vvcurveto
            27 -37 7 -24 -66 -70 1 11 -58 -65 callsubr
            -12 -13 -17 -7 2 -9 5 -8 hvcurveto
            38 -66 59 -66 11 -23 rrcurveto
            -468 -1 rmoveto
            -20 13 12 -7 12 hhcurveto
            17 16 15 17 11 hvcurveto
            32 51 87 60 46 vvcurveto
            27 -37 7 -24 -47 -114 6 6 -32 -65 callsubr
            -11 -13 -17 -8 2 -8 4 -8 hvcurveto
            27 -58 38 -39 37 -59 rrcurveto
            endchar
          </CharString>
          <CharString index="2">
            82 32 rmoveto
            -37 171 -40 53 -45 vhcurveto
            -13 15 20 -10 83 callgsubr
            17 11 26 8 -1 9 -4 11 hvcurveto
            -19 60 -30 35 27 vvcurveto
            5 2 93 callsubr
            vhcurveto
            49 100 127 263 132 284 rrcurveto
            606 hlineto
            93 -260 86 -241 37 -90 rrcurveto
            1 -4 1 -5 -6 vvcurveto
            -46 -37 -103 -14 -26 vhcurveto
            -8 -14 -3 -22 -15 vvcurveto
            -21 10 -6 16 21 30 13 10 18 vhcurveto
            46 26 53 21 112 39 rrcurveto
            35 12 17 18 16 vvcurveto
            27 -37 1 -50 22 vhcurveto
            -31 13 -40 8 -24 43 -58 103 -89 232 -91 255 rrcurveto
            174 hlineto
            25 -4 39 -13 24 -51 27 -59 rcurveline
            -16 7 21 -11 10 hhcurveto
            64 -44 132 147 34 -50 callgsubr
            -46 -71 -67 -54 -1 -55 -2 -62 -2 -67 1 -128 359 -125 384 -44 127 rrcurveto
            22 -6 -20 9 -20 hhcurveto
            -19 -26 -10 -18 -66 -27 -84 -32 -74 hvcurveto
            return
          </CharString>
          <CharString index="3">
            106 650 rmoveto
            -659 569 -82 147 -21 vhcurveto
            80 -12 14 -40 39 -55 rrcurveto
            -38 27 27 -20 20 hhcurveto
            17 13 15 29 1 hvcurveto
            3 60 14 68 27 67 rrcurveto
            10 25 4 20 16 vvcurveto
            26 -11 14 -18 vhcurveto
            -43 -52 -90 -89 hhcurveto
            -10 -11 1 2 -12 hvcurveto
            -241 40 -413 74 -12 567 rrcurveto
            23 vlineto
            15 130 376 -2 129 hhcurveto
            -4 81 30 -112 52 hhcurveto
            16 17 11 39 hvcurveto
            11 -2 15 13 90 34 69 37 vvcurveto
            27 -14 19 -22 -12 -14 -5 -12 -17 vhcurveto
            -68 -48 -49 -43 -25 -1 rrcurveto
            -5 -144 -202 -7 -156 hhcurveto
            -49 -44 0 2 -37 hvcurveto
            69 387 399 209 183 7 rrcurveto
            1 20 21 1 21 hhcurveto
            45 44 -8 -48 32 hvcurveto
            -26 18 16 -10 14 hhcurveto
            19 14 20 23 hvcurveto
            17 -18 85 70 38 11 30 16 vvcurveto
            21 -17 13 -21 -64 -36 -146 -5 -90 vhcurveto
            -216 -14 -574 -193 -627 vvcurveto
            return
          </CharString>
          <CharString index="4">
            -85 callsubr
            50 47 62 21 62 -56 64 -48 61 -51 rrcurveto
            11 -24 6 -17 -44 -12 -1 -13 -15 vvcurveto
            -31 16 -18 19 23 35 50 36 38 vhcurveto
            36 35 61 4 45 vvcurveto
            35 -69 10 -25 6 vhcurveto
            -22 5 -25 5 -26 16 -96 70 -43 29 -72 90 rrcurveto
            12 -10 -17 6 -17 hhcurveto
            -14 -14 -4 -9 -8 -92 callgsubr
          </CharString>
          <CharString index="5">
            -105 callgsubr
            endchar
          </CharString>
          <CharString index="6">
            -85 callsubr
            7 4 105 64 70 -46 71 -37 68 -41 19 -26 8 -19 8 -69 rrcurveto
            -36 4 18 -13 83 callgsubr
            28 57 43 32 hvcurveto
            31 42 52 9 43 vvcurveto
            39 -75 -1 -26 2 vhcurveto
            -23 1 -25 1 -29 12 -106 54 -48 21 -86 78 rrcurveto
            8 -10 -9 5 -10 hhcurveto
            -11 -11 -5 -10 -9 -92 callgsubr
          </CharString>
          <CharString index="7">
            155 15 rmoveto
            -24 -24 -10 -19 -14 vvcurveto
            -24 28 -10 25 vhcurveto
            29 53 21 84 31 41 -8 38 hhcurveto
            28 10 9 14 23 -30 36 -18 22 hvcurveto
            -31 38 -62 32 38 vvcurveto
            787 vlineto
            116 32 180 384 270 hhcurveto
            166 78 -73 -177 -292 -380 -104 -177 -23 hvcurveto
            -28 -4 -10 -12 -16 vvcurveto
            -23 22 -35 24 -19 vhcurveto
            37 -31 517 -545 22 -15 22 -16 -21 -37 19 -115 rrcurveto
            -47 8 14 -16 15 hhcurveto
            21 24 34 22 11 hvcurveto
            19 38 44 60 76 73 rrcurveto
            22 21 9 16 10 vvcurveto
            33 -106 -9 -21 -30 -29 1 8 -23 vhcurveto
            -35 12 -519 537 0 vvcurveto
            189 78 363 64 348 vvcurveto
            277 -174 61 -166 -244 -197 -261 -115 -44 vhcurveto
            2 91 callsubr
            47 4 174 5 20 vhcurveto
            5 22 72 87 57 55 rrcurveto
            15 15 6 10 7 vvcurveto
            10 -12 3 -15 vhcurveto
            -15 -120 -21 -142 -21 -13 1 -9 hhcurveto
            -17 -6 -8 -8 -10 7 -10 4 -4 hvcurveto
            53 -48 48 -27 9 -77 rrcurveto
            1 -14 1 -51 -73 vvcurveto
            -307 -12 -703 -5 -56 vhcurveto
            -8 -76 -7 -20 -77 -76 rrcurveto
            return
          </CharString>
          <CharString index="8">
            hintmask 00000000
            hintmask 10010000
            -105 callsubr
            hintmask 01010000
            -94 callgsubr
            hintmask 10010000
            -72 callgsubr
            hintmask 00101000
            return
          </CharString>
          <CharString index="9">
            rmoveto
            -19 10 29 -22 22 hhcurveto
            15 11 10 27 hvcurveto
            22 -19 61 21 vvcurveto
            11 2 10 5 13 vhcurveto
            24 5 43 59 73 hhcurveto
            6 5 0 -1 6 hvcurveto
            83 -10 45 -160 118 -22 rrcurveto
            -3 15 13 -1 14 hhcurveto
            111 77 77 20 13 hvcurveto
            14 20 24 1 56 4 rrcurveto
            32 2 23 18 21 vvcurveto
            16 -13 16 -32 13 vhcurveto
            -42 16 -43 39 -31 49 -11 17 -15 7 -12 1 rrcurveto
            -18 -16 -17 -28 -6 1 84 callgsubr
            hvcurveto
            9 -38 5 -25 -23 vvcurveto
            -14 -3 -13 -3 -14 vhcurveto
            -30 -7 -60 -27 -48 hhcurveto
            -12 -11 1 4 -9 hvcurveto
            43 -106 -10 148 -156 hhcurveto
            -133 -49 -95 -23 -27 hvcurveto
            -18 -16 -35 -3 -33 -1 rrcurveto
            -11 -10 1 -11 hhcurveto
            -22 -20 -19 -18 -14 12 -14 30 -8 hvcurveto
            71 -18 29 -41 18 -37 rrcurveto
            endchar
          </CharString>
          <CharString index="10">
            86 hintmask 11101010
            -104 callgsubr
            hintmask 00010100
            return
          </CharString>
          <CharString index="11">
            -107 callsubr
            vhcurveto
            return
          </CharString>
          <CharString index="12">
            rmoveto
            -21 6 28 -26 25 hhcurveto
            20 18 17 52 hvcurveto
            17 -3 23 13 vvcurveto
            26 14 70 62 134 -42 -129 -54 129 vhcurveto
            -10 24 25 -5 24 hhcurveto
            79 68 46 15 15 hvcurveto
            9 9 13 3 15 16 22 -7 32 hhcurveto
            33 26 21 26 39 -103 42 -34 92 hvcurveto
            20 -8 -15 9 -15 hhcurveto
            -25 -23 -24 -38 hvcurveto
            -12 1 -12 -10 vvcurveto
            -67 -12 -63 -77 -18 -18 4 10 -15 vhcurveto
            -89 58 41 77 -130 39 rrcurveto
            6 -19 -19 2 -18 hhcurveto
            -77 -57 -46 -15 -26 hvcurveto
            -6 -11 -14 -2 -16 -27 -31 12 -27 hhcurveto
            -24 -25 -21 -23 -13 9 -15 22 -10 hvcurveto
            67 -32 30 -47 11 94 callsubr
          </CharString>
          <CharString index="13">
            105 hintmask 11101010
            -97 callgsubr
            hintmask 00010100
            return
          </CharString>
          <CharString index="14">
            rmoveto
            -95 callgsubr
            return
          </CharString>
          <CharString index="15">
            111 rmoveto
            72 440 35 430 461 -321 78 -165 -42 callgsubr
            -42 callsubr
            114 48 153 103 72 hvcurveto
            -3 -1 rlineto
            25 54 90 56 101 hhcurveto
            132 257 -59 -379 -347 -354 -30 -58 hvcurveto
            return
          </CharString>
          <CharString index="16">
            48 52 hhcurveto
            94 -22 -28 -38 75 hvcurveto
            -11 21 17 -4 12 hhcurveto
            21 9 13 22 12 -2 14 -5 15 hvcurveto
            -19 61 -11 81 82 vvcurveto
            35 -12 18 -15 -13 -17 -13 -26 -14 vhcurveto
            -44 -78 13 -48 -241 -47 rrcurveto
            -13 -57 -59 -7 -59 hhcurveto
            -241 -244 130 398 282 281 176 224 45 46 -5 -7 46 hvcurveto
            64 -9 22 -56 47 -69 rrcurveto
            -26 18 15 -10 12 hhcurveto
            16 11 19 21 hvcurveto
            11 -4 8 16 vvcurveto
            57 26 113 17 48 vhcurveto
            2 6 1 6 5 vvcurveto
            17 -12 8 -16 -18 -23 -10 -16 -16 vhcurveto
            -44 -44 -45 -12 -46 -50 -53 14 -55 hhcurveto
            -222 -389 -145 -418 return
          </CharString>
          <CharString index="17">
            301 -14 -99 callgsubr
            return
          </CharString>
          <CharString index="18">
            rmoveto
            -22 10 25 -12 24 hhcurveto
            15 13 5 10 11 hvcurveto
            94 86 7 1 -80 callgsubr
            -52 -29 -43 -28 -107 65 -10 10 -74 59 rrcurveto
            -24 19 -8 31 29 17 4 94 callgsubr
            29 -18 16 -19 -39 -47 -110 -35 -64 vhcurveto
            -29 -16 -9 -18 -14 vvcurveto
            -24 20 -7 26 vhcurveto
            34 44 12 16 hhcurveto
            17 20 -6 -15 22 hvcurveto
            74 -50 1 -7 43 -32 26 -20 23 -12 25 -22 rrcurveto
            endchar
          </CharString>
          <CharString index="19">
            164 103 553 78 442 37 callgsubr
            33 -20 hstemhm
            155 277 -195 94 -90 95 -61 85 928 100 35 callgsubr
            hintmask 1111000110001000
            155 -3 -30 callsubr
            -36 callsubr
            hintmask 1110110010001000
            40 callsubr
            hintmask 1110101010001000
            -28 callgsubr
            hintmask 1110100101001000
            48 -48 59 -40 3 -38 13 -175 10 -188 9 -190 -56 -6 rcurveline
            -33 -92 90 -30 hhcurveto
            -15 -6 -11 -17 hvcurveto
            -34 11 -40 -38 -50 -13 -48 -41 vvcurveto
            -21 9 -17 22 vhcurveto
            hintmask 1110100100101000
            51 39 130 12 71 hvcurveto
            12 2 16 3 18 2 rrcurveto
            hintmask 1110100100011000
            10 -215 10 -215 14 -198 rrcurveto
            -27 -46 -50 -39 -55 vhcurveto
            hintmask 1111000110001000
            41 callsubr
            hintmask 1110100100011000
            205 270 rmoveto
            hintmask 1110100100101000
            -7 123 -6 212 -11 231 153 20 198 20 -2 1 rrcurveto
            24 36 -22 -27 43 hvcurveto
            42 -27 rlineto
            -8 12 12 -2 9 hhcurveto
            30 13 30 26 hvcurveto
            -2 26 -11 0 65 34 5 39 28 vvcurveto
            49 -11 17 -19 -22 -21 -22 -36 -35 vhcurveto
            -29 -30 -34 -41 -43 -7 rrcurveto
            hintmask 1111000101001000
            -133 -22 -105 -17 -113 -12 rrcurveto
            -1 12 -1 13 13 vvcurveto
            -8 157 -8 134 -6 96 rrcurveto
            -9 callgsubr
            hintmask 1110100100011000
            -7 -7 0 -7 hhcurveto
            endchar
          </CharString>
          <CharString index="20">
            hintmask 10100000
            -102 callgsubr
            hintmask 01010000
            return
          </CharString>
          <CharString index="21">
            28 89 105 -99 -21 46 104 1158 -20 27 -20 21 -20 23 -20 28 -20 hstemhm
            269 90 519 89 35 callgsubr
            hintmask 0110000111000000
            179 -232 rmoveto
            -11 -13 -4 -14 -10 vvcurveto
            -27 23 -12 26 vhcurveto
            49 30 11 42 22 34 -9 25 hhcurveto
            35 20 19 18 41 -94 63 -5 74 hvcurveto
            -7 97 -4 81 -2 164 rrcurveto
            -96 21 87 -35 61 hhcurveto
            269 45 236 92 36 hvcurveto
            1 3 1 4 2 3 rrcurveto
            -2 -28 -1 -29 -28 vvcurveto
            hintmask 1000000111000000
            -148 35 -136 142 29 116 1 -8 17 vhcurveto
            hintmask 0110000111000000
            -5 10 12 -3 12 hhcurveto
            17 15 7 20 10 -3 14 -10 18 hvcurveto
            -24 44 -12 41 42 vvcurveto
            23 -11 27 -27 vhcurveto
            hintmask 1000000111000000
            -3 -32 1 -32 -9 hvcurveto
            -66 -19 -46 -29 -30 hhcurveto
            -8 -7 2 4 -5 hvcurveto
            -53 39 -17 68 108 vvcurveto
            159 36 244 11 352 vhcurveto
            2 73 31 36 35 41 rrcurveto
            18 21 10 18 16 vvcurveto
            15 -10 11 -23 -7 -7 -1 -2 -9 vhcurveto
            hintmask 0110010011000000
            -6 -31 -29 -2 -28 hhcurveto
            hintmask 0110001011000000
            -27 -27 3 -29 hhcurveto
            -35 -34 -11 -28 -15 10 -16 25 -18 hvcurveto
            63 -46 8 -42 -58 -17 -1 -18 -20 vvcurveto
            -269 -104 -611 -288 -152 -16 286 284 159 11 223 4 26 vhcurveto
            hintmask 0111000011000000
            7 50 112 47 57 vvcurveto
            16 -12 10 -29 vhcurveto
            hintmask 0110100011000000
            -22 -44 -6 -49 -60 -39 13 -33 hhcurveto
            -23 -20 -9 -31 -14 8 -15 21 -21 hvcurveto
            45 -45 34 -24 2 -27 rrcurveto
            -1 vlineto
            -2 -104 -1 -117 -119 -432 7 -458 -81 vvcurveto
            hintmask 0110000111000000
            -26 -39 -26 -58 -71 vhcurveto
            endchar
          </CharString>
          <CharString index="22">
            rmoveto
            -15 15 12 -7 11 hhcurveto
            11 28 19 43 hvcurveto
            8 -3 10 6 vvcurveto
            32 12 22 21 17 vhcurveto
            74 51 return
          </CharString>
          <CharString index="23">
            rmoveto
            3 -7 21 -32 26 -34 rrcurveto
            31 -40 29 -24 -28 vvcurveto
            -68 -100 -15 -15 -10 vhcurveto
            -53 callgsubr
            73 161 -68 callsubr
            -7 2 -7 4 -7 hvcurveto
            endchar
          </CharString>
          <CharString index="24">
            44 rmoveto
            191 141 -91 callsubr
            -492 348 -104 181 hvcurveto
            return
          </CharString>
          <CharString index="25">
            rmoveto
            -23 10 11 -8 10 hhcurveto
            15 15 17 17 9 hvcurveto
            37 55 89 78 32 vvcurveto
            23 -35 4 -24 vhcurveto
            -10 -6 -1 -12 -76 -125 14 7 57 callsubr
            -16 77 callsubr
            5 -8 hvcurveto
            54 -91 54 -48 7 -17 rrcurveto
            return
          </CharString>
          <CharString index="26">
            -8 callsubr
            -45 9 -20 hhcurveto
            -23 -10 -11 -15 -13 1 -11 -43 callsubr
            -7 callgsubr
            -22 21 -35 34 11 11 3 8 12 vhcurveto
            128 79 103 220 -57 callgsubr
            0 -2 -5 vhcurveto
            return
          </CharString>
          <CharString index="27">
            rmoveto
            2 23 62 5 68 19 20 -1 19 hhcurveto
            25 22 15 21 14 -9 17 -23 18 hvcurveto
            -38 29 -20 57 -10 58 rrcurveto
            -3 20 -2 70 86 189 9 265 -5 vvcurveto
            42 -23 17 -20 -11 -11 -5 -9 -6 vhcurveto
            -19 -26 -144 -87 -35 -13 rrcurveto
            -5 -13 -17 -1 -22 hhcurveto
            -41 -54 7 10 -54 hvcurveto
            1 43 callgsubr
            -17 -11 -7 -14 -12 8 -18 21 -23 hvcurveto
            -27 24 74 -200 45 hhcurveto
            19 17 24 39 7 hvcurveto
            6 30 49 83 15 19 rrcurveto
            15 19 118 74 0 0 10 -277 -155 vvcurveto
            -162 -24 -2 -100 -109 vhcurveto
            -19 -21 -7 -15 -11 vvcurveto
            -22 31 -5 23 7 7 0 1 5 vhcurveto
            return
          </CharString>
          <CharString index="28">
            -3 -1 -3 -3 vvcurveto
            -28 15 -12 17 23 29 25 23 16 vhcurveto
            51 74 134 37 48 vvcurveto
            20 -17 13 -32 5 vhcurveto
            -69 10 -65 3 -20 20 -72 72 -139 158 -174 209 199 225 116 143 16 12 rrcurveto
            73 56 137 -43 61 vvcurveto
            15 -13 17 -31 17 vhcurveto
            59 -106 -41 100 -45 hhcurveto
            -30 -6 -22 -25 hvcurveto
            -36 8 -37 -31 vvcurveto
            -11 -1 -7 -1 -4 vhcurveto
            -40 -111 -156 -129 -158 -198 rrcurveto
            -21 -17 -7 -20 -17 vvcurveto
            -15 6 -13 7 -4 vhcurveto
            225 -267 162 -183 16 -31 rrcurveto
            5 -9 2 -12 -14 vvcurveto
            -29 -8 -38 -4 -50 vhcurveto
            return
          </CharString>
          <CharString index="29">
            96 hintmask 10010000
            -96 callgsubr
            hintmask 01100000
            return
          </CharString>
          <CharString index="30">
            338 -17 82 -79 92 1461 99 hstemhm
            241 104 957 100 hintmask 00000000
            hintmask 01111000
            111 -37 rmoveto
            -3 -10 -3 -19 -18 vvcurveto
            -26 6 -25 20 9 11 5 11 15 vhcurveto
            hintmask 10111000
            71 95 4 31 98 79 139 -6 48 hhcurveto
            37 29 15 30 18 -10 23 -24 28 hvcurveto
            -151 178 -165 352 222 vvcurveto
            405 179 291 320 323 135 -318 -336 -326 -186 -305 -139 -154 vhcurveto
            hintmask 01111000
            -28 -31 -11 -21 -19 vvcurveto
            -31 30 -12 28 vhcurveto
            326 4 rlineto
            0 128 -68 32 -27 vhcurveto
            -10 12 14 -6 12 hhcurveto
            17 13 12 30 9 -1 11 -3 13 hvcurveto
            -11 50 -4 43 34 43 10 16 28 vvcurveto
            20 -6 20 -18 -8 -12 -4 -11 -14 vhcurveto
            -45 -60 -56 -70 -59 hhcurveto
            -238 hlineto
            156 178 176 293 341 vvcurveto
            465 -201 283 -361 -365 -234 -301 -479 vhcurveto
            hintmask 10111000
            -237 161 -356 158 -206 vhcurveto
            0 -166 6 -41 -41 -81 63 32 -37 vhcurveto
            19 -22 -33 20 -21 hhcurveto
            -12 -9 -7 -17 -4 0 -3 1 -4 hvcurveto
            7 -49 9 -73 -46 vvcurveto
            hintmask 01111000
            -14 -1 -12 -2 -7 vhcurveto
            endchar
          </CharString>
          <CharString index="31">
            -82 callsubr
            endchar
          </CharString>
          <CharString index="32">
            21 16 10 48 callsubr
            -16 7 -28 vhcurveto
            -30 -54 -15 -87 -38 -48 16 -25 hhcurveto
            -23 -13 -11 -18 -14 7 -17 15 -16 hvcurveto
            46 -51 57 -42 1 -39 rrcurveto
            return
          </CharString>
          <CharString index="33">
            162 -23 rmoveto
            31 -3 164 -3 27 -5 rrcurveto
            -1 4 3 0 3 hhcurveto
            22 9 12 16 14 -7 16 -8 11 hvcurveto
            -13 16 -63 101 36 vvcurveto
            38 20 326 4 33 vhcurveto
            30 4 126 534 267 hhcurveto
            242 24 -398 -156 35 hvcurveto
            19 -86 19 -168 -26 vvcurveto
            -44 -47 -106 -7 -13 vhcurveto
            -6 -10 -6 -15 -13 vvcurveto
            -15 9 -14 26 9 14 2 8 16 vhcurveto
            122 59 107 -33 56 vvcurveto
            16 -12 13 -22 10 vhcurveto
            -32 15 -65 65 -9 37 -4 15 -15 92 -55 318 rrcurveto
            171 -30 -88 314 -234 hhcurveto
            return
          </CharString>
          <CharString index="34">
            59 51 rmoveto
            46 -22 124 -69 22 -23 rrcurveto
            -16 15 22 -13 21 hhcurveto
            21 16 11 31 5 -1 7 -1 7 hvcurveto
            -12 59 -16 66 39 vvcurveto
            9 1 7 2 6 vhcurveto
            52 76 180 255 181 270 93 -2 102 -3 98 -3 -12 -262 -9 -260 -6 -111 -2 -34 -72 -108 -21 -21 -13 -13 -13 -29 1 -11 rrcurveto
            -15 23 -5 22 41 20 18 8 171 vhcurveto
            37 2 19 14 16 39 -111 14 94 vvcurveto
            23 vlineto
            125 -48 232 -92 105 -58 39 -21 8 -76 11 -39 rrcurveto
            -37 10 14 -20 20 hhcurveto
            16 16 13 38 14 hvcurveto
            43 117 86 57 69 vvcurveto
            18 -8 7 -16 -11 -14 -4 -5 -17 vhcurveto
            -22 -66 -52 -24 -28 hhcurveto
            -5 -5 1 2 -3 hvcurveto
            -179 81 -198 74 -133 66 20 542 rcurveline
            23 24 -1 24 88 92 3 67 hhcurveto
            36 28 -1 -2 17 hvcurveto
            46 -6 22 3 39 -56 42 -61 rcurveline
            -13 9 17 -12 9 hhcurveto
            22 12 27 23 hvcurveto
            10 -2 15 17 vvcurveto
            52 8 76 10 44 vhcurveto
            3 12 7 21 18 vvcurveto
            18 -7 15 -26 -13 -24 -15 -16 -11 vhcurveto
            -41 -28 -55 -44 -60 hhcurveto
            return
          </CharString>
          <CharString index="35">
            hvcurveto
            17 -3 18 17 60 30 51 33 vvcurveto
            27 -12 22 -26 -19 -33 -18 -32 -32 vhcurveto
            -43 -50 13 3 -82 hhcurveto
            -72 -110 0 -1 -41 hvcurveto
            21 -57 -43 71 -42 hhcurveto
            -20 -17 -14 -28 hvcurveto
            -27 24 -38 -48 return
          </CharString>
          <CharString index="36">
            -15 -47 31 35 -22 hvcurveto
            32 -20 -18 12 -15 hhcurveto
            -19 -13 -21 -26 hvcurveto
            -35 5 -20 -28 vvcurveto
            -20 -3 -24 -8 -35 vhcurveto
            return
          </CharString>
          <CharString index="37">
            hintmask 00000000
            hintmask 10011010
            429 -54 callsubr
            hintmask 10101010
            32 callgsubr
            hintmask 11001010
            -55 callsubr
            hintmask 10011010
            -43 callgsubr
            hintmask 00000101
            return
          </CharString>
          <CharString index="38">
            -61 callsubr
            hvcurveto
            38 -86 64 78 22 -1 return
          </CharString>
          <CharString index="39">
            -57 callgsubr
            -1 78 callgsubr
            -8 callsubr
            -46 78 callsubr
            -23 76 callsubr
            return
          </CharString>
          <CharString index="40">
            104 hintmask 11010100
            -93 callgsubr
            hintmask 00101000
            return
          </CharString>
          <CharString index="41">
            129 -84 rmoveto
            -14 9 -32 24 32 callsubr
            502 23 368 266 -251 113 -131 117 hvcurveto
            -98 87 -93 101 113 vvcurveto
            201 159 62 144 23 23 -2 -3 22 vhcurveto
            27 -28 25 -27 31 -43 rrcurveto
            -22 16 39 -29 27 hhcurveto
            17 12 11 29 hvcurveto
            13 -5 38 40 vvcurveto
            42 8 41 21 81 vhcurveto
            1 6 1 5 6 vvcurveto
            21 -11 17 -20 vhcurveto
            -51 -70 -114 -75 -17 -16 1 -17 hhcurveto
            -215 -192 -84 -262 -209 175 -120 134 -109 hvcurveto
            112 -92 145 -104 -138 vvcurveto
            -164 -111 -150 -314 -15 -15 0 1 -16 vhcurveto
            42 -102 -48 118 -48 hhcurveto
            -15 -12 -11 -24 -6 1 77 callsubr
            hvcurveto
            13 -65 6 -64 -70 vvcurveto
            -28 -1 -30 -2 -31 vhcurveto
            return
          </CharString>
          <CharString index="42">
            vhcurveto
            1 -7 -6 1 -5 hhcurveto
            -25 return
          </CharString>
          <CharString index="43">
            -15 callsubr
            386 8 659 8 68 hvcurveto
            13 117 125 -41 callgsubr
            -279 -14 -489 -156 vvcurveto
            27 callsubr
            return
          </CharString>
          <CharString index="44">
            hintmask 11010000
            831 -83 callsubr
            hintmask 00101000
            return
          </CharString>
          <CharString index="45">
            rmoveto
            21 callsubr
            hintmask 00101000
            -96 callsubr
            hintmask 01001000
            -24 callgsubr
          </CharString>
          <CharString index="46">
            rmoveto
            -27 24 -11 27 vhcurveto
            75 28 5 42 12 18 -2 14 hhcurveto
            41 16 13 22 return
          </CharString>
          <CharString index="47">
            52 75 -9 25 -5 callgsubr
            -60 74 -21 57 77 vvcurveto
            95 13 165 14 201 vhcurveto
            1 1 rlineto
            0 8 8 14 13 vhcurveto
            286 -250 405 -322 1 -2 19 -22 48 -131 8 -38 rrcurveto
            -33 6 16 -15 19 hhcurveto
            58 -3 93 80 91 hvcurveto
            29 25 37 10 38 vvcurveto
            25 -25 7 -33 3 vhcurveto
            -69 5 -79 -2 -64 24 -83 64 -354 278 -253 219 186 172 451 411 25 14 rrcurveto
            1 hlineto
            14 24 30 4 31 hhcurveto
            23 22 -2 -2 16 hvcurveto
            25 44 0 34 13 -11 17 -26 20 hvcurveto
            74 -96 -14 113 -57 hhcurveto
            -20 -16 -15 -40 -7 hvcurveto
            -8 -81 -11 -43 -13 -22 rrcurveto
            return
          </CharString>
          <CharString index="48">
            vhcurveto
            21 27 63 17 96 19 rrcurveto
            44 9 16 15 15 vvcurveto
            50 -164 14 -125 114 vhcurveto
            25 -27 -18 9 -11 hhcurveto
            -18 -2 -23 -21 hvcurveto
            -30 57 -115 -56 vvcurveto
            -9 -1 -8 -4 -5 vhcurveto
            -111 -165 -365 -483 -83 -45 -41 -22 -16 -1 -117 -16 rrcurveto
            -51 -7 -16 -13 -15 vvcurveto
            -20 28 -22 16 -15 vhcurveto
            return
          </CharString>
          <CharString index="49">
            9 30 48 4 46 52 45 -9 20 hhcurveto
            23 10 11 15 13 -1 11 -54 70 hvcurveto
            -31 40 -29 24 28 vvcurveto
            48 119 88 26 17 vhcurveto
            5 3 2 6 8 vvcurveto
            22 -21 35 -34 -11 -11 -3 -8 -12 vhcurveto
            -128 -79 -103 -220 -39 -64 rrcurveto
            -9 -14 -4 -12 -10 vvcurveto
            -24 24 -11 22 5 5 0 2 5 vhcurveto
            return
          </CharString>
          <CharString index="50">
            553 131 rmoveto
            -77 callgsubr
            3 -1 3 3 vvcurveto
            return
          </CharString>
          <CharString index="51">
            116 16 rmoveto
            68 64 -2 -13 61 hvcurveto
            -3 15 14 -2 13 hhcurveto
            29 22 8 18 8 -4 10 -10 12 hvcurveto
            -49 60 -35 25 63 vvcurveto
            7 0 8 1 8 vhcurveto
            9 81 85 828 0 vvcurveto
            27 -79 return
          </CharString>
          <CharString index="52">
            -35 -31 -16 -73 -64 -53 10 -11 hhcurveto
            -21 -9 -10 -16 -12 7 -11 23 -28 hvcurveto
            16 -20 48 -51 1 -33 rrcurveto
            -3 -1 -2 -2 vvcurveto
            -151 -37 -135 -298 -249 hhcurveto
            -246 -118 355 127 73 92 75 -1 47 hvcurveto
            11 -5 6 -12 -7 -8 -2 -4 -11 vhcurveto
            return
          </CharString>
          <CharString index="53">
            46 rmoveto
            -19 -20 -9 -19 -13 vvcurveto
            -16 13 -9 23 vhcurveto
            16 16 1 17 64 77 -10 52 hhcurveto
            27 9 10 13 hvcurveto
            48 -99 70 67 vvcurveto
            3 0 3 1 3 vhcurveto
            6 40 38 302 16 101 307 8 128 361 49 138 rrcurveto
            0 11 33 60 52 vhcurveto
            return
          </CharString>
          <CharString index="54">
            41 rmoveto
            -14 10 -32 23 32 callsubr
            268 80 236 hvcurveto
            305 -429 93 178 vvcurveto
            152 183 22 53 1 vhcurveto
            -4 38 54 -89 42 hhcurveto
            10 7 8 22 hvcurveto
            26 -8 53 43 18 1 16 48 vvcurveto
            30 0 33 -18 vhcurveto
            -20 -110 -120 -21 hhcurveto
            -75 -229 -50 -209 -124 113 -85 106 -79 hvcurveto
            94 -70 123 -106 -108 vvcurveto
            -192 -216 -35 -65 vhcurveto
            -1 -1 -56 3 -31 32 rrcurveto
            26 -25 -20 40 -24 hhcurveto
            -17 -7 -23 -74 hvcurveto
            -67 5 -96 -14 vvcurveto
            return
          </CharString>
          <CharString index="55">
            -106 -161 -2 -148 hhcurveto
            20 445 105 30 212 65 145 23 rlinecurve
            3 3 1 3 hhcurveto
            29 44 -15 -28 51 hvcurveto
            -10 18 24 -20 19 hhcurveto
            9 20 8 26 12 -6 16 -11 20 hvcurveto
            112 -64 37 128 -69 hhcurveto
            -15 -15 -10 -27 -16 hvcurveto
            -41 -71 -36 -42 -23 -9 -146 -56 -151 -27 -123 -27 3 54 -2 36 29 42 21 31 24 21 1 30 rrcurveto
            24 -22 6 -22 vhcurveto
            -46 -114 -25 -60 hhcurveto
            -33 -14 -12 -16 -24 6 10 67 -63 hvcurveto
            19 -17 21 -29 16 -16 rrcurveto
            return
          </CharString>
          <CharString index="56">
            -4 -240 1 -202 hhcurveto
            -135 -117 0 -2 -19 hvcurveto
            -2 -2 0 -3 hhcurveto
            -44 -25 38 43 -42 hvcurveto
            18 -18 -17 9 -13 hhcurveto
            -17 -11 -14 -25 hvcurveto
            -30 12 -53 -55 vvcurveto
            -42 -4 -44 -10 -39 vhcurveto
            -1 -5 -1 -4 -3 vvcurveto
            -16 11 -7 12 13 16 7 12 10 vhcurveto
            22 25 74 87 62 8 rrcurveto
            59 8 603 4 0 vvcurveto
            0 -131 -184 -260 -330 vhcurveto
            -302 -384 -121 -126 -67 -70 rrcurveto
            -25 -26 -9 -23 -18 vvcurveto
            -27 20 -16 19 2 2 0 1 2 vhcurveto
            return
          </CharString>
          <CharString index="57">
            12 callsubr
            9 64 7 41 17 32 rrcurveto
            0 0 -1 0 vhcurveto
            -13 497 638 86 108 -59 callsubr
            return
          </CharString>
          <CharString index="58">
            hhcurveto
            -17 callgsubr
            -77 -4 -76 -9 -67 hvcurveto
            -17 callsubr
            return
          </CharString>
          <CharString index="59">
            vvcurveto
            -4 -26 -39 -48 -54 -71 rrcurveto
            -10 -14 -5 -13 -10 vvcurveto
            return
          </CharString>
          <CharString index="60">
            331 -23 rmoveto
            -27 callgsubr
            61 -38 callsubr
            79 2 447 1 317 vhcurveto
            return
          </CharString>
          <CharString index="61">
            173 88 rmoveto
            5 29 43 14 54 15 23 -1 84 154 278 3 125 33 22 -1 7 hhcurveto
            -4 54 97 -90 37 hhcurveto
            19 9 15 19 hvcurveto
            9 -2 15 19 vvcurveto
            37 5 54 9 callsubr
            -32 -67 -83 -33 -118 vhcurveto
            -13 -47 -79 -4 -95 -119 -145 6 -137 hhcurveto
            -39 -39 -1 -1 -37 hvcurveto
            0 123 154 303 382 vhcurveto
            267 336 131 200 26 29 rrcurveto
            return
          </CharString>
          <CharString index="62">
            hvcurveto
            -74 vlineto
            -42 -41 1 -38 -49 callsubr
            48 52 43 46 70 hhcurveto
            return
          </CharString>
          <CharString index="63">
            -12 65 64 -100 55 hhcurveto
            27 11 23 26 hvcurveto
            47 -9 46 48 24 6 30 22 vvcurveto
            34 -17 13 -19 -14 -24 -14 -9 -7 vhcurveto
            -96 -70 -60 4 -104 return
          </CharString>
          <CharString index="64">
            54 -70 hvcurveto
            31 -40 29 -24 -28 vvcurveto
            -48 -119 -88 -26 -17 vhcurveto
            return
          </CharString>
          <CharString index="65">
            -440 371 -51 97 vhcurveto
            3 93 rmoveto
            -102 -268 67 329 return
          </CharString>
          <CharString index="66">
            20 24 10 26 26 return
          </CharString>
          <CharString index="67">
            -10 -8 -5 -10 -9 vvcurveto
            -17 16 -15 33 vhcurveto
            15 24 9 23 67 77 -69 117 hhcurveto
            128 101 21 140 31 hvcurveto
            2 11 2 11 11 vvcurveto
            80 -61 74 -63 26 vhcurveto
            -57 23 -14 16 23 vvcurveto
            return
          </CharString>
          <CharString index="68">
            -47 -100 -162 -255 -160 -235 rrcurveto
            2 -99 -110 6 -99 hhcurveto
            -20 -38 36 45 -37 hvcurveto
            47 -39 -11 9 -14 hhcurveto
            -28 -7 -33 -36 hvcurveto
            -31 5 -32 -13 -47 -16 -78 -28 vvcurveto
            -25 12 -11 17 49 44 93 14 74 vhcurveto
            2 11 93 3 154 hhcurveto
            -137 -202 -131 -189 -62 -88 -36 -51 -92 -62 -26 -4 rrcurveto
            1 vlineto
            -64 -5 -62 -44 -19 vvcurveto
            return
          </CharString>
          <CharString index="69">
            8 108 6 rrcurveto
            38 2 15 10 13 vvcurveto
            23 -47 32 -32 12 vhcurveto
            -38 14 -22 35 53 vvcurveto
            return
          </CharString>
          <CharString index="70">
            -9 -53 -113 -3 -79 hhcurveto
            -19 -13 -8 -14 -23 88 -79 13 -57 hvcurveto
            -5 0 -7 -8 vvcurveto
            -156 -34 -730 -8 -50 vhcurveto
            -6 -37 -30 -29 -17 -32 rrcurveto
            -11 -21 -44 -45 -27 vvcurveto
            return
          </CharString>
          <CharString index="71">
            480 -451 67 -142 -228 -174 -69 -19 -90 vhcurveto
            14 -1 12 10 vvcurveto
            31 28 44 73 60 -22 callsubr
            return
          </CharString>
          <CharString index="72">
            285 1313 rmoveto
            -58 callsubr
            return
          </CharString>
          <CharString index="73">
            -9 -39 60 callsubr
            -10 -9 vvcurveto
            -27 12 -12 19 return
          </CharString>
          <CharString index="74">
            rmoveto
            -53 callgsubr
            103 221 -68 callsubr
            -14 2 -10 -43 callsubr
            endchar
          </CharString>
          <CharString index="75">
            1 -2 23 -26 -2 -58 14 -67 rrcurveto
            -33 6 16 -15 19 hhcurveto
            22 23 27 24 12 hvcurveto
            40 78 105 38 49 vvcurveto
            61 -157 -44 -63 45 vhcurveto
            -78 55 -208 return
          </CharString>
          <CharString index="76">
            10 117 244 3 16 hhcurveto
            2 callsubr
            23 52 16 callsubr
            -14 -144 -85 -5 -157 2 callgsubr
            return
          </CharString>
          <CharString index="77">
            -14 callsubr
            39 -91 74 -17 47 hvcurveto
            367 24 651 166 616 vvcurveto
            return
          </CharString>
          <CharString index="78">
            rmoveto
            -15 18 20 -4 25 39 29 8 90 hhcurveto
            93 127 -5 0 0 -4 -196 -6 -54 hvcurveto
            -6 -54 -6 -28 -38 -48 rrcurveto
            -35 -44 -30 -19 -22 vvcurveto
            -33 56 -3 31 vhcurveto
            19 36 1 34 22 19 -2 18 hhcurveto
            28 33 7 26 11 -6 14 -16 19 hvcurveto
            -80 92 -2 -9 153 vvcurveto
            return
          </CharString>
          <CharString index="79">
            rmoveto
            -4 6 7 -3 8 hhcurveto
            11 13 4 10 15 hvcurveto
            67 44 return
          </CharString>
          <CharString index="80">
            19 36 44 22 52 hhcurveto
            88 169 -39 -250 -229 -234 -19 -37 return
          </CharString>
          <CharString index="81">
            hhcurveto
            25 12 13 25 hvcurveto
            25 -12 40 27 return
          </CharString>
          <CharString index="82">
            5 2 -198 hvcurveto
            -71 callsubr
            return
          </CharString>
          <CharString index="83">
            52 36 44 50 vvcurveto
            33 -14 10 -21 -48 -52 -74 -33 -102 vhcurveto
            -33 -11 -13 -16 -17 vvcurveto
            -18 19 -9 22 -10 vhcurveto
            65 -29 51 -4 25 -34 29 -64 72 -140 81 -153 -112 -22 -154 -58 -149 -114 rrcurveto
            -183 -139 -77 -168 -121 vvcurveto
            return
          </CharString>
          <CharString index="84">
            27 -5 44 -33 44 -42 rrcurveto
            -9 13 11 -5 10 -26 callsubr
            return
          </CharString>
          <CharString index="85">
            -16 callgsubr
            21 -13 7 -24 -15 -20 -3 -4 -25 vhcurveto
            return
          </CharString>
          <CharString index="86">
            -28 callsubr
            21 7 29 12 -12 callgsubr
            return
          </CharString>
          <CharString index="87">
            -394 -33 -369 -161 -45 callsubr
            return
          </CharString>
          <CharString index="88">
            -59 -59 9 -25 hhcurveto
            -28 -18 -17 -19 -16 12 -18 26 -12 hvcurveto
            55 -27 51 -65 -33 vvcurveto
            return
          </CharString>
          <CharString index="89">
            380 1724 -76 callsubr
          </CharString>
          <CharString index="90">
            -1 -3 30 callgsubr
            -24 14 -10 18 12 14 7 12 14 vhcurveto
            return
          </CharString>
          <CharString index="91">
            75 -76 15 -15 35 -50 19 -115 rrcurveto
            -30 5 13 -12 15 hhcurveto
            25 29 32 32 10 hvcurveto
            19 62 69 54 32 37 rrcurveto
            26 30 8 19 15 vvcurveto
            21 -15 5 -21 vhcurveto
            -22 -58 -8 -60 hhcurveto
            -42 -39 3 11 -17 hvcurveto
            -87 53 -370 return
          </CharString>
          <CharString index="92">
            -23 -76 -12 -36 -26 -14 rrcurveto
            -18 -35 -71 -44 -58 hhcurveto
            -98 -109 25 392 return
          </CharString>
          <CharString index="93">
            rmoveto
            5 callgsubr
            27 callgsubr
            return
          </CharString>
          <CharString index="94">
            -20 rmoveto
            19 callgsubr
            hintmask 00101000
            18 callsubr
            hintmask 01001000
            -38 callgsubr
            return
          </CharString>
          <CharString index="95">
            3 -11 2 -97 2 -93 rrcurveto
            -4 -39 -33 0 -16 hhcurveto
            -19 -42 36 34 -30 hvcurveto
            31 -27 -24 12 -16 hhcurveto
            -19 -10 -16 -21 hvcurveto
            -27 8 -34 -41 vvcurveto
            -39 -4 -45 -13 -53 55 callsubr
            -3 vvcurveto
            -20 18 -10 16 return
          </CharString>
          <CharString index="96">
            vvcurveto
            -604 -296 -155 -205 return
          </CharString>
          <CharString index="97">
            -1 rrcurveto
            17 17 13 38 hvcurveto
            11 -2 13 12 92 38 68 39 vvcurveto
            28 -15 18 -23 -11 -13 -5 -13 -14 vhcurveto
            return
          </CharString>
          <CharString index="98">
            hhcurveto
            35 24 11 24 13 -11 17 -26 20 hvcurveto
            74 -97 -12 113 -58 hhcurveto
            -20 -18 -15 -40 -5 hvcurveto
            -11 -81 return
          </CharString>
          <CharString index="99">
            -9 -30 -48 -4 -46 -52 return
          </CharString>
          <CharString index="100">
            84 3 102 0 vhcurveto
            0 123 -1 32 -6 vhcurveto
            -11 59 85 -65 19 hhcurveto
            10 7 7 20 hvcurveto
            26 -8 35 31 68 12 49 26 vvcurveto
            25 -5 25 -19 -10 -15 -8 -20 -20 vhcurveto
            -70 -70 -61 -35 0 vvcurveto
            return
          </CharString>
          <CharString index="101">
            104 vstem
            111 855 rmoveto
            -1 -18 0 -18 -17 vvcurveto
            -614 392 -231 380 401 310 244 612 565 -346 195 -367 -415 -339 -288 -430 -15 vhcurveto
            return
          </CharString>
          <CharString index="102">
            5 2 -198 hvcurveto
            -58 callgsubr
            endchar
          </CharString>
          <CharString index="103">
            -44 11 -38 24 -29 vhcurveto
            138 31 rmoveto
            -51 -28 45 48 82 57 142 173 135 hvcurveto
            156 122 145 42 88 14 22 -41 rcurveline
            -263 -92 -251 -326 -219 hhcurveto
            return
          </CharString>
          <CharString index="104">
            3 callsubr
            26 -7 36 38 vvcurveto
            return
          </CharString>
          <CharString index="105">
            250 -3 95 1293 -20 return
          </CharString>
          <CharString index="106">
            -2 3 hhcurveto
            -23 callsubr
            38 7 23 34 vvcurveto
            50 -10 9 -22 86 callsubr
            return
          </CharString>
          <CharString index="107">
            -31 32 24 -11 15 hhcurveto
            15 8 12 17 return
          </CharString>
          <CharString index="108">
            15 27 48 36 21 vhcurveto
            30 18 12 19 15 vvcurveto
            19 -19 14 -26 vhcurveto
            -29 -34 -6 -35 return
          </CharString>
          <CharString index="109">
            23 -4 38 -23 88 -62 rrcurveto
            -10 14 14 -3 10 hhcurveto
            28 8 26 26 hvcurveto
            27 -18 return
          </CharString>
          <CharString index="110">
            -17 17 30 -58 25 hhcurveto
            23 14 16 21 hvcurveto
            return
          </CharString>
          <CharString index="111">
            17 6 rrcurveto
            24 71 72 19 47 5 5 0 5 hhcurveto
            30 19 18 20 15 -62 63 -49 61 hvcurveto
            60 -49 -46 57 -28 hhcurveto
            -62 24 -54 -58 -8 hvcurveto
            -6 -40 return
          </CharString>
          <CharString index="112">
            71 -21 70 104 1086 -20 return
          </CharString>
          <CharString index="113">
            vvcurveto
            -41 -41 -76 -11 -33 vhcurveto
            -4 -10 -2 -9 -8 vvcurveto
            -26 18 -13 23 17 20 8 11 14 vhcurveto
            62 50 154 7 48 vvcurveto
            15 -14 16 -20 15 vhcurveto
            return
          </CharString>
          <CharString index="114">
            322 97 127 150 -25 callgsubr
            5 -1 5 -1 6 hvcurveto
            return
          </CharString>
          <CharString index="115">
            -5 -40 -92 38 -31 hhcurveto
            -18 -7 -7 -11 -8 4 -11 7 -11 hvcurveto
            42 -68 36 -79 19 -64 rrcurveto
            -20 6 12 -8 13 hhcurveto
            22 11 17 26 11 hvcurveto
            return
          </CharString>
          <CharString index="116">
            16 65 vhcurveto
            4 15 1 12 9 vvcurveto
            24 -10 9 -13 return
          </CharString>
          <CharString index="117">
            42 callgsubr
            -12 -10 vvcurveto
            return
          </CharString>
          <CharString index="118">
            38 callsubr
            2 -79 0 -113 -126 vvcurveto
            -366 -5 -475 -3 -63 vhcurveto
            -4 -77 -96 -56 -53 vvcurveto
            return
          </CharString>
          <CharString index="119">
            428 rmoveto
            -33 36 127 -143 29 hhcurveto
            17 -3 35 49 7 hvcurveto
            return
          </CharString>
          <CharString index="120">
            -16 callgsubr
            24 -18 10 -33 vhcurveto
            return
          </CharString>
          <CharString index="121">
            23 hhcurveto
            28 44 -5 -10 70 hvcurveto
            -1 19 callgsubr
            34 11 20 18 36 -29 9 -30 48 hvcurveto
            86 -48 -19 65 -35 hhcurveto
            -57 return
          </CharString>
          <CharString index="122">
            731 782 rmoveto
            99 149 99 164 71 121 -9 -116 -13 -165 -8 -155 rrcurveto
            -77 -80 1 1 -82 hvcurveto
            return
          </CharString>
          <CharString index="123">
            28 2 31 25 vvcurveto
            59 -16 17 -22 -42 -54 -113 -7 -77 vhcurveto
            return
          </CharString>
          <CharString index="124">
            13 -14 hhcurveto
            -16 -9 -20 -25 hvcurveto
            -28 12 -32 -40 vvcurveto
            -62 -13 -74 -8 -51 vhcurveto
            -3 -1 -2 -2 vvcurveto
            -24 18 -8 18 vhcurveto
            return
          </CharString>
          <CharString index="125">
            102 62 57 4 51 hvcurveto
            5 6 0 5 hhcurveto
            return
          </CharString>
          <CharString index="126">
            hhcurveto
            44 16 12 22 return
          </CharString>
          <CharString index="127">
            rmoveto
            -3 7 132 -4 30 30 116 -38 114 hhcurveto
            51 222 42 234 234 -223 44 0 hvcurveto
            return
          </CharString>
          <CharString index="128">
            -86 callgsubr
            hhcurveto
            return
          </CharString>
          <CharString index="129">
            -30 13 -13 19 vhcurveto
            return
          </CharString>
          <CharString index="130">
            hhcurveto
            -27 -12 -12 -19 return
          </CharString>
          <CharString index="131">
            74 61 25 callsubr
            return
          </CharString>
          <CharString index="132">
            -22 callsubr
            40 callsubr
            return
          </CharString>
          <CharString index="133">
            -10 -9 -13 -8 -11 -12 vhcurveto
            -49 -54 return
          </CharString>
          <CharString index="134">
            -334 74 -163 209 -10 vhcurveto
            return
          </CharString>
          <CharString index="135">
            vlineto
            2 12 0 10 8 vvcurveto
            23 -6 10 26 callsubr
            -26 -32 -60 return
          </CharString>
          <CharString index="136">
            -609 -9 1562 return
          </CharString>
          <CharString index="137">
            vvcurveto
            23 -7 9 26 callsubr
            -27 -32 -59 68 callsubr
            return
          </CharString>
          <CharString index="138">
            -9 -13 -5 -11 -10 vvcurveto
            -25 13 -12 25 vhcurveto
            return
          </CharString>
          <CharString index="139">
            vhcurveto
            27 68 127 81 hhcurveto
            66 return
          </CharString>
          <CharString index="140">
            -21 34 -21 hstemhm
            return
          </CharString>
          <CharString index="141">
            -380 -1 9 337 rlineto
            6 63 96 68 55 vvcurveto
            28 -2 -24 8 -26 hhcurveto
            return
          </CharString>
          <CharString index="142">
            -5 -27 -33 -44 -42 -44 rrcurveto
            31 callsubr
            return
          </CharString>
          <CharString index="143">
            -215 187 136 116 250 return
          </CharString>
          <CharString index="144">
            -31 -32 16 -36 hhcurveto
            -30 -13 -13 -19 hvcurveto
            return
          </CharString>
          <CharString index="145">
            -16 -10 -10 -16 -39 77 -82 32 -46 hvcurveto
            return
          </CharString>
          <CharString index="146">
            113 1148 94 84 -20 34 -20 return
          </CharString>
          <CharString index="147">
            -4 -24 -64 -13 -41 hhcurveto
            return
          </CharString>
          <CharString index="148">
            -14 -20 -21 -19 -24 vvcurveto
            return
          </CharString>
          <CharString index="149">
            -21 24 -21 27 -21 1610 -20 31 -20 25 -20 hstemhm
            222 94 return
          </CharString>
          <CharString index="150">
            -17 rrcurveto
            endchar
          </CharString>
          <CharString index="151">
            17 19 12 17 20 vvcurveto
            18 -13 30 -28 vhcurveto
            -28 -33 -22 -4 hhcurveto
            return
          </CharString>
          <CharString index="152">
            -173 -107 rrcurveto
            -20 -12 -7 -22 -19 vvcurveto
            -16 5 -13 7 -4 vhcurveto
            return
          </CharString>
          <CharString index="153">
            74 -74 85 hstemhm
            424 105 -99 96 return
          </CharString>
          <CharString index="154">
            88 61 -20 28 -20 31 -20 51 -20 return
          </CharString>
          <CharString index="155">
            28 callgsubr
            21 return
          </CharString>
          <CharString index="156">
            602 745 87 -84 83 -72 85 530 -20 289 -20 return
          </CharString>
          <CharString index="157">
            -11 57 48 -83 44 -26 callsubr
            return
          </CharString>
          <CharString index="158">
            -3 -34 -26 -14 -39 -27 -25 2 -23 hhcurveto
            -69 -19 -12 -25 hvcurveto
            return
          </CharString>
          <CharString index="159">
            130 -63 90 callgsubr
            vhcurveto
            25 9 11 40 hhcurveto
            return
          </CharString>
          <CharString index="160">
            -55 -25 -95 -2 -79 vhcurveto
            -1 -48 return
          </CharString>
          <CharString index="161">
            hintmask 00000000
            hintmask 01100000
            return
          </CharString>
          <CharString index="162">
            vhcurveto
            -1 -4 -1 -4 return
          </CharString>
          <CharString index="163">
            hstemhm
            82 1696 return
          </CharString>
          <CharString index="164">
            77 callgsubr
            -13 return
          </CharString>
          <CharString index="165">
            rmoveto
            -32 16 -11 19 41 53 109 6 65 vhcurveto
            return
          </CharString>
          <CharString index="166">
            19 callsubr
            13 -10 return
          </CharString>
          <CharString index="167">
            vhcurveto
            42 callgsubr
            return
          </CharString>
          <CharString index="168">
            241 -9 92 return
          </CharString>
          <CharString index="169">
            175 99 516 88 106 99 516 88 return
          </CharString>
          <CharString index="170">
            35 49 34 28 36 vvcurveto
            13 -8 8 -21 vhcurveto
            return
          </CharString>
          <CharString index="171">
            39 58 6 21 hhcurveto
            34 58 -6 -2 11 hvcurveto
            return
          </CharString>
          <CharString index="172">
            -372 2130 hstem
            41 1227 vstem
            return
          </CharString>
          <CharString index="173">
            288 -12 107 1376 75 121 -20 return
          </CharString>
          <CharString index="174">
            -28 -57 -17 -46 hhcurveto
            return
          </CharString>
          <CharString index="175">
            -43 -55 11 -87 hhcurveto
            return
          </CharString>
          <CharString index="176">
            -39 30 -73 -5 -15 55 rrcurveto
            -68 223 return
          </CharString>
          <CharString index="177">
            20 -18 74 -71 -22 -8 1 -11 -18 vvcurveto
            return
          </CharString>
          <CharString index="178">
            hintmask 00000000
            hintmask 10110000
            return
          </CharString>
          <CharString index="179">
            -19 17 -20 40 -11 vhcurveto
            return
          </CharString>
          <CharString index="180">
            -21 41 -21 80 104 hstemhm
            return
          </CharString>
          <CharString index="181">
            -10 -35 -38 -6 -36 hhcurveto
            return
          </CharString>
          <CharString index="182">
            -21 34 -21 38 -21 hstemhm
            return
          </CharString>
          <CharString index="183">
            -11 -11 -15 return
          </CharString>
          <CharString index="184">
            -7 2 -8 return
          </CharString>
          <CharString index="185">
            9 -19 hhcurveto
            return
          </CharString>
          <CharString index="186">
            -134 -123 -124 -107 -53 hvcurveto
            return
          </CharString>
          <CharString index="187">
            vlineto
            322 117 127 180 return
          </CharString>
          <CharString index="188">
            47 -21 24 -21 25 -21 1019 94 return
          </CharString>
          <CharString index="189">
            -20 hstemhm
            186 283 -147 96 return
          </CharString>
          <CharString index="190">
            vvcurveto
            519 return
          </CharString>
          <CharString index="191">
            87 hstem
            78 915 vstem
            560 return
          </CharString>
          <CharString index="192">
            vvcurveto
            4 0 4 -1 4 vhcurveto
            -9 return
          </CharString>
          <CharString index="193">
            -53 -27 -89 -8 -79 vhcurveto
            -5 -45 return
          </CharString>
          <CharString index="194">
            1 106 83 1102 80 21 -20 return
          </CharString>
          <CharString index="195">
            44 88 986 85 return
          </CharString>
          <CharString index="196">
            1284 445 return
          </CharString>
          <CharString index="197">
            108 75 120 return
          </CharString>
          <CharString index="198">
            0 3 4 vvcurveto
            return
          </CharString>
          <CharString index="199">
            454 hstemhm
            return
          </CharString>
          <CharString index="200">
            5 2 5 return
          </CharString>
          <CharString index="201">
            -40 rrcurveto
            endchar
          </CharString>
        <CharString name=".notdef">
          endchar
        </CharString>
        <CharString name=".null">
          endchar
        </CharString>
        <CharString name="A">
          14 callgsubr
          56 callsubr
          33 callgsubr
          -105 callsubr
          hintmask 01100000
          -94 callgsubr
          hintmask 10100000
          -72 callgsubr
          endchar
        </CharString>
        <CharString name="AE">
          49 callsubr
          hstemhm
          1025 89 -55 79 hintmask 00000000
          hintmask 10011100
          -73 callsubr
          hintmask 10011010
          -52 callsubr
          hintmask 00111100
          -39 callsubr
          hintmask 10011100
          -16 18 -16 31 -13 vhcurveto
          hintmask 01011010
          15 callsubr
          endchar
        </CharString>
        <CharString name="AEacute">
          49 callsubr
          245 33 callsubr
          1025 89 -55 79 80 461 35 callgsubr
          hintmask 1001100100000000
          -73 callsubr
          hintmask 1001100010000000
          -52 callsubr
          hintmask 0011100100000000
          -39 callsubr
          hintmask 1001100100000000
          -16 18 -16 31 -13 vhcurveto
          hintmask 0101100010000000
          15 callsubr
          35 callgsubr
          543 907 rmoveto
          21 callsubr
          hintmask 0000001001000000
          -96 callsubr
          hintmask 0000010001000000
          -24 callgsubr
        </CharString>
        <CharString name="Aacute">
          14 callgsubr
          1052 -21 34 -21 56 callsubr
          -987 461 -98 callgsubr
          hintmask 00000000
          211 930 -35 callgsubr
        </CharString>
        <CharString name="Acircumflex">
          14 callgsubr
          1168 -21 56 callsubr
          -1232 891 -99 callsubr
          -2 899 -101 callsubr
        </CharString>
        <CharString name="Adieresis">
          14 callgsubr
          955 237 56 callsubr
          -1169 771 -99 callsubr
          490 989 -106 callsubr
        </CharString>
        <CharString name="Agrave">
          14 callgsubr
          890 404 56 callsubr
          -1090 461 -99 callsubr
          339 932 -101 callgsubr
        </CharString>
        <CharString name="Aring">
          14 callgsubr
          806 76 callgsubr
          56 callsubr
          -1066 56 callgsubr
          -98 callgsubr
          hintmask 00110110
          282 812 -70 callgsubr
        </CharString>
        <CharString name="Atilde">
          14 callgsubr
          956 90 107 89 56 callsubr
          -1295 1011 -98 callgsubr
          hintmask 00110100
          -52 942 -98 callsubr
        </CharString>
        <CharString name="B">
          96 28 96 714 109 514 87 hstemhm
          242 263 -203 100 -36 98 572 100 -1 110 hintmask 00000000
          hintmask 11100110
          182 -93 rmoveto
          -27 26 -9 28 vhcurveto
          23 13 6 32 hhcurveto
          hintmask 11110010
          47 65 -7 29 -5 callgsubr
          hintmask 11101001
          -55 69 -26 -53 1 130 rrcurveto
          36 2 46 2 53 vhcurveto
          -67 64 160 -136 207 hhcurveto
          211 197 129 242 299 -300 162 -132 43 hvcurveto
          hintmask 11100110
          99 44 224 137 219 vvcurveto
          99 -39 146 -234 -190 -147 -179 -102 -68 vhcurveto
          4 80 2 68 50 18 -1 17 12 vvcurveto
          30 18 25 72 59 13 callsubr
          -34 -54 -11 -47 hhcurveto
          hintmask 11110010
          -42 -47 12 -26 -31 callgsubr
          hintmask 11100110
          48 -49 52 -39 -38 vvcurveto
          -13 -476 -16 -536 -35 -461 rrcurveto
          hintmask 11101010
          -2 -26 -30 3 -40 -34 rrcurveto
          hintmask 11100110
          -19 -16 -29 -26 -24 vvcurveto
          229 448 rmoveto
          10 220 17 288 12 240 rrcurveto
          138 89 145 220 182 hhcurveto
          99 71 -61 -109 -115 -145 -152 -129 -53 hvcurveto
          -107 -44 -100 42 -87 vvcurveto
          -24 13 -20 98 vhcurveto
          hintmask 11100101
          191 278 -201 -225 -195 -121 -93 -199 hvcurveto
          hintmask 11100110
          -169 -147 126 105 -88 hvcurveto
          endchar
        </CharString>
        <CharString name="C">
          226 5 87 -35 -21 hstemhm
          130 100 33 callgsubr
          701 18 rmoveto
          -9 66 59 -4 51 hhcurveto
          hintmask 01100000
          158 91 1 callgsubr
          hintmask 10100000
          -37 callgsubr
          -485 371 -177 200 -30 vhcurveto
          endchar
        </CharString>
        <CharString name="CR">
          endchar
        </CharString>
        <CharString name="Ccedilla">
          201 -439 91 392 87 -57 -21 43 -21 hstemhm
          77 100 471 90 callsubr
          hintmask 00000000
          hintmask 11001110
          330 -320 rmoveto
          -40 callsubr
          15 5 18 8 15 vhcurveto
          -1 19 19 0 17 hhcurveto
          hintmask 10011110
          159 90 1 callgsubr
          hintmask 11001110
          -37 callgsubr
          hintmask 10101110
          -510 407 -165 191 -21 vhcurveto
          -30 -69 3 12 -21 -23 callgsubr
          hintmask 11001110
          60 callgsubr
          endchar
        </CharString>
        <CharString name="D">
          199 172 103 1073 37 callgsubr
          hstemhm
          155 277 856 100 hintmask 00000000
          hintmask 11010111
          155 5 -30 callsubr
          hintmask 11101011
          -36 callsubr
          -4 -24 -64 -13 -41 hhcurveto
          hintmask 11010111
          -28 callgsubr
          48 -48 59 -40 3 -38 30 -399 12 -468 28 -398 rrcurveto
          -27 -46 -50 -39 -55 vhcurveto
          41 callsubr
          205 270 rmoveto
          -11 202 -23 601 -17 270 rrcurveto
          hintmask 11100111
          -9 callgsubr
          hintmask 11010111
          -7 -7 0 -7 hhcurveto
          endchar
        </CharString>
        <CharString name="DC1">
          endchar
        </CharString>
        <CharString name="DC2">
          endchar
        </CharString>
        <CharString name="DC3">
          endchar
        </CharString>
        <CharString name="DC4">
          endchar
        </CharString>
        <CharString name="DEL">
          endchar
        </CharString>
        <CharString name="DLE">
          endchar
        </CharString>
        <CharString name="Dcroat">
          196 -88 callsubr
        </CharString>
        <CharString name="Delta">
          -74 callgsubr
        </CharString>
        <CharString name="E">
          61 callgsubr
          hstem
          106 100 vstem
          -104 callsubr
          endchar
        </CharString>
        <CharString name="Eacute">
          61 callgsubr
          1059 33 callsubr
          106 100 446 461 hintmask 10010000
          -104 callsubr
          hintmask 00000000
          661 1068 -62 callsubr
        </CharString>
        <CharString name="Ecircumflex">
          61 callgsubr
          1195 -21 hstemhm
          106 100 178 891 -89 callgsubr
          425 1057 -101 callsubr
        </CharString>
        <CharString name="Edieresis">
          61 callgsubr
          899 237 hstemhm
          106 100 125 771 -89 callgsubr
          801 1064 -106 callsubr
        </CharString>
        <CharString name="Egrave">
          61 callgsubr
          841 34 callgsubr
          106 100 210 461 -89 callgsubr
          656 1014 -101 callgsubr
        </CharString>
        <CharString name="Emacron">
          61 callgsubr
          988 73 callsubr
          106 100 247 643 hintmask 10001000
          -104 callsubr
          hintmask 00000000
          373 1131 -21 callsubr
          hintmask 00110100
          -51 callgsubr
          hintmask 01010100
          -13 callgsubr
        </CharString>
        <CharString name="Eth">
          199 -88 callsubr
        </CharString>
        <CharString name="Euro">
          227 596 88 -75 97 344 95 -77 84 376 90 hstemhm
          383 100 hintmask 00000000
          hintmask 01011100
          92 514 rmoveto
          26 21 25 16 17 hvcurveto
          61 65 48 -7 129 hhcurveto
          83 -382 385 -140 140 -19 80 -11 14 -41 39 -55 rrcurveto
          -38 27 31 -19 22 hhcurveto
          16 10 10 20 hvcurveto
          27 -7 27 29 vvcurveto
          49 9 51 18 45 vhcurveto
          10 26 5 21 15 vvcurveto
          20 -8 10 -14 vhcurveto
          -44 -53 -101 -76 hhcurveto
          -9 -9 1 2 -11 hvcurveto
          hintmask 10011100
          -164 30 -308 115 -81 307 rrcurveto
          -4 169 168 -8 -1 hhcurveto
          25 -4 40 17 51 -110 rrcurveto
          -18 8 20 -9 11 hhcurveto
          26 10 36 27 hvcurveto
          16 -2 30 33 vvcurveto
          31 2 35 7 29 vhcurveto
          3 11 4 19 18 vvcurveto
          24 -8 20 -28 -13 -17 -6 -16 -11 vhcurveto
          -47 -31 -60 -48 -54 hhcurveto
          -105 7 -115 5 -116 4 rrcurveto
          -2 22 -1 22 24 vvcurveto
          102 16 96 29 87 vhcurveto
          6 185 215 9 3 hhcurveto
          26 -4 43 -10 46 -93 rrcurveto
          -16 8 20 -11 10 hhcurveto
          59 -36 103 134 31 hvcurveto
          3 12 5 20 18 vvcurveto
          23 -8 19 -29 -13 -16 -6 -16 -11 vhcurveto
          -31 -45 -71 -38 -54 -1 -347 -9 rcurveline
          233 112 211 147 231 hhcurveto
          119 34 -36 -102 39 hvcurveto
          -29 11 15 -11 14 hhcurveto
          21 20 24 25 hvcurveto
          8 -2 7 10 vvcurveto
          57 35 127 17 49 13 callgsubr
          -39 -25 -48 -18 -49 -24 -24 2 -24 hhcurveto
          hintmask 01101100
          -298 -286 -146 -326 -125 hvcurveto
          -39 -44 -1 -56 hhcurveto
          -23 -40 18 76 -61 hvcurveto
          19 -15 -15 8 -12 hhcurveto
          -30 -7 -32 -33 hvcurveto
          -28 5 -29 -12 vvcurveto
          -35 -3 -52 -8 -36 vhcurveto
          -3 -12 -1 -10 -8 vvcurveto
          -25 12 -10 17 44 59 92 12 69 23 callgsubr
          25 hhcurveto
          75 hlineto
          -22 -86 -12 -96 -107 vvcurveto
          -20 1 -19 1 -18 vhcurveto
          -110 2 rlineto
          -23 -62 10 59 -30 hvcurveto
          21 -11 -35 19 -13 hhcurveto
          -31 -7 -31 -33 hvcurveto
          -29 6 -31 -14 -22 2 -14 -16 -18 -10 -37 -19 vvcurveto
          hintmask 01011100
          -26 13 -11 18 vhcurveto
          endchar
        </CharString>
        <CharString name="F">
          17 806 98 480 -20 hstem
          189 258 vstem
          189 31 rmoveto
          -25 1 24 -12 26 28 41 21 70 30 27 -5 18 hhcurveto
          34 14 18 20 13 -12 16 -13 16 hvcurveto
          -40 48 -37 37 -6 48 -7 51 -5 124 -16 405 169 5 256 -6 109 4 1 1 rcurveline
          46 -11 47 -54 27 -26 7 -9 rcurveline
          -14 16 16 -9 13 hhcurveto
          13 19 12 31 hvcurveto
          20 -7 31 30 72 19 53 32 vvcurveto
          26 -8 25 -28 -12 -16 -6 -14 -19 vhcurveto
          -60 -56 -50 -20 -25 -6 rrcurveto
          -11 -93 -110 -2 -106 hhcurveto
          -82 -79 1 1 -67 hvcurveto
          -20 478 178 40 363 63 130 9 rlinecurve
          1 hlineto
          48 59 -40 -21 29 hvcurveto
          -12 17 20 -7 14 hhcurveto
          15 15 8 24 12 -3 14 -8 19 hvcurveto
          110 -47 45 139 -69 hhcurveto
          -14 -16 -9 -22 -18 hvcurveto
          -47 -67 -44 -30 -22 -14 -173 -36 -299 -62 -178 -26 rrcurveto
          17 -3 18 17 vvcurveto
          50 32 43 51 42 -16 callgsubr
          21 -13 7 -24 vhcurveto
          -33 -77 -19 -46 -39 -38 9 -19 -31 callgsubr
          48 -48 44 -38 3 -38 30 -399 -3 -498 28 -398 rrcurveto
          -28 -33 -50 -38 -57 vhcurveto
          -13 -20 -19 -20 -1 -24 rrcurveto
          endchar
        </CharString>
        <CharString name="G">
          109 -23 94 706 82 633 92 hstem
          99 107 989 112 vstem
          99 838 rmoveto
          -623 512 -238 488 45 31 9 50 15 vhcurveto
          33 110 58 499 18 84 rrcurveto
          5 23 3 20 17 vvcurveto
          45 -19 25 -47 -51 -217 4 6 -53 vhcurveto
          -53 6 -26 23 -72 85 rrcurveto
          26 -22 -16 10 -12 hhcurveto
          -20 -7 -29 -28 hvcurveto
          -24 5 -14 -26 vvcurveto
          -45 -8 -63 -14 -70 vhcurveto
          -2 -12 -2 -10 -8 vvcurveto
          -21 8 -7 10 18 26 22 14 10 vhcurveto
          44 32 63 35 58 hhcurveto
          241 hlineto
          41 17 -14 -29 -5 0 -6 -1 -6 hvcurveto
          -24 -133 -57 -488 -34 -23 rrcurveto
          -1 -13 -16 -1 -19 hhcurveto
          -224 -601 114 624 549 478 134 260 71 83 5 -113 93 hvcurveto
          -25 20 15 -9 11 hhcurveto
          21 4 35 21 hvcurveto
          10 -6 39 59 vvcurveto
          34 2 41 8 41 vhcurveto
          2 9 1 8 7 vvcurveto
          22 -9 10 -14 -13 -18 -9 -17 -19 vhcurveto
          -44 -49 -36 -41 -45 -32 -40 9 -43 hhcurveto
          -308 -544 -179 -567 hvcurveto
          endchar
        </CharString>
        <CharString name="H">
          404 50 -21 809 92 hstemhm
          124 307 -175 94 894 327 -207 92 -80 94 hintmask 00000000
          hintmask 11010100
          108 35 rmoveto
          5 callgsubr
          hhcurveto
          hintmask 11100100
          39 40 -2 21 -5 callgsubr
          -61 75 -30 -2 112 vvcurveto
          110 7 231 7 229 vhcurveto
          -3 43 74 -2 90 hhcurveto
          279 431 13 3 116 hvcurveto
          -1 -212 0 -219 -5 -182 -1 -26 -36 -44 -38 -54 rrcurveto
          41 callsubr
          5 callgsubr
          hhcurveto
          hintmask 11011000
          39 40 -2 21 -5 callgsubr
          hintmask 11010100
          -79 98 -13 -51 230 vvcurveto
          317 12 699 2 155 vhcurveto
          hintmask 11010010
          30 32 71 24 callsubr
          hintmask 11011000
          -28 callgsubr
          hintmask 11010010
          49 -49 59 -34 -39 vvcurveto
          hintmask 11010100
          -10 -190 -2 -224 -220 vvcurveto
          -9 -176 -248 -5 -226 hhcurveto
          -145 -134 2 4 -101 hvcurveto
          7 247 9 240 84 vvcurveto
          30 32 70 24 callsubr
          hintmask 11100100
          -28 callgsubr
          hintmask 11010100
          49 -49 59 -33 -39 vvcurveto
          -20 -399 -6 -513 -12 -398 -1 -26 -36 -42 -38 -54 rrcurveto
          41 callsubr
          endchar
        </CharString>
        <CharString name="HT">
          endchar
        </CharString>
        <CharString name="I">
          29 callsubr
          hstem
          307 96 vstem
          -96 callgsubr
          endchar
        </CharString>
        <CharString name="IJ">
          -103 -333 1925 -1261 1222 hstemhm
          243 909 -874 84 hintmask 01010000
          149 373 -64 callgsubr
          -37 51 -44 40 -1 48 rrcurveto
          -6 92 -1 168 159 vvcurveto
          171 1 162 1 46 vhcurveto
          1 30 30 43 77 58 rrcurveto
          -75 callsubr
          10 -401 1 16 -398 52 callgsubr
          hintmask 10100000
          94 -363 -82 callgsubr
          endchar
        </CharString>
        <CharString name="Iacute">
          29 callsubr
          253 33 callsubr
          159 461 -313 96 hintmask 10001000
          -96 callgsubr
          hintmask 00000000
          100 1645 -62 callgsubr
        </CharString>
        <CharString name="Icircumflex">
          29 callsubr
          340 -21 hstemhm
          -86 891 -498 -78 callsubr
          -113 1585 -101 callsubr
        </CharString>
        <CharString name="Idieresis">
          29 callsubr
          127 237 hstemhm
          -23 771 -441 -78 callsubr
          379 1675 -106 callsubr
        </CharString>
        <CharString name="Igrave">
          29 callsubr
          62 34 callgsubr
          56 461 -210 -78 callsubr
          228 1618 -101 callgsubr
        </CharString>
        <CharString name="Imacron">
          -679 -9 1562 267 73 callsubr
          1 643 -372 96 hintmask 10000100
          139 -100 callgsubr
          hintmask 00000000
          -112 1793 -21 callsubr
          hintmask 00111000
          -51 callgsubr
          hintmask 01011000
          -13 callgsubr
        </CharString>
        <CharString name="Itilde">
          29 callsubr
          128 90 107 89 hstemhm
          -149 1011 -555 96 hintmask 10001000
          -96 callgsubr
          hintmask 01110000
          -163 1628 -98 callsubr
        </CharString>
        <CharString name="J">
          -275 -295 1925 hstem
          26 909 vstem
          26 48 -82 callgsubr
          endchar
        </CharString>
        <CharString name="Jcircumflex">
          -319 -295 1925 351 -21 hstemhm
          -18 909 -640 891 hintmask 10100000
          -18 48 -82 callgsubr
          hintmask 01010000
          416 1658 -101 callsubr
        </CharString>
        <CharString name="K">
          170 1646 82 callsubr
          33 callgsubr
          52 callsubr
          hintmask 11000000
          -60 callsubr
          hintmask 10100000
          -10 callgsubr
          hintmask 11000000
          -43 -68 11 -15 -31 callgsubr
          hintmask 10100000
          18 callgsubr
          endchar
        </CharString>
        <CharString name="Kcommaaccent">
          90 -417 -21 2084 82 callsubr
          228 342 hintmask 00000000
          hintmask 01010000
          52 callsubr
          hintmask 01100000
          -60 callsubr
          hintmask 01010000
          -10 callgsubr
          hintmask 01100000
          -43 -68 11 -15 -31 callgsubr
          hintmask 01010000
          18 callgsubr
          hintmask 10001000
          528 -43 -84 callsubr
        </CharString>
        <CharString name="L">
          -62 94 -21 hstemhm
          251 100 -58 79 hintmask 00000000
          hintmask 11000000
          107 -46 callgsubr
          hintmask 10100000
          -18 callgsubr
          hintmask 11000000
          25 callgsubr
          endchar
        </CharString>
        <CharString name="LF">
          endchar
        </CharString>
        <CharString name="Ldot">
          16 94 -21 531 274 hstemhm
          226 100 -58 79 532 350 33 callgsubr
          82 -46 callgsubr
          hintmask 10010000
          -18 callgsubr
          hintmask 10100000
          25 callgsubr
          hintmask 01001000
          807 842 -93 callsubr
          endchar
        </CharString>
        <CharString name="Lslash">
          -107 94 -21 hstemhm
          250 100 -58 79 hintmask 00000000
          hintmask 11000000
          106 -34 callgsubr
          -8 287 -33 138 -13 80 -7 24 -130 57 -10 callsubr
          -46 -50 -50 -23 -25 hhcurveto
          -111 -341 19 29 -146 hvcurveto
          1 89 8 145 7 216 rrcurveto
          82 149 172 92 14 callsubr
          19 -138 -51 -77 hvcurveto
          hintmask 10100000
          -84 -60 -104 -60 -76 -40 2 55 rcurveline
          9 246 1 -39 callgsubr
          vvcurveto
          -222 -12 -211 -11 -213 vhcurveto
          -52 -25 -48 -25 -41 -26 rrcurveto
          -2 -2 -4 0 8 callsubr
          hintmask 11000000
          17 64 20 58 57 32 57 32 rcurveline
          -7 -138 -6 -141 -144 vvcurveto
          25 callgsubr
          endchar
        </CharString>
        <CharString name="M">
          615 48 -21 27 -21 hstemhm
          88 1730 33 callgsubr
          88 70 rmoveto
          -1 0 -1 -1 vvcurveto
          -27 29 -13 28 vhcurveto
          hintmask 01100000
          17 8 6 21 65 108 -24 15 hhcurveto
          33 13 12 22 12 -8 15 -11 17 hvcurveto
          -37 55 -28 61 50 vvcurveto
          102 53 279 46 336 vhcurveto
          12 93 9 63 8 47 87 -224 261 -672 27 -61 rrcurveto
          -73 32 -2 -44 38 hhcurveto
          38 15 55 76 28 hvcurveto
          23 62 312 656 109 229 25 -189 53 -387 9 -54 21 -129 24 -167 1 -36 -2 -30 -57 -137 -10 -15 rrcurveto
          -8 -12 -6 -14 -14 vvcurveto
          -15 7 -13 22 36 104 52 7 73 vhcurveto
          44 4 45 5 32 vvcurveto
          45 -131 52 -22 72 vhcurveto
          -19 62 -120 924 -5 58 8 27 87 122 13 12 rrcurveto
          13 12 11 17 16 vvcurveto
          15 -11 12 -31 vhcurveto
          -35 -70 -13 -59 -32 -31 6 -26 hhcurveto
          -25 -21 -6 -24 -39 79 -65 23 -53 hvcurveto
          -110 -233 -339 -715 -18 -45 rrcurveto
          -24 -10 -8 -13 -9 hhcurveto
          -10 -11 19 39 -13 hvcurveto
          -38 112 -282 715 -68 170 11 26 28 38 56 53 20 19 7 15 -1 13 rrcurveto
          22 -1 -16 9 -26 -40 -55 -26 -123 -32 -16 4 -16 hhcurveto
          -31 -13 -13 -18 hvcurveto
          -57 149 -65 -52 vvcurveto
          -6 -120 -25 -56 -28 -217 -30 -230 -38 -231 -32 -203 rrcurveto
          hintmask 10100000
          -8 -53 -139 -73 -5 -57 rrcurveto
          endchar
        </CharString>
        <CharString name="N">
          74 callgsubr
          hstem
          1338 95 vstem
          -91 callgsubr
          endchar
        </CharString>
        <CharString name="Nacute">
          74 callgsubr
          383 33 callsubr
          731 461 146 95 hintmask 10001000
          -91 callgsubr
          hintmask 00000000
          730 1662 -62 callgsubr
        </CharString>
        <CharString name="Ntilde">
          74 callgsubr
          258 90 107 89 hstemhm
          423 1011 -96 95 hintmask 10001000
          -91 callgsubr
          hintmask 01110000
          467 1645 -98 callsubr
        </CharString>
        <CharString name="O">
          4 callgsubr
          hstem
          105 101 1028 104 vstem
          -93 callgsubr
          endchar
        </CharString>
        <CharString name="OE">
          746 68 82 656 78 431 -20 64 82 211 -20 hstem
          133 97 845 107 vstem
          678 68 rmoveto
          133 209 151 183 70 hvcurveto
          -12 -208 -2 -26 -34 -55 -33 -33 rlinecurve
          -17 -17 -41 -20 -24 vvcurveto
          -21 17 -5 22 vhcurveto
          26 23 5 26 45 60 -5 38 hhcurveto
          29 17 4 17 hvcurveto
          55 -76 14 89 vvcurveto
          148 -44 207 -63 117 -42 18 -14 9 -35 36 -65 rrcurveto
          -25 14 15 -10 14 hhcurveto
          26 15 32 34 5 hvcurveto
          7 51 89 110 37 vvcurveto
          19 -13 9 -16 vhcurveto
          -40 -75 -60 -58 hhcurveto
          -4 -3 0 1 -4 hvcurveto
          -96 19 -252 84 -167 54 rrcurveto
          1 94 11 159 191 vvcurveto
          32 0 32 -1 33 vhcurveto
          14 15 1 16 hhcurveto
          131 190 -14 -6 66 hvcurveto
          -6 64 32 -126 54 hhcurveto
          13 20 5 34 hvcurveto
          18 -6 25 30 89 23 70 27 vvcurveto
          31 -15 22 -26 -12 -15 -6 -16 -14 vhcurveto
          -53 -48 -44 -46 -26 hhcurveto
          -193 -126 0 4 -117 hvcurveto
          -8 174 -4 156 -3 97 rrcurveto
          54 174 261 91 79 59 56 -55 46 hhcurveto
          16 12 9 20 11 -5 16 -10 18 hvcurveto
          -59 105 28 119 -62 1 rrcurveto
          -13 -16 -11 -25 -14 hvcurveto
          -37 -66 -30 -51 -21 -10 -114 -52 -203 -52 -149 -43 rrcurveto
          25 vlineto
          6 -1 8 9 vvcurveto
          34 7 49 59 48 -16 callgsubr
          22 -11 12 -24 vhcurveto
          -33 -76 -32 -83 -19 -21 2 -15 hhcurveto
          -35 -13 -7 -21 -14 15 -17 19 -12 hvcurveto
          53 -34 48 -27 3 -38 6 -80 7 -123 4 -82 rrcurveto
          172 -90 -142 102 -141 hhcurveto
          -324 -249 -281 -379 -16 0 -16 1 -16 hvcurveto
          -609 34 312 -56 198 hhcurveto
          -10 82 rmoveto
          -4 -4 0 -4 hhcurveto
          -137 -289 74 546 451 298 138 154 14 14 -1 -2 11 hvcurveto
          59 -12 295 -47 -541 vvcurveto
          -394 -242 -206 -165 -6 vhcurveto
          endchar
        </CharString>
        <CharString name="Oacute">
          4 callgsubr
          257 33 callsubr
          105 101 335 461 232 104 hintmask 11001010
          -93 callgsubr
          hintmask 00000000
          -63 1650 -35 callgsubr
        </CharString>
        <CharString name="Ocircumflex">
          4 callgsubr
          397 -21 hstemhm
          105 101 65 891 72 -67 callsubr
          -301 1643 -101 callsubr
        </CharString>
        <CharString name="Odieresis">
          4 callgsubr
          184 237 hstemhm
          105 101 128 771 129 -67 callsubr
          191 1733 -106 callsubr
        </CharString>
        <CharString name="Ograve">
          4 callgsubr
          119 34 callgsubr
          105 101 207 461 360 -67 callsubr
          40 1676 -101 callgsubr
        </CharString>
        <CharString name="Ohungarumlaut">
          4 callgsubr
          263 75 callsubr
          105 101 130 1003 -105 104 hintmask 11000101
          -93 callgsubr
          hintmask 00000000
          -268 1686 -59 callgsubr
          hintmask 00001010
          21 callsubr
          hintmask 00010010
          -96 callsubr
          hintmask 00101010
          -24 callgsubr
        </CharString>
        <CharString name="Omega">
          -77 callsubr
        </CharString>
        <CharString name="Oslash">
          206 -43 95 1324 -20 32 -20 115 90 hstemhm
          135 101 1028 104 hintmask 00000000
          hintmask 10111100
          -6 45 rmoveto
          72 callsubr
          34 -9 68 -18 13 -25 rrcurveto
          -21 10 24 -22 22 hhcurveto
          65 -52 103 85 39 hvcurveto
          0 19 28 29 41 vhcurveto
          -140 119 159 -60 157 hhcurveto
          -2 callgsubr
          274 -65 184 -101 117 hvcurveto
          62 44 21 18 97 10 11 -1 11 hhcurveto
          30 21 19 19 13 -18 20 -28 16 hvcurveto
          56 -97 -34 97 -59 hhcurveto
          -25 -22 -14 -35 hvcurveto
          -35 16 -38 -34 vvcurveto
          -36 -22 -17 -28 -41 vhcurveto
          79 -103 -133 37 -131 hhcurveto
          -369 -259 -318 -466 -240 50 -181 80 -130 hvcurveto
          -37 -48 -29 -36 -16 -16 -33 -33 -60 -5 -35 -8 rrcurveto
          -41 -10 -20 -16 -21 vvcurveto
          338 282 rmoveto
          -59 118 -37 163 223 -11 callgsubr
          vhcurveto
          hintmask 11011100
          94 122 -32 -75 91 hvcurveto
          hintmask 10111100
          -182 -257 -351 -510 -207 -282 rrcurveto
          51 -84 rmoveto
          190 268 389 547 178 247 rrcurveto
          74 -99 50 -154 -241 -11 callsubr
          -132 -143 49 142 -105 vhcurveto
          endchar
        </CharString>
        <CharString name="Otilde">
          4 callgsubr
          185 90 107 89 hstemhm
          105 101 2 1011 15 104 hintmask 11001010
          -93 callgsubr
          hintmask 00110100
          -351 1686 -98 callsubr
        </CharString>
        <CharString name="P">
          -71 726 88 534 -20 226 89 hstemhm
          138 213 -194 305 -169 96 645 101 hintmask 00000000
          hintmask 11101010
          157 -43 rmoveto
          -25 20 -14 24 vhcurveto
          39 40 7 37 hhcurveto
          52 47 -4 -8 37 hvcurveto
          -2 9 9 -1 7 hhcurveto
          33 13 17 20 14 -9 13 93 callgsubr
          hintmask 11100110
          -46 62 -67 50 85 vvcurveto
          81 -16 429 -14 275 vhcurveto
          -186 80 173 -61 102 hhcurveto
          242 179 183 305 331 -244 98 -148 hvcurveto
          hintmask 11110010
          -165 -182 -117 -178 -45 hvcurveto
          217 vlineto
          6 -1 3 3 vvcurveto
          10 7 8 58 66 vhcurveto
          hintmask 11101010
          17 19 30 34 13 vvcurveto
          27 -14 14 -23 -6 -6 -1 -1 -6 vhcurveto
          hintmask 11110010
          -77 -18 -59 -1 -62 -2 rrcurveto
          -52 -1 -19 -11 -25 vvcurveto
          -59 96 -28 13 -67 vhcurveto
          hintmask 11100110
          28 -149 17 -1282 1 6 -4 -26 -49 -74 -68 -35 rrcurveto
          hintmask 11101010
          -15 -8 0 -19 -10 vvcurveto
          560 857 rmoveto
          -150 -177 151 224 159 129 206 218 95 202 -49 -303 -274 -168 -114 -149 hvcurveto
          endchar
        </CharString>
        <CharString name="Q">
          260 -10 86 1364 92 hstem
          136 101 1010 111 vstem
          779 -10 rmoveto
          109 3 93 34 78 56 56 -30 74 -41 80 -41 36 -19 2 -97 5 -39 rrcurveto
          -30 4 15 -20 21 hhcurveto
          17 14 12 33 16 hvcurveto
          51 107 102 33 56 vvcurveto
          21 -19 16 -37 vhcurveto
          -54 -42 -6 -29 hhcurveto
          -37 -114 55 51 -89 hvcurveto
          151 153 76 242 218 12 -1 12 12 vvcurveto
          529 -23 -322 210 -264 hhcurveto
          -316 -296 -251 -452 -692 358 -147 265 hvcurveto
          7 6 0 7 hhcurveto
          -17 86 rmoveto
          -202 -298 121 602 -24 hvcurveto
          -1 15 0 15 15 vvcurveto
          456 312 140 202 202 294 -181 -489 -498 -250 -192 -235 -4 vhcurveto
          endchar
        </CharString>
        <CharString name="R">
          73 callgsubr
          hstem
          264 83 726 99 vstem
          -100 callsubr
          endchar
        </CharString>
        <CharString name="RS">
          endchar
        </CharString>
        <CharString name="Racute">
          73 callgsubr
          286 33 callsubr
          264 83 131 461 134 99 hintmask 10010100
          -100 callsubr
          hintmask 00000000
          438 1663 -62 callsubr
        </CharString>
        <CharString name="Rcaron">
          73 callgsubr
          285 -21 hstemhm
          226 864 -826 83 726 99 hintmask 10011000
          -100 callsubr
          hintmask 01100000
          462 1605 -89 callsubr
        </CharString>
        <CharString name="Rcommaaccent">
          147 -417 -21 1874 84 hstemhm
          264 83 253 342 131 99 hintmask 01101000
          -100 callsubr
          hintmask 10010000
          457 -121 -84 callsubr
        </CharString>
        <CharString name="S">
          67 callgsubr
          hstem
          240 93 473 100 vstem
          -66 callsubr
          endchar
        </CharString>
        <CharString name="Scaron">
          67 callgsubr
          300 -21 hstemhm
          80 864 -704 93 473 100 hintmask 11100110
          -66 callsubr
          hintmask 00011000
          342 1823 -89 callsubr
        </CharString>
        <CharString name="T">
          76 1425 95 130 -20 26 -20 hstemhm
          76 1242 71 callsubr
          456 62 rmoveto
          -17 -18 -7 -17 -13 vvcurveto
          -17 13 -11 21 vhcurveto
          25 38 9 42 44 47 -3 38 hhcurveto
          55 15 8 18 17 -18 21 -8 7 hvcurveto
          -42 37 -38 78 45 vvcurveto
          42 48 946 15 214 vhcurveto
          373 hlineto
          26 -4 41 -11 45 -98 rrcurveto
          -22 10 21 -19 10 hhcurveto
          hintmask 11010000
          65 -46 138 149 35 -50 callgsubr
          -45 -71 -62 -54 -7 rrcurveto
          -4 -90 -78 -2 -75 -186 -157 12 -219 hhcurveto
          -22 -26 24 82 -59 hvcurveto
          hintmask 10110000
          17 -12 -19 13 -13 hhcurveto
          -31 -7 -36 -37 hvcurveto
          -32 5 -34 -14 vvcurveto
          -38 -4 -52 -34 callsubr
          53 41 108 12 67 vhcurveto
          1 5 -5 1 363 hhcurveto
          -14 -310 -25 -628 -22 -278 -5 -58 -70 -44 -39 -45 rrcurveto
          endchar
        </CharString>
        <CharString name="Thorn">
          -9 415 93 680 89 382 -20 29 -20 hstemhm
          166 277 656 100 hintmask 00000000
          hintmask 11011100
          166 5 -14 callsubr
          13 -10 17 -13 16 hvcurveto
          -39 46 -46 34 -4 45 -5 43 -5 90 -4 117 rrcurveto
          -11 69 76 -7 77 hhcurveto
          301 313 108 395 274 -223 85 -239 -145 -151 -31 -40 -112 hvcurveto
          -8 131 -8 100 47 vvcurveto
          hintmask 11101100
          31 28 33 73 60 -16 callgsubr
          21 -14 10 -25 vhcurveto
          -35 -48 -25 -102 hhcurveto
          hintmask 11011100
          -35 -39 9 -24 hhcurveto
          -28 -11 -21 callgsubr
          48 -48 59 -29 3 -38 30 -402 12 -483 28 -401 rrcurveto
          -25 -47 -45 -38 -52 vhcurveto
          -14 -19 -21 -20 -24 vvcurveto
          193 533 rmoveto
          -7 168 -10 212 -8 194 rrcurveto
          48 130 138 28 121 hhcurveto
          210 166 -84 -206 -258 -238 -132 -273 -75 -78 10 20 -76 hvcurveto
          endchar
        </CharString>
        <CharString name="U">
          61 callsubr
          hstem
          62 callgsubr
          vstem
          -102 callgsubr
          endchar
        </CharString>
        <CharString name="US">
          endchar
        </CharString>
        <CharString name="Uacute">
          61 callsubr
          1723 33 callsubr
          62 callgsubr
          -940 461 hintmask 10010000
          -102 callgsubr
          hintmask 00000000
          439 994 -62 callsubr
        </CharString>
        <CharString name="Ucircumflex">
          61 callsubr
          1810 -21 hstemhm
          62 callgsubr
          -1185 891 -87 callsubr
          226 934 -101 callsubr
        </CharString>
        <CharString name="Udieresis">
          61 callsubr
          1597 237 hstemhm
          62 callgsubr
          -1122 771 -87 callsubr
          718 1024 -106 callsubr
        </CharString>
        <CharString name="Ugrave">
          61 callsubr
          1532 34 callgsubr
          62 callgsubr
          -1043 461 -87 callsubr
          567 967 -101 callgsubr
        </CharString>
        <CharString name="Uhungarumlaut">
          61 callsubr
          1753 75 callsubr
          62 callgsubr
          -1175 1003 hintmask 10001000
          -102 callgsubr
          hintmask 00000000
          204 1054 -59 callgsubr
          hintmask 00010100
          21 callsubr
          hintmask 00100100
          -96 callsubr
          hintmask 01010100
          -24 callgsubr
        </CharString>
        <CharString name="V">
          42 -24 1554 hstem
          -28 1411 vstem
          601 18 rmoveto
          -20 3 20 -22 20 hhcurveto
          13 12 9 23 9 hvcurveto
          20 48 39 68 34 77 119 273 309 747 31 58 11 20 23 10 29 17 rrcurveto
          46 27 44 12 30 vvcurveto
          17 -21 14 -33 11 vhcurveto
          32 -99 -58 61 -39 63 callgsubr
          16 -52 8 -35 -28 vvcurveto
          -10 -1 -9 -2 -8 vhcurveto
          -46 -192 -313 -722 -113 -259 -71 188 -314 754 -55 219 rrcurveto
          -1 2 0 2 2 44 106 36 52 vvcurveto
          22 -24 8 -26 vhcurveto
          -9 -74 -11 -121 -9 -9 0 -9 hhcurveto
          -42 -17 -13 -20 -71 109 5 31 -93 hvcurveto
          101 -310 309 -721 79 -227 rrcurveto
          endchar
        </CharString>
        <CharString name="W">
          661 1319 -20 hstem
          12 1986 vstem
          535 57 rmoveto
          -21 6 27 -34 28 hhcurveto
          42 27 116 103 51 hvcurveto
          130 264 108 342 53 184 72 -310 175 -508 47 -110 rrcurveto
          -14 6 28 -67 35 hhcurveto
          45 21 104 92 43 hvcurveto
          110 236 173 548 82 298 rrcurveto
          20 71 134 -18 63 vvcurveto
          16 -22 15 -33 11 vhcurveto
          -51 16 -62 34 -26 20 2 -1 rcurveline
          14 -14 -22 10 -18 hhcurveto
          -22 -17 -11 -26 -8 2 -9 3 -11 hvcurveto
          -1 2 1 -5 3 -6 1 -4 rlinecurve
          15 -52 10 -33 -29 vvcurveto
          -7 -1 -6 -1 -7 vhcurveto
          -44 -242 -213 -650 -126 -262 -41 153 -211 532 -34 301 rrcurveto
          1 0 1 1 vvcurveto
          -1 22 27 24 29 26 27 24 rcurveline
          16 14 7 14 11 vvcurveto
          22 -26 8 -26 vhcurveto
          -44 -47 -12 -60 -24 -27 1 -27 hhcurveto
          -39 -16 -13 -20 -20 23 -28 40 -25 hvcurveto
          18 -12 21 -13 16 -21 -106 -359 -113 -300 -153 -333 -75 200 -226 727 -47 214 rrcurveto
          -1 2 0 1 2 37 106 56 40 vvcurveto
          22 -24 8 -26 vhcurveto
          -34 1 -14 -104 -26 -30 3 -40 hhcurveto
          -38 -15 -14 -19 -23 25 -26 38 -24 hvcurveto
          27 -18 36 -22 14 -46 88 -302 212 -674 83 -237 rrcurveto
          endchar
        </CharString>
        <CharString name="X">
          241 1642 -20 hstem
          13 1580 vstem
          61 128 rmoveto
          -93 146 -2 -88 57 hhcurveto
          72 -52 160 99 43 hvcurveto
          464 564 260 -307 263 -303 1 -2 rlinecurve
          9 -13 5 -15 -21 -25 -18 -35 -40 vvcurveto
          -42 23 -4 19 36 120 92 45 50 vhcurveto
          27 24 9 16 14 vvcurveto
          56 -137 -29 -63 54 vhcurveto
          -65 55 -240 266 -234 276 188 232 164 233 9 12 rrcurveto
          36 27 151 77 62 hhcurveto
          32 4 22 13 21 vvcurveto
          52 -170 40 -69 50 vhcurveto
          14 -19 -22 20 -22 hhcurveto
          -20 -9 -8 -22 hvcurveto
          -29 19 -64 -44 vvcurveto
          -13 -11 -44 -10 -14 vhcurveto
          -62 -85 -157 -206 -167 -203 -170 201 -150 197 -62 67 rrcurveto
          -26 28 -20 74 28 21 3 20 20 vvcurveto
          54 -7 28 -29 -54 -14 -119 -53 -116 vhcurveto
          -35 -16 -25 -24 -14 vvcurveto
          -62 139 42 58 -33 vhcurveto
          18 -11 210 -245 225 -264 -213 -258 -221 -259 -77 -75 rrcurveto
          -23 -23 -49 -7 -38 -18 -15 3 -12 hhcurveto
          -36 -20 -23 -20 -17 16 -16 32 -20 hvcurveto
          endchar
        </CharString>
        <CharString name="Y">
          106 92 callgsubr
          hstem
          643 95 vstem
          -90 callgsubr
          endchar
        </CharString>
        <CharString name="Yacute">
          106 92 callgsubr
          159 33 callsubr
          606 461 -424 95 hintmask 10001000
          -90 callgsubr
          hintmask 00000000
          188 1682 -62 callgsubr
        </CharString>
        <CharString name="Ydieresis">
          106 92 callgsubr
          52 237 hstemhm
          332 771 -460 95 hintmask 10010000
          -90 callgsubr
          hintmask 01100000
          375 1731 -106 callsubr
        </CharString>
        <CharString name="Z">
          66 callsubr
          hstem
          131 1345 vstem
          -67 callgsubr
          endchar
        </CharString>
        <CharString name="Zcaron">
          66 callsubr
          242 -21 hstemhm
          131 1345 -1073 864 hintmask 11101000
          -67 callgsubr
          hintmask 00010100
          634 1637 -89 callsubr
        </CharString>
        <CharString name="a">
          -2 callsubr
          hstem
          82 107 vstem
          -107 callgsubr
          endchar
        </CharString>
        <CharString name="aacute">
          51 callgsubr
          542 461 -103 callgsubr
          657 1376 -102 callsubr
        </CharString>
        <CharString name="acircumflex">
          -2 callsubr
          24 92 callsubr
          82 107 147 871 -103 callgsubr
          294 1273 -103 callsubr
        </CharString>
        <CharString name="acute">
          87 callgsubr
          151 461 vstem
          266 1513 -102 callsubr
        </CharString>
        <CharString name="acute.cap">
          -511 1806 33 callsubr
          233 461 54 callsubr
          348 1678 rmoveto
          21 callsubr
          hintmask 10100000
          -96 callsubr
          hintmask 01100000
          -24 callgsubr
        </CharString>
        <CharString name="adieresis">
          -2 callsubr
          363 -20 hstemhm
          82 107 200 771 -103 callgsubr
          776 1342 -106 callsubr
        </CharString>
        <CharString name="ae">
          550 19 89 294 87 351 83 427 93 -21 -20 hstemhm
          21 94 634 91 758 97 hintmask 00000000
          hintmask 11110111
          56 -30 callgsubr
          27 -54 35 vhcurveto
          -19 12 -79 129 -62 110 rrcurveto
          -57 106 122 -15 -54 callgsubr
          -250 65 -170 -178 -342 -170 -393 -6 hvcurveto
          -65 128 -58 118 -41 81 rrcurveto
          -4 7 -2 8 11 vvcurveto
          hintmask 11101111
          -24 callsubr
          hintmask 11110111
          -4 callsubr
          endchar
        </CharString>
        <CharString name="aeacute">
          573 19 89 130 87 351 83 427 93 143 -20 131 34 callgsubr
          44 94 734 91 25 461 272 97 hintmask 1111101101000000
          79 -30 callgsubr
          26 -54 36 vhcurveto
          -12 7 -13 26 -24 36 -13 19 rcurveline
          -59 106 124 -14 -54 callgsubr
          -240 65 -170 -179 -357 -173 -401 hvcurveto
          -20 vlineto
          -14 28 rlineto
          2 13 2 11 12 vvcurveto
          37 -15 29 -44 4 vhcurveto
          -77 151 -70 144 -48 93 rrcurveto
          -4 7 -2 8 11 -24 callsubr
          -4 callsubr
          hintmask 0000010010000000
          886 1461 -102 callsubr
        </CharString>
        <CharString name="afii61352">
          1178 241 86 208 93 745 79 -9 -20 hstemhm
          1431 101 722 97 hintmask 00000000
          hintmask 11101100
          -56 callsubr
          670 -73 callgsubr
          -92 119 -580 924 -37 101 rrcurveto
          8 18 58 82 39 vhcurveto
          22 10 15 21 17 vvcurveto
          15 -12 12 -29 vhcurveto
          hintmask 11011100
          -26 -49 -11 -58 hhcurveto
          hintmask 11101100
          -19 callsubr
          -4 -21 -92 -898 -16 -92 -8 callgsubr
          1315 980 rmoveto
          -413 347 -48 91 69 413 32 403 425 -300 74 -156 -36 -39 -5 -12 -39 vhcurveto
          -195 -27 -155 -183 -246 vvcurveto
          101 -2 rmoveto
          102 39 133 79 63 vhcurveto
          25 54 90 56 101 hhcurveto
          123 236 -55 -343 -320 -327 -27 -55 -93 -247 61 305 hvcurveto
          -34 -825 58 callsubr
          95 8 214 1 57 4 2 callsubr
          3 72 16 callsubr
          -13 -135 -126 -6 -114 2 callgsubr
          endchar
        </CharString>
        <CharString name="agrave">
          51 callgsubr
          173 461 -103 callgsubr
          519 1376 -101 callgsubr
        </CharString>
        <CharString name="amacron">
          -2 callsubr
          378 104 hstemhm
          82 107 266 643 -103 callgsubr
          292 1479 -69 callgsubr
        </CharString>
        <CharString name="ampersand">
          530 -73 83 502 86 321 93 563 81 hstem
          153 99 233 93 696 92 vstem
          153 441 rmoveto
          -525 7 587 11 25 hhcurveto
          165 429 20 529 15 0 16 -1 16 hvcurveto
          155 5 rlineto
          41 41 -19 -22 26 hvcurveto
          -15 17 56 -77 28 hhcurveto
          10 7 10 27 hvcurveto
          29 -4 39 38 61 8 62 41 vvcurveto
          24 -8 26 -15 -9 -11 -9 -24 -15 vhcurveto
          -80 -49 -43 -41 -66 -66 -411 -16 -54 -90 -32 124 -55 hhcurveto
          -12 -9 -8 -22 -11 2 -14 5 -18 hvcurveto
          14 -49 4 -41 -35 -41 -7 -32 -24 vvcurveto
          -24 11 -19 18 11 14 8 19 13 vhcurveto
          50 35 56 67 45 hhcurveto
          45 202 4 0 hvcurveto
          -11 1 -11 -11 vvcurveto
          -200 -85 -273 -443 -468 -26 358 73 vhcurveto
          371 3 370 107 172 hhcurveto
          61 44 5 0 0 79 -60 19 -19 hvcurveto
          -9 9 11 -7 9 hhcurveto
          10 6 8 21 hvcurveto
          11 -1 12 12 81 18 53 43 vvcurveto
          14 -4 11 -12 -8 -12 -5 -13 -18 vhcurveto
          -49 -67 -24 -16 -27 hhcurveto
          -98 -214 116 187 181 140 79 119 11 11 -1 -1 11 hvcurveto
          127 -16 16 -28 19 -19 rrcurveto
          -41 41 26 -119 44 hhcurveto
          18 20 14 41 67 3 46 32 61 hvcurveto
          16 31 17 33 20 vvcurveto
          12 -6 7 -15 -10 -15 -3 -8 -19 vhcurveto
          -33 -84 -35 -9 -27 -26 -62 27 -91 hhcurveto
          -108 -266 -53 -304 -171 137 -97 32 -19 hvcurveto
          21 -13 25 -10 -6 vvcurveto
          -3 -5 -2 -15 -1 vhcurveto
          -50 -3 -477 -82 -451 vvcurveto
          endchar
        </CharString>
        <CharString name="approxequal">
          261 174 91 192 94 134 91 192 94 hstemhm
          41 1465 -1462 1465 hintmask 11001000
          175 230 -79 callgsubr
          hintmask 00110100
          3 511 -79 callgsubr
          endchar
        </CharString>
        <CharString name="aring">
          -2 callsubr
          139 76 callgsubr
          hstemhm
          82 107 310 56 callgsubr
          hintmask 11001000
          -107 callgsubr
          hintmask 00110110
          575 1313 -70 callgsubr
        </CharString>
        <CharString name="asciicircum">
          -19 73 -21 39 -21 31 -21 1563 -20 hstemhm
          74 1161 hintmask 00000000
          hintmask 01011000
          75 115 rmoveto
          -1 -3 30 callgsubr
          -26 27 -10 30 vhcurveto
          hintmask 10011000
          18 18 3 21 63 66 -21 34 hhcurveto
          29 28 15 25 12 -6 13 -16 15 hvcurveto
          -45 42 -31 18 -8 32 53 169 238 797 91 285 73 -285 188 -717 55 -226 rrcurveto
          1 -3 0 -2 -2 vvcurveto
          hintmask 00111000
          -43 -102 -42 -46 vvcurveto
          -23 26 -6 26 vhcurveto
          51 54 11 64 17 20 -1 19 hhcurveto
          42 17 13 20 72 -112 -7 -28 94 hvcurveto
          -93 310 -168 690 -84 321 rrcurveto
          27 -7 -29 13 -28 hhcurveto
          -25 -25 -10 -20 -7 hvcurveto
          -108 -324 -221 -729 -108 -324 rrcurveto
          hintmask 01011000
          -29 -87 -74 31 -14 -65 rrcurveto
          endchar
        </CharString>
        <CharString name="asciitilde">
          261 585 91 192 94 hstem
          41 1465 vstem
          175 641 -79 callgsubr
          endchar
        </CharString>
        <CharString name="asterisk">
          128 1331 -20 25 -20 hstemhm
          690 73 54 callsubr
          255 430 rmoveto
          56 -15 54 -31 50 -55 rrcurveto
          -9 8 9 -4 8 hhcurveto
          16 13 14 23 hvcurveto
          19 -8 32 31 vvcurveto
          35 7 34 21 17 vhcurveto
          1 114 100 92 71 vhcurveto
          -97 -5 -132 -97 -31 -114 -89 -31 vvcurveto
          -15 16 -6 22 vhcurveto
          22 19 9 20 hhcurveto
          59 55 -5 -17 56 hvcurveto
          -2 5 5 0 4 hhcurveto
          20 10 16 17 37 -96 65 -15 63 hvcurveto
          -2 9 -13 143 135 vvcurveto
          244 -183 21 -32 -4 -56 10 -71 rlinecurve
          -35 5 19 -13 18 hhcurveto
          22 25 23 25 9 hvcurveto
          -1 -1 12 26 77 53 31 28 rlinecurve
          25 23 10 18 13 vvcurveto
          25 -23 8 -33 3 vhcurveto
          -54 5 -60 5 -47 25 -82 44 -89 68 -130 82 117 91 185 129 14 12 rrcurveto
          50 43 161 -21 55 vvcurveto
          15 -12 15 -33 18 vhcurveto
          55 -103 -24 98 -65 hhcurveto
          -23 -13 -13 -30 hvcurveto
          -36 10 -40 -18 vvcurveto
          -95 -165 -100 -104 -90 vhcurveto
          1 115 14 160 1 2 3 26 27 36 60 86 9 14 4 12 1 11 rrcurveto
          27 -23 11 -25 vhcurveto
          hintmask 10100000
          -30 -28 -15 -39 -38 -41 10 -30 hhcurveto
          -49 -9 -22 -20 -28 35 -30 17 -17 hvcurveto
          28 -29 33 -33 4 -40 rrcurveto
          11 -107 -2 -130 -80 vvcurveto
          -62 41 -80 87 -73 46 -61 38 56 178 -77 1 rrcurveto
          -49 -35 -103 -98 -109 hvcurveto
          -21 -19 -11 -17 -14 vvcurveto
          -22 19 -9 23 vhcurveto
          34 44 14 40 hhcurveto
          19 19 -2 -8 18 hvcurveto
          1 -1 14 -6 136 -79 103 -74 rlinecurve
          -107 -76 -102 -70 -46 -33 -71 -50 -115 16 1 -55 rrcurveto
          hintmask 01100000
          -20 17 -22 33 -8 vhcurveto
          endchar
        </CharString>
        <CharString name="at">
          658 -153 86 374 103 -90 96 636 87 402 86 hstemhm
          131 93 302 107 528 84 488 94 35 callgsubr
          hintmask 1011111010000000
          131 599 rmoveto
          -480 430 -272 433 422 284 215 86 100 vhcurveto
          60 52 146 -44 54 vvcurveto
          53 -112 35 -64 98 vhcurveto
          18 -12 -13 8 -12 hhcurveto
          -15 -12 -13 -17 -1 hvcurveto
          -4 1 -32 -36 vvcurveto
          -43 -2 -47 -11 -10 vhcurveto
          -77 -87 -267 -210 -399 hhcurveto
          -294 -482 139 530 606 440 333 439 443 187 -228 -296 hvcurveto
          hintmask 1101111110000000
          -341 -263 -266 -139 -69 -17 81 63 24 2 20 3 14 vhcurveto
          11 49 48 269 47 149 rrcurveto
          17 55 139 17 59 vvcurveto
          25 -34 12 -24 1 vhcurveto
          -53 2 -92 15 -45 21 rrcurveto
          5 -11 -10 3 -8 hhcurveto
          -19 -9 -13 -16 -14 8 -12 35 -70 hvcurveto
          10 -20 6 -16 -21 vvcurveto
          -16 -4 -20 -8 -26 vhcurveto
          36 -30 -64 53 -113 hhcurveto
          -206 -315 -146 -389 hvcurveto
          hintmask 1011111110000000
          -209 165 -75 102 167 136 116 87 66 vhcurveto
          -1 -10 0 -10 -10 vvcurveto
          hintmask 1101111110000000
          -105 45 -81 117 163 341 282 435 410 -322 193 -378 vhcurveto
          hintmask 1011111010000000
          -436 -560 -267 -761 hvcurveto
          502 25 rmoveto
          154 93 274 310 97 39 -32 -64 51 vhcurveto
          -12 -60 -8 -54 -44 -164 rrcurveto
          -175 -86 -122 -87 -144 hhcurveto
          -126 -47 94 114 -1 hvcurveto
          endchar
        </CharString>
        <CharString name="atilde">
          -2 callsubr
          156 68 callgsubr
          82 107 137 931 hintmask 11001000
          -107 callgsubr
          hintmask 00110100
          276 1357 -95 callsubr
        </CharString>
        <CharString name="b">
          -199 170 89 568 88 hstemhm
          95 339 -323 324 -204 91 566 97 hintmask 00000000
          hintmask 11010100
          111 -5 90 callgsubr
          11 11 2 4 9 vhcurveto
          hintmask 11100100
          12 28 79 4 47 9 8 0 8 -5 callgsubr
          hintmask 11001100
          -70 86 -9 6 -6 144 rrcurveto
          -107 90 143 -17 50 hhcurveto
          112 264 50 297 340 -248 58 -126 -108 -111 -48 -93 -70 hvcurveto
          187 vlineto
          249 -6 229 71 vvcurveto
          hintmask 11010100
          30 18 25 72 59 13 callsubr
          -30 -48 -10 -76 hhcurveto
          hintmask 11100100
          -28 callgsubr
          hintmask 11001100
          48 -48 45 -41 7 -37 rrcurveto
          7 -35 5 -1265 -11 vvcurveto
          -4 -27 -42 -51 -39 -54 rrcurveto
          hintmask 11010100
          -14 -19 -20 -21 -1 -23 rrcurveto
          hintmask 11001100
          222 539 rmoveto
          148 106 145 164 92 193 -40 -270 -226 -191 -32 -85 -95 -184 52 223 vhcurveto
          endchar
        </CharString>
        <CharString name="backslash">
          4 65 callsubr
          1263 -218 rmoveto
          -25 40 -92 -22 -41 65 -60 96 -644 1417 -96 180 rrcurveto
          -13 25 -5 21 18 40 22 28 28 vvcurveto
          21 -13 19 -28 -19 -12 -8 -19 -27 vhcurveto
          -65 -58 -21 4 -54 -28 rrcurveto
          -18 -9 -11 -15 -14 vvcurveto
          -18 18 -16 48 -3 vhcurveto
          43 -3 49 -29 6 -12 69 -131 673 -1420 70 -149 rrcurveto
          7 -15 3 -14 -15 -43 -25 -38 -39 vvcurveto
          -20 11 -18 22 11 14 5 11 14 vhcurveto
          40 32 76 33 51 18 rrcurveto
          17 6 10 13 16 vvcurveto
          7 -1 6 -4 7 vhcurveto
          endchar
        </CharString>
        <CharString name="bar">
          -496 -331 2131 hstemhm
          261 279 -195 93 33 callgsubr
          259 -260 rmoveto
          31 callsubr
          25 40 12 27 hhcurveto
          hintmask 11000000
          39 callgsubr
          -96 25 -1 79 hvcurveto
          hintmask 10100000
          -4 203 -1 234 238 381 3 395 305 vvcurveto
          1 callsubr
          hhcurveto
          hintmask 11000000
          37 callsubr
          hintmask 10100000
          54 callgsubr
          -1542 -1 -4 vhcurveto
          -5 -27 -33 -44 -42 -44 rrcurveto
          endchar
        </CharString>
        <CharString name="braceleft">
          -36 1774 112 hstem
          185 923 vstem
          438 455 rmoveto
          47 -334 64 -232 232 -131 78 -44 90 7 47 -52 rrcurveto
          -31 28 29 -14 22 hhcurveto
          19 14 11 22 hvcurveto
          28 -29 66 64 vvcurveto
          27 3 28 7 23 vhcurveto
          1 3 0 4 4 vvcurveto
          22 -16 26 -20 -12 -14 -9 -24 -13 vhcurveto
          -87 -47 -25 -16 -24 hhcurveto
          -98 -116 106 106 -51 hvcurveto
          -51 105 -32 184 -28 162 -15 86 2 94 -54 64 rrcurveto
          -39 46 -65 36 0 vvcurveto
          0 134 51 38 149 vhcurveto
          38 149 19 122 133 vvcurveto
          210 60 65 44 38 vhcurveto
          34 39 21 18 27 90 -11 -121 64 hhcurveto
          22 19 22 72 7 hvcurveto
          10 105 -1 -28 10 41 rrcurveto
          3 14 4 17 14 vvcurveto
          19 -5 15 -17 -8 -12 -4 -9 -15 vhcurveto
          -74 -44 -40 5 -87 -26 -103 -31 -136 -112 -14 -251 -17 -308 15 -176 -181 -106 rrcurveto
          -70 -41 -60 16 -48 vvcurveto
          -48 51 8 50 -27 vhcurveto
          115 -62 8 -19 29 -206 rrcurveto
          endchar
        </CharString>
        <CharString name="braceright">
          -93 -315 112 hstem
          157 923 vstem
          827 1116 rmoveto
          -47 334 -64 232 -232 131 -78 44 -90 -7 -47 52 rrcurveto
          31 -28 -29 14 -22 hhcurveto
          -19 -14 -11 -22 hvcurveto
          -28 29 -66 -64 vvcurveto
          -27 -3 -28 -7 -23 vhcurveto
          -1 -3 0 -4 -4 vvcurveto
          -22 16 -26 20 12 14 9 24 13 vhcurveto
          87 47 25 16 24 hhcurveto
          98 116 -106 -106 51 hvcurveto
          51 -105 32 -184 28 -162 15 -86 -2 -94 54 -64 rrcurveto
          39 -46 65 -36 0 vvcurveto
          0 -134 -51 -38 -149 vhcurveto
          -38 -149 -19 -122 -133 vvcurveto
          -210 -60 -65 -44 -38 vhcurveto
          -34 -39 -21 -18 -27 -90 11 121 -64 hhcurveto
          -22 -19 -22 -72 -7 hvcurveto
          -10 -105 1 28 -10 -41 rrcurveto
          -3 -14 -4 -17 -14 vvcurveto
          -19 5 -15 17 8 12 4 9 15 vhcurveto
          74 44 40 -5 87 26 103 31 136 112 14 251 17 308 -15 176 181 106 rrcurveto
          70 41 60 -16 48 vvcurveto
          48 -51 -8 -50 27 vhcurveto
          -115 62 -8 19 -29 206 rrcurveto
          endchar
        </CharString>
        <CharString name="bracketleft">
          -355 -413 -21 121 96 2055 90 hstem
          200 142 vstem
          241 21 rmoveto
          -117 -1 -86 -2 -17 vhcurveto
          -3 -22 -8 -25 -21 vvcurveto
          -26 14 -20 57 104 123 1 -8 18 vhcurveto
          28 -13 74 -43 28 -32 rrcurveto
          -15 13 15 -11 13 hhcurveto
          13 9 11 30 hvcurveto
          42 -5 34 30 43 9 35 37 vvcurveto
          24 -5 20 -19 -10 -14 -6 -14 -19 vhcurveto
          -57 -77 -37 -12 -35 hhcurveto
          -35 -165 -1 0 hvcurveto
          10 266 8 133 207 vvcurveto
          243 -37 1202 -3 3 vhcurveto
          0 92 2 65 24 21 0 -1 10 vhcurveto
          38 -3 58 -43 34 -38 rrcurveto
          -25 22 29 -48 24 hhcurveto
          11 20 11 27 4 0 4 -1 5 hvcurveto
          -12 64 -3 55 52 49 3 46 46 vvcurveto
          35 -4 17 -23 -15 -15 -9 -12 -12 vhcurveto
          -60 -60 -53 -69 -38 -7 rrcurveto
          -7 -38 -193 -3 -32 hhcurveto
          -32 -22 -12 -54 hvcurveto
          -54 38 -974 -257 -171 3 -151 -234 vvcurveto
          endchar
        </CharString>
        <CharString name="bracketright">
          -381 -418 -21 2161 92 hstemhm
          583 106 -63 54 hintmask 00000000
          hintmask 11100000
          250 -224 rmoveto
          11 -44 5 -47 2 -73 rrcurveto
          -37 1 11 -14 13 hhcurveto
          13 15 13 17 12 hvcurveto
          25 35 48 30 26 16 rrcurveto
          16 27 91 17 102 hhcurveto
          57 14 20 26 21 -8 25 -3 22 hvcurveto
          -6 51 -17 698 257 257 -9 612 54 vvcurveto
          54 -22 12 -32 -32 -123 3 7 -38 vhcurveto
          -38 7 -73 69 -60 60 rrcurveto
          14 -14 -11 6 -7 hhcurveto
          -14 -3 -22 -29 hvcurveto
          -17 1 -20 -17 vvcurveto
          -60 -3 -90 -10 -108 vhcurveto
          -1 -6 0 -5 -5 vvcurveto
          -25 7 -10 11 24 42 48 25 22 vhcurveto
          34 38 61 38 38 3 rrcurveto
          38 3 101 1 0 0 5 -270 -307 -136 -3 -139 -132 vvcurveto
          hintmask 11010000
          -406 46 -532 0 vhcurveto
          7 -1 -134 3 -38 -5 rrcurveto
          -1 43 callgsubr
          -32 -38 12 41 -70 hvcurveto
          11 -19 -13 5 -10 hhcurveto
          -17 -6 -14 -19 hvcurveto
          hintmask 11100000
          -18 5 -21 4 -17 vhcurveto
          endchar
        </CharString>
        <CharString name="breve">
          -226 1467 84 callsubr
          1467 -52 callgsubr
        </CharString>
        <CharString name="breve.cap">
          -226 1617 84 callsubr
          1617 -52 callgsubr
        </CharString>
        <CharString name="brokenbar">
          -496 -344 2144 hstem
          345 96 vstem
          283 973 rmoveto
          -29 callgsubr
          35 callsubr
          56 -1131 rmoveto
          35 callsubr
          -29 callgsubr
          endchar
        </CharString>
        <CharString name="bullet">
          -211 731 387 hstem
          298 498 vstem
          493 780 rmoveto
          -35 19 17 -14 16 hhcurveto
          22 21 27 27 16 hvcurveto
          49 86 143 106 64 vvcurveto
          43 -61 11 -40 -85 -146 3 16 -80 vhcurveto
          2 -12 -11 2 -9 hhcurveto
          -38 -16 -18 -24 -22 1 -16 88 -113 hvcurveto
          42 -55 51 -64 13 -26 rrcurveto
          endchar
        </CharString>
        <CharString name="c">
          28 88 callsubr
          hstem
          99 100 vstem
          628 -83 callsubr
          endchar
        </CharString>
        <CharString name="cacute">
          231 88 callsubr
          165 34 callgsubr
          302 100 376 461 -63 callsubr
          62 1360 -102 callsubr
        </CharString>
        <CharString name="caron">
          -226 1398 479 hstem
          93 903 vstem
          482 1438 -88 callgsubr
        </CharString>
        <CharString name="caron.cap">
          -226 1805 -21 hstem
          102 864 vstem
          493 1620 -89 callsubr
        </CharString>
        <CharString name="ccedilla">
          231 -439 91 392 88 -59 -21 1066 85 hstemhm
          302 100 311 90 callsubr
          hintmask 00000000
          hintmask 11011110
          395 -320 rmoveto
          -40 callsubr
          14 6 17 6 16 vhcurveto
          190 140 -91 callsubr
          hvcurveto
          hintmask 10111110
          -418 251 -138 186 -32 vhcurveto
          -27 -71 1 17 -23 -23 callgsubr
          hintmask 11011110
          60 callgsubr
          endchar
        </CharString>
        <CharString name="ccircumflex">
          231 88 callsubr
          123 92 callsubr
          302 100 106 871 -63 callsubr
          -176 1357 -103 callsubr
        </CharString>
        <CharString name="cedilla">
          -490 -439 91 440 -21 hstem
          376 90 callsubr
          vstem
          169 -187 rmoveto
          60 callgsubr
          -40 callsubr
          28 25 46 1 vhcurveto
          2 0 2 2 vvcurveto
          25 -22 19 -24 -38 -14 -40 -81 -31 vhcurveto
          -3 -8 -2 -8 -9 -23 callgsubr
          endchar
        </CharString>
        <CharString name="cent">
          171 166 90 889 73 104 -20 hstem
          107 100 vstem
          53 -66 rmoveto
          -34 -16 -17 -18 -19 vvcurveto
          -20 21 -23 49 vhcurveto
          71 49 -58 51 hhcurveto
          32 10 17 29 hvcurveto
          30 -18 60 33 vvcurveto
          10 1 9 4 9 vhcurveto
          1 48 109 71 160 vhcurveto
          -52 97 113 -29 110 hhcurveto
          53 53 7 14 50 hvcurveto
          8 28 20 3 15 hhcurveto
          55 -6 -41 -30 59 hvcurveto
          -11 21 16 -4 12 hhcurveto
          21 9 14 23 hvcurveto
          46 -38 99 84 15 2 14 15 vvcurveto
          32 -17 15 -18 -33 -11 -40 -73 -47 vhcurveto
          -38 -25 -80 -62 -144 hhcurveto
          -78 -104 26 53 -94 hvcurveto
          106 238 138 314 109 258 32 -2 32 -2 32 -5 64 -10 28 -45 55 -65 rrcurveto
          -22 19 15 -9 12 hhcurveto
          16 9 16 19 hvcurveto
          18 -9 17 38 vvcurveto
          61 11 89 10 41 vhcurveto
          1 5 0 4 4 vvcurveto
          17 -10 8 -15 vhcurveto
          -56 -43 -104 -84 hhcurveto
          -27 -29 6 2 -29 hvcurveto
          43 103 37 90 25 66 rrcurveto
          19 51 154 34 42 vvcurveto
          19 -27 18 -34 7 vhcurveto
          -98 18 -69 64 -45 1 rrcurveto
          -27 -23 -18 -27 hvcurveto
          -46 59 -45 -47 vvcurveto
          -29 -51 -134 -67 -164 vhcurveto
          -289 -7 -317 -126 -426 vvcurveto
          -154 82 -129 121 -89 vhcurveto
          -66 -142 -54 -110 -26 -41 -34 -32 -45 -24 -32 -15 rrcurveto
          298 454 rmoveto
          -83 69 -61 96 124 vvcurveto
          277 205 163 265 25 vhcurveto
          -96 -234 -125 -289 -105 -231 rrcurveto
          endchar
        </CharString>
        <CharString name="circumflex">
          -187 1335 454 hstem
          91 871 vstem
          238 1410 -103 callsubr
        </CharString>
        <CharString name="circumflex.cap">
          -187 1815 -21 hstem
          105 891 vstem
          252 1540 -101 callsubr
        </CharString>
        <CharString name="colon">
          -542 -43 274 713 274 hstemhm
          216 350 hintmask 01100000
          226 1152 -93 callsubr
          hintmask 10100000
          -987 vmoveto
          -95 callgsubr
          endchar
        </CharString>
        <CharString name="comma">
          80 callgsubr
          372 vstem
          205 -143 -33 callsubr
        </CharString>
        <CharString name="commaaccent">
          -560 -417 -21 hstem
          198 342 vstem
          210 -106 -84 callsubr
        </CharString>
        <CharString name="copyright">
          398 -43 95 214 86 848 85 198 90 hstem
          110 101 184 99 995 -6 callsubr
          100 -24 rmoveto
          26 callgsubr
          -702 -369 -57 -246 vhcurveto
          -315 7 -348 169 603 vvcurveto
          590 -565 rmoveto
          116 4 96 37 33 12 rrcurveto
          5 13 12 2 12 38 54 -37 44 hhcurveto
          24 11 14 19 15 -7 18 -11 19 hvcurveto
          -34 55 -30 36 -18 80 rrcurveto
          31 -7 -14 14 -13 hhcurveto
          -14 -15 -16 -32 -9 hvcurveto
          -17 -59 -4 -28 -34 -31 rrcurveto
          -56 -61 -94 -16 -75 hhcurveto
          -153 -150 135 295 258 158 160 181 42 39 4 -16 43 hvcurveto
          60 -24 9 -59 30 -78 rrcurveto
          -34 13 14 -12 13 hhcurveto
          17 14 23 26 1 hvcurveto
          1 58 101 175 12 vvcurveto
          16 -17 9 -20 vhcurveto
          -41 -50 -45 -61 -42 -30 30 -136 hhcurveto
          -148 -290 -126 -388 -346 250 -159 146 hvcurveto
          4 3 0 3 hhcurveto
          endchar
        </CharString>
        <CharString name="currency">
          124 111 97 814 93 hstem
          230 103 784 93 vstem
          32 57 rmoveto
          -16 16 -20 31 -18 vhcurveto
          76 -44 3 -21 44 -41 rrcurveto
          -11 11 14 -6 11 hhcurveto
          17 12 12 28 hvcurveto
          19 -10 30 29 vvcurveto
          30 7 28 7 8 vhcurveto
          37 41 43 52 47 55 rrcurveto
          -86 112 135 -15 53 hhcurveto
          43 179 6 105 134 hvcurveto
          118 -130 rlineto
          14 -25 5 -52 -62 vvcurveto
          -35 23 -14 16 30 26 56 28 30 vhcurveto
          44 41 62 34 27 vvcurveto
          60 -132 -39 -57 51 vhcurveto
          -39 34 -40 40 -39 44 rrcurveto
          56 68 39 95 133 vvcurveto
          172 -45 119 -65 81 vhcurveto
          45 49 45 47 43 39 rrcurveto
          61 55 128 -48 65 vvcurveto
          27 -62 33 -44 42 vhcurveto
          28 -30 -26 56 -30 hhcurveto
          -18 -21 -18 -44 -56 -6 -48 -13 -22 hvcurveto
          -1 -2 -56 -62 -73 -81 rrcurveto
          86 -104 -128 21 -86 hhcurveto
          -93 -123 -31 -94 -103 hvcurveto
          -39 45 -36 43 -32 35 rrcurveto
          -7 7 -7 29 30 29 10 30 18 vvcurveto
          29 -12 12 -17 -11 -14 -7 -10 -11 vhcurveto
          -45 -41 -2 -21 -76 -44 rrcurveto
          -32 -18 -15 -21 -15 vvcurveto
          -38 55 1 19 31 36 -2 -43 40 vhcurveto
          104 -113 rlineto
          -67 -86 -47 -111 -126 vvcurveto
          -152 44 -105 61 -73 vhcurveto
          -43 -48 -43 -46 -36 -39 -72 -79 -61 58 -39 -41 rrcurveto
          -6 -6 -3 -7 -7 vvcurveto
          301 547 rmoveto
          216 169 202 222 132 261 -44 -397 -347 -358 -26 -58 -102 -266 67 329 vhcurveto
          endchar
        </CharString>
        <CharString name="d">
          -191 105 89 559 88 hstem
          110 99 510 90 vstem
          66 callgsubr
          109 113 57 126 55 vhcurveto
          13 -80 13 -59 12 -32 rrcurveto
          1 -4 1 -5 -5 6 callsubr
          69 callsubr
          -24 378 286 vvcurveto
          195 10 149 14 23 vhcurveto
          15 callgsubr
          -13 8 -16 14 -16 hvcurveto
          22 -25 72 -86 -40 vvcurveto
          -9 -118 -4 -120 -115 vvcurveto
          -108 3 -104 6 -97 vhcurveto
          83 -66 -95 39 -79 -1 callgsubr
        </CharString>
        <CharString name="dagger">
          -94 1088 85 -75 88 hstemhm
          562 91 54 callsubr
          453 5 rmoveto
          -27 23 -12 27 vhcurveto
          28 41 12 25 19 62 -7 34 hhcurveto
          33 9 11 23 58 -84 26 -6 70 hvcurveto
          -10 117 0 590 -1 228 rrcurveto
          31 callgsubr
          49 6 16 48 vvcurveto
          42 -12 17 -21 -50 -43 -100 -12 -85 vhcurveto
          -15 callgsubr
          hintmask 10100000
          -12 callsubr
          38 60 88 18 72 vhcurveto
          13 3 32 7 38 3 rrcurveto
          1 -88 1 -133 -138 -276 -2 -298 -1 -56 -109 -37 -56 vvcurveto
          endchar
        </CharString>
        <CharString name="daggerdbl">
          -94 608 88 -74 85 381 85 -75 88 hstemhm
          561 91 -87 91 -87 92 hintmask 00000000
          hintmask 10010010
          436 hmoveto
          -27 20 -12 26 vhcurveto
          33 43 12 45 57 61 -15 33 hhcurveto
          28 12 12 20 14 -8 17 -17 16 hvcurveto
          -49 46 -43 12 -10 40 rrcurveto
          hintmask 01010010
          -3 11 -1 379 -2 93 rrcurveto
          4 39 33 0 16 hhcurveto
          19 42 -36 -34 30 hvcurveto
          -31 27 24 -12 16 hhcurveto
          18 10 15 21 hvcurveto
          28 -7 34 41 vvcurveto
          39 4 45 13 53 vhcurveto
          1 4 91 callsubr
          20 -17 10 -16 vhcurveto
          hintmask 01010100
          -51 -61 -91 -15 -58 hvcurveto
          -13 -3 -32 -7 -38 -3 -7 387 rcurveline
          31 callgsubr
          44 6 17 38 vvcurveto
          53 -10 20 -23 vhcurveto
          hintmask 10011000
          -50 -43 -100 -12 -85 hvcurveto
          -15 callgsubr
          hintmask 10101000
          -12 callsubr
          vhcurveto
          hintmask 10100100
          38 60 88 18 72 hvcurveto
          13 3 32 7 38 3 7 -387 rcurveline
          -3 -40 -33 -1 -2 -89 -35 115 -55 hhcurveto
          -25 -14 -20 -24 hvcurveto
          -48 9 -52 -48 -28 -5 -27 -21 vvcurveto
          -37 15 -14 20 vhcurveto
          hintmask 10010010
          50 43 100 12 85 hvcurveto
          23 3 31 1 23 3 -1 -485 rcurveline
          -24 -18 9 -83 -67 vhcurveto
          -21 -17 -11 -15 -13 vvcurveto
          endchar
        </CharString>
        <CharString name="dcroat">
          -191 105 89 559 88 397 90 -84 93 91 -20 39 -20 hstemhm
          110 99 510 90 -77 81 -75 225 35 callgsubr
          hintmask 1101011100000000
          66 callgsubr
          vhcurveto
          hintmask 1101011001000000
          109 113 58 125 55 hvcurveto
          9 -51 15 -39 -16 6 callsubr
          hintmask 1110101100000000
          69 callsubr
          -8 409 286 vvcurveto
          38 0 36 1 34 vhcurveto
          -1 73 63 -3 2 hhcurveto
          -23 callsubr
          43 7 24 41 vvcurveto
          39 -12 7 -20 -53 -26 -89 -8 -80 vhcurveto
          hintmask 1110011010000000
          -2 -19 -19 -1 -21 hhcurveto
          -21 -22 1 1 -23 hvcurveto
          4 93 7 63 9 15 rrcurveto
          hintmask 1101011001000000
          15 callgsubr
          hvcurveto
          hintmask 1101011010000000
          -13 8 -16 14 -16 vhcurveto
          22 -25 72 -86 -40 vvcurveto
          -4 -52 -3 -52 -2 -52 rrcurveto
          1 -31 -34 1 -38 -60 callgsubr
          hintmask 1101011100000000
          -1 57 0 85 106 hhcurveto
          84 hlineto
          -1 -36 0 -35 -35 vvcurveto
          -147 4 -145 7 -131 vhcurveto
          86 -65 -97 40 -80 -1 callgsubr
        </CharString>
        <CharString name="degree">
          -598 1161 86 396 87 hstem
          68 98 363 94 vstem
          333 1161 rmoveto
          41 249 20 243 261 -182 45 -93 -156 -124 -142 -149 -249 210 -29 55 hvcurveto
          4 86 rmoveto
          -69 -102 45 152 107 76 92 107 61 119 -31 -176 -161 -120 -28 -72 hvcurveto
          endchar
        </CharString>
        <CharString name="dieresis">
          -204 1674 -20 hstem
          174 771 vstem
          750 1479 -106 callsubr
        </CharString>
        <CharString name="dieresis.cap">
          -419 1680 237 hstem
          66 771 vstem
          642 1708 -106 callsubr
        </CharString>
        <CharString name="divide">
          448 -18 274 312 81 315 274 hstemhm
          161 1437 -901 350 -338 350 hintmask 01010000
          180 477 rmoveto
          -8 7 9 -5 11 hhcurveto
          24 43 38 20 21 hvcurveto
          25 23 20 13 18 4 rrcurveto
          3 14 996 3 26 hhcurveto
          37 -1 52 -53 27 -27 12 -12 rcurveline
          -14 14 15 -5 11 hhcurveto
          16 19 13 32 hvcurveto
          26 -11 40 35 56 12 44 21 vvcurveto
          28 -17 30 -26 -40 -40 -98 -10 -76 vhcurveto
          -15 -110 -285 -9 -241 hhcurveto
          -170 -147 5 10 -51 hvcurveto
          -41 8 -74 69 -32 22 rrcurveto
          14 -21 -18 7 -15 hhcurveto
          -20 -13 -15 -22 hvcurveto
          -26 22 -18 -67 -72 -15 -22 -26 vvcurveto
          -15 4 -15 8 -9 vhcurveto
          hintmask 10000100
          539 -287 -93 callsubr
          -12 840 rmoveto
          -6 -9 -4 -11 -10 vvcurveto
          -19 13 -17 27 5 6 1 1 6 vhcurveto
          9 44 70 7 58 23 21 -2 17 hhcurveto
          29 31 10 27 50 -101 71 -36 62 hvcurveto
          19 -11 -15 19 -16 hhcurveto
          -12 -13 -9 -25 -12 hvcurveto
          hintmask 00101000
          -30 -61 -54 -56 -40 -57 rrcurveto
          endchar
        </CharString>
        <CharString name="dollar">
          -116 95 -21 83 94 1314 86 -6 -20 hstemhm
          311 93 189 136 -108 75 -66 51 -51 85 243 105 35 callgsubr
          hintmask 1101100101000000
          170 123 rmoveto
          -2 0 -1 -2 vvcurveto
          -16 7 -28 23 vhcurveto
          25 74 103 79 3 4 -1 3 hhcurveto
          hintmask 1101110001000000
          -14 72 69 -5 64 hhcurveto
          -4 -84 -5 -59 -4 -20 -9 -41 -71 -72 -22 -32 rrcurveto
          -14 -21 -7 -18 -15 vvcurveto
          -19 13 -14 25 vhcurveto
          hintmask 1101100101000000
          24 19 20 61 76 25 -17 27 hhcurveto
          29 21 15 23 26 -38 41 -19 22 hvcurveto
          -26 30 -13 21 22 vvcurveto
          24 1 74 3 101 vhcurveto
          226 31 152 131 219 vvcurveto
          274 -195 88 -160 89 vhcurveto
          hintmask 1110100011000000
          15 569 rlineto
          46 46 -6 -10 43 hvcurveto
          28 -9 30 -77 15 -27 rrcurveto
          -27 14 33 -38 27 hhcurveto
          46 -17 95 75 28 hvcurveto
          6 17 5 37 16 46 rrcurveto
          6 17 7 19 13 vvcurveto
          10 -4 7 -12 -9 -13 -4 -9 -19 vhcurveto
          -21 -44 -119 -38 -11 hhcurveto
          hintmask 1110110001000000
          -50 10 -48 5 -48 1 rrcurveto
          3 105 1 71 5 vvcurveto
          41 80 77 14 9 vhcurveto
          13 15 7 13 12 vvcurveto
          17 -14 19 -31 vhcurveto
          -25 -36 -10 -33 hhcurveto
          hintmask 1101100101000000
          -59 -46 14 -23 hhcurveto
          -32 -26 -20 -23 -40 98 -41 8 -76 hvcurveto
          3 -31 3 -70 -93 vvcurveto
          -182 -25 -137 -105 -170 vvcurveto
          hintmask 1101101001000000
          -213 164 -106 146 -83 vhcurveto
          -6 -254 -8 -255 -9 -183 rrcurveto
          -60 -68 7 16 -77 hvcurveto
          -54 11 -36 89 -27 41 rrcurveto
          26 -17 -31 34 -20 hhcurveto
          -11 -8 -11 -28 hvcurveto
          hintmask 1101100101000000
          -108 -5 -105 -14 -100 vhcurveto
          hintmask 1101100011000000
          453 924 rmoveto
          -116 78 -103 92 125 vvcurveto
          122 103 69 123 23 vhcurveto
          -142 -3 -180 -4 -187 vhcurveto
          hintmask 1101101001000000
          64 -790 rmoveto
          18 637 rlineto
          133 -79 120 -83 -148 vvcurveto
          -172 -79 -126 -192 -29 vhcurveto
          endchar
        </CharString>
        <CharString name="dotaccent">
          -622 1342 239 hstem
          243 318 vstem
          365 1373 -76 callsubr
        </CharString>
        <CharString name="dotaccent.cap">
          -622 1645 239 hstem
          210 318 vstem
          332 1676 -76 callsubr
        </CharString>
        <CharString name="dotlessi">
          -528 -52 1259 hstem
          385 76 vstem
          251 -14 -99 callgsubr
          endchar
        </CharString>
        <CharString name="dotlessj">
          -470 47 callgsubr
          hstemhm
          511 102 71 callsubr
          102 -91 -71 callgsubr
          hintmask 11010000
          67 callsubr
          hintmask 10110000
          -68 callgsubr
          endchar
        </CharString>
        <CharString name="e">
          17 callgsubr
          hstem
          122 104 893 105 vstem
          -97 callgsubr
          endchar
        </CharString>
        <CharString name="eacute">
          17 callgsubr
          128 34 callgsubr
          122 104 358 461 74 -94 callsubr
          577 799 -102 callsubr
        </CharString>
        <CharString name="ecircumflex">
          17 callgsubr
          37 92 callsubr
          122 104 128 871 -106 -94 callsubr
          379 747 -103 callsubr
        </CharString>
        <CharString name="edieresis">
          17 callgsubr
          376 -20 hstemhm
          122 104 148 771 -26 -94 callsubr
          828 816 -106 callsubr
        </CharString>
        <CharString name="egrave">
          17 callgsubr
          164 34 callgsubr
          122 104 185 461 247 -94 callsubr
          635 835 -101 callgsubr
        </CharString>
        <CharString name="eight">
          -52 -48 91 1547 86 hstemhm
          150 103 -17 97 584 94 5 99 hintmask 00000000
          hintmask 11100100
          150 392 rmoveto
          -379 344 -61 133 203 285 131 325 355 -302 82 -90 45 vhcurveto
          -7 3 -4 4 3 vvcurveto
          6 8 5 16 8 vhcurveto
          hintmask 11011000
          39 18 236 151 223 vvcurveto
          243 -168 122 -215 -225 -167 -155 -211 -211 183 -147 87 -39 vhcurveto
          9 -4 5 -5 -5 vvcurveto
          -5 -4 -4 -6 -3 vhcurveto
          hintmask 11100100
          -99 -53 -261 -132 -310 vvcurveto
          hintmask 11011000
          471 553 rmoveto
          -101 40 -187 136 176 vvcurveto
          203 133 90 161 192 98 -106 -191 -163 -219 -149 -77 -36 vhcurveto
          hintmask 11100100
          -368 -561 rmoveto
          284 226 96 130 76 vhcurveto
          205 -90 202 -47 -300 vvcurveto
          -187 -135 -173 -251 -261 -116 174 167 vhcurveto
          endchar
        </CharString>
        <CharString name="ellipsis">
          984 -39 274 -268 274 -264 274 hstemhm
          216 350 415 350 379 350 hintmask 10000100
          1720 169 -93 callsubr
          hintmask 00101000
          -729 16 -93 callsubr
          hintmask 01010000
          -765 -10 -93 callsubr
          endchar
        </CharString>
        <CharString name="emdash">
          779 595 86 hstem
          220 1644 9 callgsubr
          1055 7 callgsubr
          -68 0 -80 hhcurveto
          -332 -543 -5 callsubr
        </CharString>
        <CharString name="endash">
          335 595 93 hstem
          220 1200 9 callgsubr
          611 20 callgsubr
          -53 -26 -89 -8 -80 vhcurveto
          -2 -16 -23 0 -25 hhcurveto
          -143 -188 -2 5 -168 hvcurveto
          3 -106 -96 2 -60 -60 callgsubr
          endchar
        </CharString>
        <CharString name="equal">
          -61 400 66 457 66 hstem
          139 994 vstem
          172 818 rmoveto
          -40 callgsubr
          -523 vmoveto
          -40 callgsubr
          endchar
        </CharString>
        <CharString name="eth">
          -78 25 87 863 90 329 -20 hstem
          108 98 822 100 vstem
          108 533 rmoveto
          -380 319 -128 203 273 225 253 253 319 -183 134 -95 120 vhcurveto
          -57 71 -150 158 -114 120 14 10 28 25 14 7 rrcurveto
          72 36 119 -38 58 vvcurveto
          24 -25 15 -16 17 vhcurveto
          -41 41 -11 21 -16 43 rrcurveto
          23 -9 -20 32 -20 hhcurveto
          -41 9 -130 -65 -50 hvcurveto
          -17 -22 -12 -8 -28 -26 -52 55 -40 45 -3 10 rrcurveto
          -6 23 -3 24 23 58 14 33 9 vvcurveto
          19 -10 25 -22 -13 -16 -9 -22 -20 vhcurveto
          -118 -131 -104 -33 -35 vvcurveto
          -38 200 2 23 -17 vhcurveto
          25 -19 35 -33 41 -40 rrcurveto
          -40 -32 -86 -31 -70 -6 -5 0 -6 hhcurveto
          -36 -13 -19 -29 -11 2 -8 26 -15 hvcurveto
          27 -16 37 -42 17 -34 rrcurveto
          -35 17 12 -24 24 hhcurveto
          17 21 11 31 6 hvcurveto
          14 75 7 48 17 25 13 20 35 18 18 18 110 -117 138 -149 77 -93 rrcurveto
          9 -29 -49 8 -57 hhcurveto
          -252 -296 -162 -370 hvcurveto
          98 7 rmoveto
          155 104 280 336 117 53 -17 -19 45 vhcurveto
          85 -96 82 -94 -218 vvcurveto
          -184 -132 -235 -262 -349 -79 263 165 vhcurveto
          endchar
        </CharString>
        <CharString name="exclam">
          -500 -233 2020 -2014 227 hstemhm
          334 170 33 callgsubr
          316 369 rmoveto
          90 -7 -37 6 61 -7 rrcurveto
          -1 10 9 -1 7 hhcurveto
          34 14 12 21 13 -8 13 -11 17 hvcurveto
          -28 43 2 29 1 63 rrcurveto
          24 2 29 2 33 vhcurveto
          19 269 18 295 19 265 1 23 35 71 88 71 rrcurveto
          25 21 8 17 19 vvcurveto
          33 -22 11 -45 vhcurveto
          -9 -10 0 -9 hhcurveto
          -77 -39 6 22 -58 hvcurveto
          -15 5 -13 2 -10 1 rrcurveto
          -25 -11 -16 -22 -81 93 -49 9 -73 hvcurveto
          -5 0 -15 -2 -25 vhcurveto
          -12 -175 -59 -758 -1 -4 -6 -26 -4 -13 -67 -79 rrcurveto
          -12 -15 -6 -14 -10 vvcurveto
          -25 23 -11 26 -2 vhcurveto
          hintmask 01100000
          -116 -552 rmoveto
          -5 -8 -2 -8 -7 vvcurveto
          -15 11 -11 26 vhcurveto
          20 31 5 33 49 54 -6 33 hhcurveto
          24 30 7 25 40 -81 70 -28 55 hvcurveto
          18 -9 -11 18 -15 hhcurveto
          -18 -19 -36 -77 -68 hvcurveto
          -29 -33 -23 -30 -3 -7 rrcurveto
          endchar
        </CharString>
        <CharString name="exclamdown">
          -500 -393 2020 -233 227 hstemhm
          357 170 33 callgsubr
          545 1025 rmoveto
          -90 7 37 -6 -61 7 rrcurveto
          1 -10 -9 1 -7 hhcurveto
          -34 -14 -12 -21 -13 8 -13 11 -17 hvcurveto
          28 -43 -2 -29 -1 -63 rrcurveto
          -24 -2 -29 -2 -33 vhcurveto
          -19 -269 -18 -295 -19 -265 -1 -23 -35 -71 -88 -71 rrcurveto
          -25 -21 -8 -17 -19 vvcurveto
          -33 22 -11 45 vhcurveto
          9 10 0 9 hhcurveto
          77 39 -6 -22 58 hvcurveto
          15 -5 13 -2 10 -1 rrcurveto
          25 11 16 22 81 -93 49 -9 73 hvcurveto
          5 0 15 2 25 vhcurveto
          12 175 59 758 1 4 6 26 4 13 67 79 rrcurveto
          12 15 6 14 10 vvcurveto
          25 -23 11 -26 2 vhcurveto
          hintmask 01100000
          116 552 rmoveto
          5 8 2 8 7 vvcurveto
          15 -11 11 -26 vhcurveto
          -20 -31 -5 -33 -49 -54 6 -33 hhcurveto
          -24 -30 -7 -25 -40 81 -70 28 -55 hvcurveto
          -18 9 11 -18 15 hhcurveto
          18 19 36 77 68 hvcurveto
          29 33 23 30 3 7 rrcurveto
          endchar
        </CharString>
        <CharString name="f">
          -85 977 80 518 46 callsubr
          hintmask 00000000
          hintmask 10101000
          -48 callgsubr
          hintmask 10110000
          38 callgsubr
          69 11 callgsubr
          hintmask 11001000
          22 -10 42 51 46 11 57 41 30 callsubr
          hintmask 10110000
          -20 callsubr
          hintmask 10101000
          12 callgsubr
          endchar
        </CharString>
        <CharString name="f_f">
          832 863 340 -226 80 518 64 -64 75 -35 75 hstemhm
          441 85 -79 76 818 85 hintmask 00000000
          hintmask 01010011
          348 -23 rmoveto
          -27 callgsubr
          41 -38 callsubr
          hintmask 01010101
          79 2 446 1 317 vhcurveto
          237 291 1 287 hhcurveto
          1 -287 2 -470 3 -36 rrcurveto
          -2 0 -1 -2 vvcurveto
          -44 -40 -31 -59 -77 vhcurveto
          -27 callgsubr
          41 -38 callsubr
          76 2 406 1 311 vhcurveto
          412 hlineto
          23 -1 34 -18 42 -41 rrcurveto
          -3 callsubr
          hintmask 10010101
          -22 callgsubr
          hintmask 01001101
          -27 -25 -33 -31 -42 -3 38 callgsubr
          109 11 callgsubr
          23 -10 41 46 43 11 53 43 30 callsubr
          -394 -13 -359 -161 hvcurveto
          -114 vlineto
          -182 -378 1 -255 hhcurveto
          69 vlineto
          hintmask 01010101
          7 callsubr
          hintmask 01100101
          202 28 callsubr
          hhcurveto
          hintmask 01010101
          68 callsubr
          -344 -13 -359 -161 hvcurveto
          -73 -158 vlineto
          -17 callgsubr
          hvcurveto
          hintmask 10010101
          -77 -4 -76 -9 -67 vhcurveto
          -17 callsubr
          hintmask 01010101
          48 52 43 46 70 hhcurveto
          150 hlineto
          hintmask 01010011
          3 callgsubr
          endchar
        </CharString>
        <CharString name="f_i">
          598 -46 1259 -236 80 412 239 -133 46 callsubr
          869 318 -249 76 35 callgsubr
          hintmask 0100101000000000
          -48 callgsubr
          hintmask 0100110000000000
          38 callgsubr
          69 vlineto
          7 callsubr
          hintmask 0101001000000000
          212 28 callsubr
          68 callsubr
          hintmask 0100110000000000
          -349 -28 -329 -201 -45 callsubr
          hintmask 0100101000000000
          12 callgsubr
          hintmask 1000000010000000
          999 15 -99 callgsubr
          hintmask 0010000100000000
          187 1508 -76 callsubr
        </CharString>
        <CharString name="f_l">
          778 55 callgsubr
          936 80 518 46 callsubr
          884 83 35 callgsubr
          hintmask 0001010100000000
          -47 callsubr
          133 109 0 110 -44 callgsubr
          hintmask 0001011000000000
          -111 -10 -116 -4 -128 -2 rrcurveto
          69 80 callsubr
          65 47 -33 callgsubr
          hvcurveto
          hintmask 0001100100000000
          22 -10 42 51 46 11 57 41 vvcurveto
          23 -7 9 -10 -9 -13 -8 -11 -12 vhcurveto
          -48 -53 -28 -33 -56 -36 -35 11 -87 hhcurveto
          hintmask 0001011000000000
          -20 callsubr
          hintmask 0001010100000000
          12 callgsubr
          35 callgsubr
          1348 3 rmoveto
          19 callgsubr
          hintmask 1000000010000000
          18 callsubr
          hintmask 0010000010000000
          -38 callgsubr
          hintmask 0100000010000000
          -64 callsubr
          endchar
        </CharString>
        <CharString name="five">
          29 -6 88 685 115 2 93 512 88 hstemhm
          287 90 710 97 hintmask 00000000
          hintmask 10111100
          82 212 rmoveto
          -4 23 20 -1 16 15 13 1 12 hhcurveto
          19 15 -2 -11 17 hvcurveto
          -24 38 137 -177 257 hhcurveto
          273 247 179 316 351 -234 137 -227 -167 -90 -52 -15 -24 hvcurveto
          hintmask 11011100
          -16 -25 -16 -12 -10 hhcurveto
          -11 -3 15 39 188 6 188 4 178 hvcurveto
          0 462 -1 42 50 57 -27 -29 21 vhcurveto
          -20 14 23 -15 17 hhcurveto
          13 9 9 22 hvcurveto
          55 -16 51 44 23 5 21 20 vvcurveto
          24 -5 20 -14 -8 -12 -6 -16 -15 vhcurveto
          -57 -54 -43 -34 -39 -35 -364 3 -64 -25 -25 1 -23 hhcurveto
          -59 -18 -6 -45 hvcurveto
          -68 6 41 -261 vvcurveto
          -122 -1 -143 -4 -69 vhcurveto
          -24 -8 -14 -30 vvcurveto
          -40 30 -30 41 vhcurveto
          hintmask 10111100
          64 53 117 251 hhcurveto
          251 123 -156 -246 -246 -192 -154 -215 -229 -133 168 22 -18 hvcurveto
          -6 30 113 37 26 -19 22 -19 -10 -9 -5 -14 -7 hvcurveto
          -29 -57 -85 -78 -71 -36 rrcurveto
          -17 -9 -11 -15 -14 vvcurveto
          -14 10 -12 25 -4 vhcurveto
          endchar
        </CharString>
        <CharString name="florin">
          32 -180 95 1061 81 518 84 -84 95 hstemhm
          538 105 hintmask 00000000
          hintmask 11011000
          -8 56 rmoveto
          -46 -2 -139 -12 -77 vhcurveto
          -2 -14 -1 -12 -9 vvcurveto
          -20 5 -8 9 8 13 8 11 13 vhcurveto
          43 51 33 37 49 28 32 -10 55 hhcurveto
          284 35 303 217 14 hvcurveto
          10 146 15 257 14 234 rrcurveto
          60 58 1 49 hhcurveto
          107 16 20 -81 83 hvcurveto
          3 callsubr
          18 -5 24 23 vvcurveto
          86 8 74 19 58 0 callgsubr
          -59 -75 -16 -17 vhcurveto
          -27 -25 -33 -30 -42 -4 -73 -6 -101 -5 -98 -3 rrcurveto
          389 28 125 127 180 hhcurveto
          95 57 3 -11 41 hvcurveto
          45 -12 44 -67 27 -28 rrcurveto
          -31 30 22 -11 15 hhcurveto
          17 8 15 20 hvcurveto
          19 -7 48 53 vvcurveto
          42 3 44 8 37 vhcurveto
          3 13 1 10 9 vvcurveto
          25 -11 10 -14 vhcurveto
          hintmask 11101000
          -11 -13 -6 -10 -12 hvcurveto
          -49 -57 -12 -39 -64 -42 -55 11 -87 hhcurveto
          hintmask 11011000
          -432 -21 -428 -184 -15 hvcurveto
          -6 -115 -8 5 -82 -49 callsubr
          47 52 43 47 70 hhcurveto
          49 58 0 1 84 hvcurveto
          -13 -196 -16 -292 -9 -145 rrcurveto
          -322 -19 -75 -107 -114 hhcurveto
          -137 -33 69 75 -39 hvcurveto
          36 -19 -19 14 -16 hhcurveto
          -23 -14 -27 -26 hvcurveto
          endchar
        </CharString>
        <CharString name="four">
          55 672 76 -55 68 hstemhm
          84 1173 54 callsubr
          585 hmoveto
          -17 -12 -20 -25 -20 vvcurveto
          -16 12 -12 35 vhcurveto
          55 50 9 41 39 25 -15 34 hhcurveto
          28 24 9 21 9 -6 14 -14 17 hvcurveto
          -59 68 -21 -4 90 vvcurveto
          hintmask 10100000
          90 34 449 0 19 149 1 -7 39 vhcurveto
          -17 97 21 -104 55 hhcurveto
          13 9 8 24 hvcurveto
          17 -2 18 16 91 32 53 49 vvcurveto
          14 -4 11 -11 -9 -14 -7 -17 -20 vhcurveto
          -47 -56 -46 -27 -54 hhcurveto
          -54 -152 7 0 hvcurveto
          0 64 816 63 vvcurveto
          34 -14 21 -21 -18 -24 -16 -39 -25 vhcurveto
          hintmask 01100000
          -54 -83 -604 -738 -26 -28 rrcurveto
          -13 -14 -18 -24 -20 vvcurveto
          -19 16 -15 50 104 474 -14 0 0 -36 -508 -5 -38 vhcurveto
          -8 -62 -63 -50 -31 -21 rrcurveto
          -352 761 rmoveto
          563 706 -65 -706 rlineto
          endchar
        </CharString>
        <CharString name="fraction">
          24 -47 1519 hstem
          46 1287 vstem
          63 89 rmoveto
          19 -15 39 -15 22 -17 rrcurveto
          -36 46 41 -53 27 hhcurveto
          20 12 26 20 -20 callgsubr
          10 hhcurveto
          38 15 14 17 13 -8 14 -14 11 hvcurveto
          -48 37 -22 0 -54 68 rrcurveto
          27 -24 -16 11 -16 hhcurveto
          -23 -11 -28 -18 16 callgsubr
          -723 -916 -4 -2 -20 -18 -53 -15 -60 -8 rrcurveto
          -33 -11 -9 -17 -15 vvcurveto
          -10 5 -10 12 -8 vhcurveto
          endchar
        </CharString>
        <CharString name="g">
          57 -356 93 1409 92 158 -20 hstem
          73 103 116 98 138 102 320 97 37 103 vstem
          73 -4 rmoveto
          -279 377 -73 197 206 334 105 281 vhcurveto
          414 -557 -104 184 vvcurveto
          41 40 37 25 18 vhcurveto
          133 21 219 95 199 vvcurveto
          63 -17 54 -29 43 vhcurveto
          34 77 125 3 17 hhcurveto
          27 12 17 19 13 -6 13 -8 9 hvcurveto
          152 -133 -14 41 -30 hhcurveto
          -66 33 -128 -115 -87 hvcurveto
          57 -70 -98 28 -100 hhcurveto
          -187 -201 -83 -226 -152 132 -122 143 -32 hvcurveto
          -23 -26 -16 -31 -58 -262 556 140 -356 vvcurveto
          -162 -201 -131 -237 -232 -238 90 158 164 89 -8 88 8 vhcurveto
          33 3 29 22 21 vvcurveto
          14 -9 12 -22 10 vhcurveto
          58 -134 -50 113 -42 hhcurveto
          -18 -12 -14 -30 -2 hvcurveto
          -6 -76 2 -88 -18 -69 rrcurveto
          -17 -46 -14 -44 -39 vvcurveto
          569 710 rmoveto
          -124 -128 100 126 164 157 50 132 140 131 -53 -156 -178 -224 -53 -84 hvcurveto
          endchar
        </CharString>
        <CharString name="germandbls">
          -78 88 88 1386 98 hstem
          158 98 623 104 57 96 vstem
          57 -160 rmoveto
          -10 11 -16 23 3 3 0 1 3 vhcurveto
          8 44 51 4 55 38 41 -6 40 hhcurveto
          28 27 7 16 20 -9 13 -24 14 hvcurveto
          -99 57 -20 91 -2 51 rrcurveto
          -7 226 -7 223 223 vvcurveto
          92 1 93 3 92 vhcurveto
          251 8 123 272 253 hhcurveto
          89 146 -46 -152 -163 -83 -81 -101 -46 hvcurveto
          -47 -21 -30 -3 -47 vvcurveto
          -40 49 -3 59 -35 vhcurveto
          124 -75 190 -69 -311 vvcurveto
          -181 -110 -113 -141 -88 -5 58 56 vhcurveto
          9 1 11 11 vvcurveto
          29 -6 28 -39 -12 -13 -8 -19 -8 vhcurveto
          -54 -127 -110 5 -58 vvcurveto
          -15 24 -13 42 vhcurveto
          82 77 -55 78 hhcurveto
          237 141 168 225 364 -235 75 -133 82 hvcurveto
          109 66 106 72 238 vvcurveto
          178 -158 104 -181 -162 -295 -115 -477 -22 vhcurveto
          -5 -99 -2 -98 -95 -302 19 -283 -94 -163 -120 -39 -55 vvcurveto
          endchar
        </CharString>
        <CharString name="grave">
          87 callgsubr
          143 461 vstem
          489 1513 -101 callgsubr
        </CharString>
        <CharString name="grave.cap">
          -511 1615 404 hstem
          82 461 vstem
          428 1651 -101 callgsubr
        </CharString>
        <CharString name="greater">
          266 -120 20 hstem
          259 1078 vstem
          1325 795 rmoveto
          -203 190 -445 357 -75 76 -15 15 -35 50 -19 115 rrcurveto
          30 -5 -13 12 -15 hhcurveto
          -25 -29 -32 -32 -10 hvcurveto
          -19 -62 -69 -54 -32 -37 rrcurveto
          -26 -30 -8 -19 -15 vvcurveto
          -21 15 -5 21 vhcurveto
          22 58 8 60 hhcurveto
          42 39 -3 -11 17 hvcurveto
          87 -53 370 -314 183 -188 -199 -178 -467 -371 -17 -6 rrcurveto
          -24 -71 -72 -19 -47 43 callgsubr
          -30 -19 -18 -20 -15 62 -63 49 -61 hvcurveto
          -60 49 46 -57 28 hhcurveto
          62 -24 54 58 8 hvcurveto
          6 40 14 77 25 26 87 93 466 374 173 107 rrcurveto
          20 12 7 22 19 vvcurveto
          16 -5 13 -7 4 vhcurveto
          endchar
        </CharString>
        <CharString name="greaterequal">
          201 -47 86 hstem
          240 1078 vstem
          1306 998 rmoveto
          7 4 5 13 16 vvcurveto
          19 -7 22 -20 12 vhcurveto
          -173 107 -465 314 -88 73 -28 23 -11 80 -6 40 rrcurveto
          58 -8 24 54 -62 hhcurveto
          -28 -46 -57 -60 -49 hvcurveto
          -49 -61 -62 -63 -15 vvcurveto
          -20 19 -18 30 vhcurveto
          5 5 0 5 hhcurveto
          47 72 -19 -24 71 hvcurveto
          17 -6 467 -311 199 -158 -183 -148 -370 -274 -87 -53 rrcurveto
          -11 -17 -39 -3 -42 -60 -58 8 -22 hhcurveto
          -21 -15 -5 -21 -15 8 -19 26 -30 hvcurveto
          32 -37 69 -54 19 -62 rrcurveto
          -32 10 29 -32 25 hhcurveto
          15 13 12 30 5 hvcurveto
          19 115 35 50 15 15 75 76 445 277 203 190 rrcurveto
          -28 -1051 rmoveto
          -8 35 -3 24 20 28 5 20 35 vvcurveto
          26 -13 21 -19 -15 -18 -12 -32 -20 vhcurveto
          -35 -22 -47 -31 -15 hhcurveto
          -2 -198 -133 -5 -171 hhcurveto
          -42 -43 0 1 -48 hvcurveto
          2 -79 -25 95 -55 hhcurveto
          -20 -12 -7 -39 hvcurveto
          -41 7 -24 -43 -27 -12 -40 -25 vvcurveto
          -25 12 -13 25 44 48 83 11 57 vhcurveto
          1 4 421 5 204 106 0 -84 57 hhcurveto
          19 13 13 30 10 -1 12 -3 13 hvcurveto
          endchar
        </CharString>
        <CharString name="guillemotleft">
          612 91 callgsubr
          hstemhm
          252 695 6 695 hintmask 10100000
          1364 131 rmoveto
          -79 callsubr
          hintmask 11000000
          -701 hmoveto
          -79 callsubr
          endchar
        </CharString>
        <CharString name="guillemotright">
          573 91 callgsubr
          hstemhm
          269 695 -33 695 hintmask 11000000
          -57 callsubr
          662 hmoveto
          -77 callgsubr
          hintmask 10100000
          3 -1 3 3 vvcurveto
          endchar
        </CharString>
        <CharString name="guilsinglleft">
          -89 91 callgsubr
          hstem
          252 695 vstem
          663 131 rmoveto
          -79 callsubr
          endchar
        </CharString>
        <CharString name="guilsinglright">
          -89 91 callgsubr
          hstem
          269 695 vstem
          -57 callsubr
          endchar
        </CharString>
        <CharString name="h">
          33 81 callsubr
          hstemhm
          175 337 -320 276 -195 92 -58 80 hintmask 00000000
          hintmask 00110001
          217 86 callgsubr
          hintmask 00110100
          34 67 -4 -2 10 hvcurveto
          hintmask 10010100
          44 callgsubr
          hintmask 01010010
          -45 callgsubr
          hintmask 00110001
          79 callsubr
          1 152 8 479 5 53 rrcurveto
          hintmask 00111000
          1 13 19 32 22 31 rrcurveto
          63 callsubr
          hintmask 00110100
          45 callgsubr
          hintmask 00110001
          70 callsubr
          hintmask 00110010
          -226 -34 -1096 -16 vvcurveto
          hintmask 00111000
          70 callgsubr
          hintmask 00110001
          88 callgsubr
        </CharString>
        <CharString name="hbar">
          28 81 callsubr
          207 91 -86 84 hstemhm
          206 276 -195 114 -80 88 35 callgsubr
          hintmask 0011100100000000
          231 86 callgsubr
          hintmask 0011101000000000
          34 67 -4 -2 10 hvcurveto
          hintmask 1001101000000000
          44 callgsubr
          hintmask 0101100100000000
          -45 callgsubr
          79 callsubr
          87 3 195 3 160 vhcurveto
          -2 49 46 -2 29 hhcurveto
          39 21 -24 -35 46 hvcurveto
          -39 50 15 -14 10 hhcurveto
          27 12 23 26 hvcurveto
          27 -15 47 26 48 9 11 48 vvcurveto
          41 -12 16 -21 -50 -49 -109 -1 -82 vhcurveto
          hintmask 0011100010000000
          -122 -2 4 164 -14 -13 58 82 rlinecurve
          63 callsubr
          hintmask 0011101000000000
          45 callgsubr
          hintmask 0011010010000000
          70 callsubr
          -31 -1 -48 -1 -57 vhcurveto
          -75 hlineto
          -32 -85 123 -34 hhcurveto
          -13 -7 -12 -18 hvcurveto
          -19 5 -22 -23 vvcurveto
          -51 -9 -58 -17 -69 55 callsubr
          -3 vvcurveto
          -22 18 -10 17 vhcurveto
          hintmask 0011010100000000
          37 64 93 12 65 hvcurveto
          17 3 24 -1 25 1 rrcurveto
          -8 -396 -22 -709 -13 70 callgsubr
          hintmask 0011100100000000
          88 callgsubr
        </CharString>
        <CharString name="hungarumlaut">
          -100 1447 434 hstem
          151 1003 vstem
          266 1513 -81 callgsubr
        </CharString>
        <CharString name="hungarumlaut.cap">
          -100 1836 75 callsubr
          154 1003 hintmask 00000000
          hintmask 00110000
          269 1738 -59 callgsubr
          hintmask 01010000
          21 callsubr
          hintmask 10110000
          -96 callsubr
          hintmask 00110000
          -24 callgsubr
        </CharString>
        <CharString name="hyphen">
          68 595 81 hstem
          220 933 9 callgsubr
          344 -5 -1 4 hvcurveto
          -23 callsubr
          43 7 24 41 vvcurveto
          39 -12 7 -20 86 callsubr
          -50 -1 -53 -142 -158 12 -110 -60 callgsubr
          endchar
        </CharString>
        <CharString name="i">
          -602 -46 1259 129 239 hstemhm
          243 318 -230 76 hintmask 10010000
          197 -8 -99 callgsubr
          hintmask 01100000
          168 1381 -76 callsubr
        </CharString>
        <CharString name="iacute">
          41 callgsubr
          270 34 callgsubr
          411 461 -437 -84 callgsubr
          225 1527 -102 callsubr
        </CharString>
        <CharString name="icircumflex">
          41 callgsubr
          128 92 callsubr
          48 871 -484 -84 callgsubr
          -106 1424 -103 callsubr
        </CharString>
        <CharString name="idieresis">
          41 callgsubr
          470 -20 hstemhm
          101 771 -437 -84 callgsubr
          376 1496 -106 callsubr
        </CharString>
        <CharString name="igrave">
          41 callgsubr
          261 34 callgsubr
          121 461 -147 -84 callgsubr
          166 1518 -101 callgsubr
        </CharString>
        <CharString name="ij">
          274 -422 93 533 1009 179 -20 38 -20 184 239 hstemhm
          256 318 -243 97 786 102 hintmask 01000010
          197 242 -69 callsubr
          20 20 196 21 105 -87 callgsubr
          -161 -22 -410 -6 -48 callsubr
          hintmask 00001100
          181 1363 -82 callsubr
          hintmask 00000000
          427 -1696 -71 callgsubr
          hintmask 10010001
          67 callsubr
          hintmask 10100001
          -68 callgsubr
          hintmask 10010001
          -18 callsubr
        </CharString>
        <CharString name="infinity">
          700 84 92 -52 102 670 97 -57 89 hstemhm
          90 105 1615 105 hintmask 00000000
          hintmask 01101100
          517 124 rmoveto
          259 157 259 41 9 hvcurveto
          24 5 10 9 10 hhcurveto
          6 7 -4 -7 3 hvcurveto
          hintmask 10011100
          -86 43 112 -276 309 hhcurveto
          315 153 231 247 176 -91 287 -369 -247 -185 -243 -105 -41 hvcurveto
          -6 -3 -3 -3 -5 hhcurveto
          -6 -7 5 10 -6 hvcurveto
          hintmask 10101100
          75 -51 -101 235 -305 hhcurveto
          -241 -164 -169 -249 hvcurveto
          hintmask 01101100
          -235 149 -216 278 vhcurveto
          hintmask 10011100
          508 436 rmoveto
          210 84 196 166 156 hhcurveto
          137 212 -96 -271 -250 -171 -143 -187 -235 -107 228 156 -85 hvcurveto
          hintmask 01101100
          -494 -334 rmoveto
          -225 -111 133 216 186 117 135 186 219 83 -172 -159 107 hvcurveto
          -153 -69 -124 -186 -183 hhcurveto
          endchar
        </CharString>
        <CharString name="integral">
          -301 -260 83 1822 85 hstem
          449 95 vstem
          24 -84 rmoveto
          -212 vlineto
          -2 -14 -2 -11 -9 vvcurveto
          -21 7 -8 10 9 13 8 11 13 vhcurveto
          72 81 14 9 60 20 25 -1 35 hhcurveto
          245 -8 258 122 hvcurveto
          -3 1206 rlineto
          266 -1 58 53 90 hhcurveto
          83 21 -15 -79 82 hvcurveto
          0 callsubr
          5 -1 5 -1 6 hvcurveto
          212 vlineto
          1 11 1 10 8 vvcurveto
          25 -7 10 -10 -9 -12 -8 -12 -12 vhcurveto
          -69 -71 -61 -11 -97 hhcurveto
          -221 -23 -211 -159 1 hvcurveto
          3 -1266 rlineto
          -213 -52 -58 -103 -65 -77 61 35 -36 vhcurveto
          31 -33 -23 11 -15 hhcurveto
          -16 -7 -12 -17 -5 0 -5 2 -6 hvcurveto
          endchar
        </CharString>
        <CharString name="itilde">
          41 callgsubr
          260 68 callgsubr
          47 931 -543 76 hintmask 10001000
          -90 callsubr
          hintmask 01110000
          -115 1508 -95 callsubr
        </CharString>
        <CharString name="j">
          -429 47 callgsubr
          212 239 hstemhm
          360 318 -167 -61 callgsubr
          -18 callsubr
        </CharString>
        <CharString name="jcircumflex">
          -470 47 callgsubr
          108 92 callsubr
          85 871 -445 -61 callgsubr
          130 1664 -103 callsubr
        </CharString>
        <CharString name="k">
          -200 47 42 callsubr
          hintmask 00000000
          hintmask 01000110
          146 29 rmoveto
          hintmask 00100110
          64 callsubr
          hintmask 10000110
          -65 callgsubr
          hintmask 00110010
          10 callgsubr
          hintmask 01001010
          11 callsubr
          hintmask 01000110
          89 callgsubr
          endchar
        </CharString>
        <CharString name="kcommaaccent">
          -138 -417 -21 485 42 callsubr
          44 342 35 callgsubr
          hintmask 0010001100000000
          146 29 rmoveto
          hintmask 0001001100000000
          64 callsubr
          hintmask 0100001100000000
          -65 callgsubr
          hintmask 0001100100000000
          10 callgsubr
          hintmask 0010010100000000
          11 callsubr
          hintmask 0010001100000000
          89 callgsubr
          hintmask 1000000010000000
          226 -135 -84 callsubr
        </CharString>
        <CharString name="kgreenlandic">
          -228 47 -21 25 -21 hstemhm
          221 94 54 callsubr
          145 29 rmoveto
          83 hlineto
          21 22 1 21 hhcurveto
          hintmask 10100000
          53 26 -4 7 hhcurveto
          20 8 11 15 43 -99 103 -1 41 hvcurveto
          120 1 101 36 callgsubr
          -185 -32 callsubr
          148 36 callsubr
          208 23 13 rrcurveto
          1 hlineto
          14 24 34 4 31 28 27 -5 16 -9 callsubr
          -12 -43 -13 -22 -131 -135 -156 -128 53 callgsubr
          -131 8 callgsubr
          10 callgsubr
          38 callsubr
          1 -69 1 -77 -80 vvcurveto
          -273 -6 -296 -2 -67 vhcurveto
          hintmask 01100000
          -16 -77 -84 -61 -48 vvcurveto
          89 callgsubr
          endchar
        </CharString>
        <CharString name="l">
          -442 55 callgsubr
          hstemhm
          190 83 hintmask 00000000
          hintmask 10010000
          459 -20 rmoveto
          19 callgsubr
          hintmask 00110000
          18 callsubr
          hintmask 01010000
          -38 callgsubr
          hintmask 10010000
          -64 callsubr
          endchar
        </CharString>
        <CharString name="ldot">
          -225 55 callgsubr
          863 274 hstemhm
          190 83 362 350 hintmask 00000000
          hintmask 10001000
          459 -13 callsubr
          hintmask 10001000
          -64 callsubr
          hintmask 00010100
          186 1132 -93 callsubr
          endchar
        </CharString>
        <CharString name="less">
          201 1644 -20 85 callgsubr
          729 rmoveto
          203 -190 445 -357 -16 callsubr
          314 -183 188 199 178 467 371 4 callsubr
          -14 -77 -25 -26 -87 -93 -466 -374 45 callsubr
          endchar
        </CharString>
        <CharString name="lessequal">
          201 -47 86 85 callgsubr
          998 rmoveto
          203 -190 445 -277 -16 callsubr
          274 -183 148 199 158 467 311 4 callsubr
          -11 -80 -28 -23 -88 -73 -465 -314 45 callsubr
          28 -1051 rmoveto
          10 callsubr
          22 callsubr
          57 callgsubr
          204 421 20 callgsubr
          53 callsubr
          -43 0 -42 hhcurveto
          -171 -133 -25 callsubr
          endchar
        </CharString>
        <CharString name="logicalnot">
          728 903 106 hstem
          1588 94 vstem
          194 799 rmoveto
          58 44 105 63 24 48 -1 64 hhcurveto
          272 566 7 4 255 hvcurveto
          -1 -34 0 -38 -39 -75 1 -82 -77 vvcurveto
          -32 0 -31 -1 -30 vhcurveto
          -2 -82 -98 -57 -49 vvcurveto
          -19 13 -11 25 vhcurveto
          34 47 6 47 45 43 -5 33 hhcurveto
          21 8 9 11 17 -18 23 -7 8 hvcurveto
          -42 43 -54 62 45 vvcurveto
          38 3 309 2 127 vhcurveto
          59 34 120 -20 64 vvcurveto
          15 -10 15 -13 9 vhcurveto
          -50 32 -71 44 -37 36 rrcurveto
          21 -22 -17 8 -13 hhcurveto
          -24 -11 -26 -25 hvcurveto
          -39 8 -24 -30 vvcurveto
          -19 -3 -19 -8 -18 vhcurveto
          -1 -144 -300 -1 -275 -226 -208 2 -89 hhcurveto
          -16 -62 45 33 -30 hvcurveto
          32 -29 -20 13 -13 hhcurveto
          -14 -5 -16 -24 hvcurveto
          -40 7 -64 -58 vvcurveto
          -32 -2 -31 -7 -24 vhcurveto
          65 callgsubr
          endchar
        </CharString>
        <CharString name="lozenge">
          -62 92 callgsubr
          hstem
          145 941 vstem
          566 -98 rmoveto
          -22 7 19 -9 20 hhcurveto
          18 19 8 13 8 hvcurveto
          107 248 163 241 147 271 rrcurveto
          8 21 4 26 24 vvcurveto
          24 -3 26 -8 16 vhcurveto
          -142 301 -188 369 -88 177 rrcurveto
          22 -7 -19 9 -20 hhcurveto
          -18 -19 -8 -13 -8 hvcurveto
          -18 -48 -49 -68 -31 -77 -98 -173 -113 -231 -105 -207 rrcurveto
          -5 -35 -2 -25 -21 vvcurveto
          -38 7 -19 7 -19 vhcurveto
          140 -284 186 -341 81 -158 rrcurveto
          45 115 rmoveto
          -63 109 -190 358 -125 275 94 223 152 316 122 222 67 -117 200 -391 120 -272 -98 -226 -163 -293 -116 -204 rrcurveto
          endchar
        </CharString>
        <CharString name="lslash">
          -255 55 callgsubr
          hstemhm
          268 97 -83 85 hintmask 00000000
          hintmask 10010000
          551 -13 callsubr
          hintmask 10010000
          -15 callsubr
          101 0 119 1 123 hvcurveto
          62 131 140 58 14 callsubr
          9 -138 -51 -77 hvcurveto
          hintmask 00101000
          -88 -46 -61 -29 -57 -26 3 317 5 311 6 46 rrcurveto
          14 117 124 -41 callgsubr
          vvcurveto
          -145 -4 -200 -4 -182 vhcurveto
          -40 -18 -42 -20 -52 -27 rrcurveto
          -1 -2 -4 -1 8 callsubr
          hintmask 00110000
          17 63 19 50 58 31 54 29 rcurveline
          -2 -127 -2 -111 -59 vvcurveto
          hintmask 10010000
          27 callsubr
          endchar
        </CharString>
        <CharString name="m">
          371 49 -21 30 -21 25 -21 1053 95 -83 94 117 -20 28 -20 41 -20 hstemhm
          289 94 445 85 35 callgsubr
          hintmask 0010100111000000
          172 20 rmoveto
          -29 27 -15 28 vhcurveto
          24 22 14 34 45 45 -12 20 hhcurveto
          37 14 21 20 hvcurveto
          44 -85 57 81 vvcurveto
          132 -2 181 -5 179 vhcurveto
          hintmask 1001000111000000
          42 140 88 147 24 27 rrcurveto
          58 53 35 29 61 hhcurveto
          83 43 -157 -146 15 hvcurveto
          6 -63 2 -126 -117 -124 -5 -112 -16 vvcurveto
          0 -40 -64 -44 -50 vhcurveto
          -18 -21 -8 -17 -14 vvcurveto
          -28 24 -11 28 vhcurveto
          hintmask 0100100111000000
          34 15 13 47 39 33 -4 32 hhcurveto
          42 18 15 22 31 -68 42 -32 71 hvcurveto
          -10 21 -2 128 135 120 2 127 65 vvcurveto
          -1 63 292 183 hhcurveto
          81 -2 49 -147 26 -250 rrcurveto
          24 -228 3 -303 -69 vvcurveto
          0 -31 -91 -31 -72 vhcurveto
          -8 -19 -4 -15 -11 vvcurveto
          -23 15 -9 21 16 21 8 9 18 vhcurveto
          55 28 139 -30 64 vvcurveto
          18 -11 20 -17 9 vhcurveto
          -23 12 -53 74 -11 16 rrcurveto
          0 -24 383 -10 253 vhcurveto
          252 -11 -88 217 -143 hhcurveto
          -145 -101 -146 -91 -29 hvcurveto
          hintmask 0011000111000000
          106 -29 -50 120 -123 hhcurveto
          -52 -53 -15 -75 -78 hvcurveto
          -53 -51 -49 -83 -32 -69 rrcurveto
          -5 92 -12 87 71 vvcurveto
          30 35 45 65 57 vhcurveto
          15 13 6 13 11 vvcurveto
          18 -18 13 -26 -10 -10 -2 -4 -12 vhcurveto
          hintmask 0010110111000000
          -13 -37 -49 -10 -44 hhcurveto
          hintmask 0010101011000000
          -31 -29 8 -17 hhcurveto
          -26 -11 -11 -18 -13 9 -18 14 -15 hvcurveto
          42 -46 42 -28 4 -35 rrcurveto
          19 -175 6 -279 -233 vvcurveto
          -94 -1 -89 -5 -68 vhcurveto
          -3 -34 -49 -49 -44 -61 rrcurveto
          hintmask 0010100111000000
          -11 -15 -4 -13 -11 vvcurveto
          endchar
        </CharString>
        <CharString name="macron">
          -341 1689 104 hstem
          141 643 vstem
          167 1616 -69 callgsubr
        </CharString>
        <CharString name="macron.cap">
          -341 1820 73 callsubr
          141 643 hintmask 00000000
          hintmask 01110000
          167 1826 -21 callsubr
          hintmask 10110000
          -51 callgsubr
          hintmask 01110000
          -13 callgsubr
        </CharString>
        <CharString name="minus">
          128 595 86 hstem
          220 996 9 callgsubr
          407 7 callgsubr
          -43 0 -41 hhcurveto
          -168 -123 -5 callsubr
        </CharString>
        <CharString name="mu">
          -86 callsubr
        </CharString>
        <CharString name="multiply">
          250 1340 -20 32 -20 hstemhm
          135 1277 54 callsubr
          231 252 rmoveto
          32 -9 69 -70 81 callgsubr
          40 3 50 66 34 3 24 9 16 hvcurveto
          3 6 162 179 166 184 216 -209 130 -129 1 -2 19 -29 -3 -49 9 -74 rrcurveto
          -35 4 18 -14 83 callgsubr
          22 25 23 13 hvcurveto
          37 67 116 43 49 vvcurveto
          65 -152 -44 -65 50 vhcurveto
          -76 58 -95 89 -182 175 152 168 141 157 11 14 rrcurveto
          34 26 113 2 17 hhcurveto
          32 4 17 13 21 vvcurveto
          15 -8 17 -31 17 vhcurveto
          hintmask 10100000
          56 -101 -30 97 -54 hhcurveto
          -25 -17 -13 -35 hvcurveto
          -21 8 -32 -26 vvcurveto
          -26 -5 -25 -15 -22 vhcurveto
          -48 -70 -119 -144 -127 -143 -163 157 -115 112 -67 71 rrcurveto
          -11 12 -6 15 26 vvcurveto
          hintmask 01100000
          45 10 40 41 vvcurveto
          37 -17 13 -24 -42 -54 -105 -55 -124 vhcurveto
          -27 -12 -4 -22 -14 vvcurveto
          -58 130 38 66 -43 vhcurveto
          16 -10 165 -142 214 -206 -137 -154 -135 -141 -48 -36 -34 -25 -101 -8 -37 -10 rrcurveto
          -39 -10 -21 -17 -20 vvcurveto
          72 callsubr
          endchar
        </CharString>
        <CharString name="n">
          39 callsubr
          hstemhm
          132 1199 -1049 81 71 callsubr
          -74 callsubr
          hintmask 10101000
          -36 callgsubr
          hintmask 11001000
          -37 callsubr
          hintmask 10110000
          75 callgsubr
          endchar
        </CharString>
        <CharString name="nacute">
          39 callsubr
          144 34 callgsubr
          132 1199 -1049 81 258 461 hintmask 00000000
          hintmask 10101000
          -74 callsubr
          hintmask 10100100
          -36 callgsubr
          hintmask 11000100
          -37 callsubr
          hintmask 10101000
          75 callgsubr
          hintmask 00010010
          574 1523 -102 callsubr
        </CharString>
        <CharString name="nbspace">
          -535 endchar
        </CharString>
        <CharString name="nine">
          -49 819 86 591 90 hstem
          228 94 644 85 vstem
          149 99 rmoveto
          54 -70 78 -141 3 -41 rrcurveto
          -24 2 12 -23 16 hhcurveto
          11 13 11 29 13 hvcurveto
          31 70 38 94 42 18 rrcurveto
          425 178 164 372 417 vvcurveto
          367 -168 230 -250 -216 -189 -149 -228 -245 165 -145 246 149 108 94 70 33 vhcurveto
          11 5 14 34 9 hhcurveto
          7 2 -25 -27 -310 -133 -362 -296 -142 hvcurveto
          -57 -119 -39 -15 -31 -59 -109 75 -33 hhcurveto
          -12 -10 -5 -13 -10 7 -16 17 -22 hvcurveto
          484 806 rmoveto
          -147 3 -164 81 210 vvcurveto
          180 123 117 178 114 138 -64 -231 63 vhcurveto
          -129 -29 -88 -167 -188 hhcurveto
          endchar
        </CharString>
        <CharString name="notequal">
          -61 395 71 -66 87 416 86 -66 87 395 -20 hstemhm
          139 994 hintmask 00000000
          hintmask 01101100
          218 60 rmoveto
          4 -12 24 -13 31 -6 rrcurveto
          -18 95 70 -66 44 hhcurveto
          28 25 16 29 hvcurveto
          50 -56 42 51 vvcurveto
          hintmask 10101100
          39 38 106 35 117 vhcurveto
          163 -6 186 -10 6 1 rrcurveto
          -44 callsubr
          hhcurveto
          -81 -77 4 5 -76 hvcurveto
          43 140 52 157 49 139 rrcurveto
          -4 95 77 -4 12 hhcurveto
          1 1 0 0 hvcurveto
          -44 callsubr
          hhcurveto
          -21 -20 0 1 -21 hvcurveto
          44 117 40 96 30 47 rrcurveto
          44 69 98 -17 62 vvcurveto
          22 -18 19 -43 vhcurveto
          -6 -6 0 -7 hhcurveto
          -37 -59 16 17 -19 hvcurveto
          14 -13 -21 10 -19 hhcurveto
          -28 -9 -18 -21 hvcurveto
          -32 34 -73 -39 -5 -1 -5 -5 vvcurveto
          hintmask 01011100
          -91 -271 rlineto
          6 -114 -110 11 -110 -3 callgsubr
          50 128 -3 -5 124 hvcurveto
          -47 -141 -54 -159 -46 -134 rrcurveto
          3 -54 -54 3 -53 -3 callgsubr
          7 9 0 11 hhcurveto
          26 35 0 -1 38 hvcurveto
          -39 -112 -28 -79 -6 -8 -21 -35 -58 -26 -55 -25 rrcurveto
          -25 -11 -16 -18 -16 vvcurveto
          hintmask 01101100
          -3 1 -3 1 -3 vhcurveto
          endchar
        </CharString>
        <CharString name="ntilde">
          39 callsubr
          188 68 callgsubr
          132 1199 -1049 81 -77 931 hintmask 00000000
          hintmask 10100100
          -74 callsubr
          hintmask 10100010
          -36 callgsubr
          hintmask 11000010
          -37 callsubr
          hintmask 10100100
          75 callgsubr
          hintmask 00011001
          263 1558 -95 callsubr
        </CharString>
        <CharString name="numbersign">
          171 458 81 -72 76 578 81 -75 81 -79 84 139 -20 30 -20 hstemhm
          459 11 206 113 193 66 35 callgsubr
          hintmask 0101001111000000
          170 -29 rmoveto
          -24 -13 -10 -15 -14 vvcurveto
          -23 28 -20 42 vhcurveto
          51 25 5 33 23 38 -6 24 hhcurveto
          44 26 12 25 hvcurveto
          51 -81 39 56 vvcurveto
          5 0 4 1 5 vhcurveto
          hintmask 1001001111000000
          73 379 rlineto
          hintmask 0100101111000000
          141 4 159 1 149 1 -33 -161 -29 -126 -18 -38 -35 -73 -21 -31 -66 -36 rrcurveto
          -24 -13 -10 -15 -14 vvcurveto
          -64 180 26 95 -11 vhcurveto
          -1 9 8 -1 8 hhcurveto
          46 26 19 21 11 -7 12 -16 11 hvcurveto
          -46 31 -51 30 45 vvcurveto
          4 1 5 1 5 vhcurveto
          15 68 26 135 29 161 rrcurveto
          151 hlineto
          -8 67 68 -93 56 hhcurveto
          23 2 13 17 20 85 callsubr
          39 -3 41 42 36 6 36 37 64 callgsubr
          -65 -102 -70 -21 -104 -3 -36 -1 rcurveline
          33 190 37 214 29 178 135 2 rcurveline
          66 1 70 -104 55 2 rrcurveto
          23 1 13 19 19 85 callsubr
          38 -4 40 41 37 7 37 38 64 callgsubr
          -54 -84 -26 -37 -78 -1 -102 -2 rcurveline
          19 115 14 93 7 50 3 23 41 83 56 39 rrcurveto
          24 16 13 24 19 vvcurveto
          20 -15 16 -29 -6 -5 0 -1 -6 vhcurveto
          -11 -62 -43 -17 -52 -16 -18 2 -14 hhcurveto
          -36 -19 -10 -22 -25 28 -18 14 -17 hvcurveto
          35 -42 22 6 -49 vvcurveto
          hintmask 0101001111000000
          -32 -14 -113 -24 -150 vhcurveto
          -436 -6 49 254 4 23 40 103 56 39 rlinecurve
          31 21 2 14 19 vvcurveto
          20 -6 13 -26 -7 -8 -1 -2 -10 vhcurveto
          -11 -58 -47 -18 -61 -19 -25 3 -17 hhcurveto
          -33 -13 -8 -23 -46 106 -25 7 -60 hvcurveto
          hintmask 1010010111000000
          -16 -11 -115 -31 -185 vhcurveto
          -193 -2 rlineto
          -18 -70 66 37 -25 hvcurveto
          34 -24 -18 17 callsubr
          43 3 72 117 64 15 rrcurveto
          3 6 1 3 159 hvcurveto
          -32 -179 -41 -214 -40 -187 -133 -1 rcurveline
          -18 -70 66 37 -25 hvcurveto
          34 -23 -19 17 callsubr
          48 4 66 127 65 4 32 2 35 2 37 1 -39 -183 -36 -145 -18 -39 rrcurveto
          hintmask 0101001111000000
          -35 -73 -21 -11 -66 -36 rrcurveto
          308 570 rmoveto
          112 580 100 2 135 2 205 2 rlinecurve
          -29 -181 -37 -216 -36 -184 rrcurveto
          endchar
        </CharString>
        <CharString name="o">
          -52 22 callgsubr
          hstem
          136 101 782 97 vstem
          604 -92 callsubr
          endchar
        </CharString>
        <CharString name="oacute">
          -32 22 callgsubr
          185 34 callgsubr
          146 101 251 461 70 -76 callgsubr
          -4 1132 -102 callsubr
        </CharString>
        <CharString name="ocircumflex">
          -32 22 callgsubr
          84 92 callsubr
          146 101 -48 871 -41 -76 callgsubr
          -271 1070 -103 callsubr
        </CharString>
        <CharString name="odieresis">
          -32 22 callgsubr
          388 -20 hstemhm
          146 101 21 771 -10 -76 callgsubr
          227 1104 -106 callsubr
        </CharString>
        <CharString name="oe">
          1289 91 84 71 333 -298 58 472 89 258 92 169 84 hstemhm
          134 101 792 105 1052 97 35 callgsubr
          hintmask 1011111110000000
          602 246 rmoveto
          59 330 19 292 100 hvcurveto
          -344 87 360 -122 198 hhcurveto
          294 154 122 44 51 hvcurveto
          20 50 53 4 38 22 16 -1 9 hhcurveto
          34 1 25 21 25 vvcurveto
          16 -8 14 -20 16 vhcurveto
          hintmask 1101111110000000
          -53 43 -35 74 -8 27 rrcurveto
          24 -8 -29 38 -29 hhcurveto
          -33 0 -34 -26 -4 hvcurveto
          -8 -54 -22 -84 -28 -33 rrcurveto
          -30 -25 -106 -143 -328 hhcurveto
          -362 -244 312 332 309 262 274 272 15 hvcurveto
          1 23 22 1 21 hhcurveto
          341 111 -154 -166 -118 -134 -81 -134 -79 -26 7 6 -21 hvcurveto
          -13 3 -45 72 -14 84 rrcurveto
          50 -8 -20 16 -21 hhcurveto
          -67 -11 -140 -107 -105 hvcurveto
          -16 -16 -6 -13 -11 vvcurveto
          -30 38 -6 22 vhcurveto
          15 87 20 64 hhcurveto
          17 15 -1 -4 12 hvcurveto
          -16 52 62 -3 63 hhcurveto
          95 275 39 263 275 -274 115 -263 -34 -35 -2 -4 -33 hvcurveto
          -198 -23 -296 -153 -90 -320 rrcurveto
          198 -105 -206 51 -119 hhcurveto
          -227 -267 -190 -323 hvcurveto
          hintmask 1011111110000000
          -42 callsubr
          221 157 202 236 132 267 -63 -379 -347 -364 -30 -58 hvcurveto
          endchar
        </CharString>
        <CharString name="ograve">
          -32 22 callgsubr
          179 34 callgsubr
          146 101 121 461 200 -76 callgsubr
          97 1126 -101 callgsubr
        </CharString>
        <CharString name="ohungarumlaut">
          -52 22 callgsubr
          152 434 hstemhm
          136 101 83 1003 -304 97 hintmask 11010100
          604 -92 callsubr
          hintmask 00101000
          -172 1129 -81 callgsubr
        </CharString>
        <CharString name="one">
          -474 1659 -20 hstem
          -14 633 vstem
          295 -23 rmoveto
          47 90 14 62 34 21 -8 24 hhcurveto
          25 21 7 17 10 -7 14 -17 17 hvcurveto
          -60 60 -35 48 63 vvcurveto
          63 65 1040 30 248 vhcurveto
          1 13 1 12 10 vvcurveto
          34 -8 20 -23 -6 -7 -2 -3 -9 vhcurveto
          -48 -19 -223 -138 -62 -28 rrcurveto
          -5 -12 -14 -2 -14 hhcurveto
          -52 -74 23 10 -33 hvcurveto
          -2 -2 1 -2 hhcurveto
          -10 -10 -7 -14 -6 3 -8 6 -9 hvcurveto
          -97 66 12 -159 38 hhcurveto
          7 8 6 17 8 hvcurveto
          35 70 69 112 25 9 25 9 153 90 16 6 rrcurveto
          4 10 14 11 9 hhcurveto
          5 3 -3 -9 hvcurveto
          -2 0 -2 -2 vvcurveto
          -41 -322 -41 -961 -13 -32 -13 -32 -47 -78 -42 -49 rrcurveto
          -13 -15 -22 -20 -13 vvcurveto
          -8 7 -5 22 vhcurveto
          endchar
        </CharString>
        <CharString name="onehalf">
          355 10 83 159 1267 -694 80 924 -21 hstemhm
          266 1113 -819 76 847 85 hintmask 01001000
          310 12 callsubr
          10 66 6 42 19 32 rrcurveto
          -1 -2 -1 -1 -1 vvcurveto
          0 0 0 0 10 489 626 107 84 -59 callsubr
          hintmask 00010100
          173 520 -80 callsubr
          hintmask 10100010
          654 -947 -66 callgsubr
        </CharString>
        <CharString name="onequarter">
          511 508 95 -87 87 1226 -21 hstemhm
          510 76 702 87 -85 67 hintmask 00000000
          hintmask 01000100
          310 -50 callsubr
          539 99 -29 callsubr
          hintmask 10000100
          -7 callsubr
          hintmask 10001000
          6 callgsubr
          hintmask 01000100
          21 callgsubr
          hintmask 01001000
          59 callgsubr
          hintmask 01000100
          0 -211 -1 -13 vhcurveto
          hintmask 00110000
          -627 345 -80 callsubr
          endchar
        </CharString>
        <CharString name="onesuperior">
          -466 1829 -21 hstem
          440 76 vstem
          363 948 -80 callsubr
          endchar
        </CharString>
        <CharString name="ordfeminine">
          -131 290 73 350 104 859 -20 hstem
          149 113 vstem
          310 713 rmoveto
          171 146 180 148 91 hvcurveto
          32 52 rlineto
          81 -124 11 -25 -6 -56 -29 -51 -54 vvcurveto
          -31 17 -16 21 22 25 14 19 16 vhcurveto
          50 58 129 -35 64 vvcurveto
          56 -97 14 -61 43 vhcurveto
          -35 54 -276 430 -15 29 rrcurveto
          -1 1 0 2 2 37 40 70 38 vvcurveto
          35 -18 15 -22 -17 -20 -8 -13 -14 vhcurveto
          -51 -45 -33 -32 -49 -15 rrcurveto
          -39 -12 -20 -16 -19 vvcurveto
          -47 104 7 57 -39 vhcurveto
          11 -18 40 -62 49 -73 -82 -14 -128 -41 -66 -50 rrcurveto
          -105 -80 -96 -95 -139 vvcurveto
          -99 83 -53 78 vhcurveto
          4 104 rmoveto
          -34 -18 27 29 50 38 91 111 81 hvcurveto
          106 77 104 25 56 7 16 -24 rcurveline
          -47 -20 -178 -316 -181 hhcurveto
          -92 -612 58 callsubr
          -31 callsubr
          endchar
        </CharString>
        <CharString name="ordmasculine">
          -152 290 73 332 93 849 87 hstem
          216 103 523 99 vstem
          616 695 rmoveto
          163 4 162 203 327 vvcurveto
          377 -176 118 -163 -222 -164 -185 -321 -451 211 -72 170 vhcurveto
          6 7 0 6 hhcurveto
          -17 93 rmoveto
          -132 -148 71 373 304 177 79 39 12 hvcurveto
          7 2 63 7 9 1 rrcurveto
          2 2 0 3 hhcurveto
          73 148 -105 -283 -318 -131 -141 -112 -2 hvcurveto
          -362 -626 rmoveto
          41 53 109 6 65 hvcurveto
          -31 callsubr
          -32 16 -11 19 vhcurveto
          endchar
        </CharString>
        <CharString name="oslash">
          -31 111 97 814 93 233 -20 hstem
          146 110 777 93 vstem
          18 50 rmoveto
          -19 17 -19 41 -10 vhcurveto
          -1 hlineto
          33 -9 69 -21 12 -23 rrcurveto
          -23 11 25 -21 21 hhcurveto
          38 5 46 69 35 0 21 13 21 hvcurveto
          0 23 32 38 50 vhcurveto
          -57 99 106 -11 46 hhcurveto
          72 440 17 448 205 -64 129 -85 80 hvcurveto
          37 47 25 30 5 4 2 1 rcurveline
          32 39 89 5 26 hhcurveto
          32 4 23 14 21 vvcurveto
          15 -12 16 -33 17 vhcurveto
          49 -96 -29 103 -66 hhcurveto
          -26 -20 -12 -35 -9 1 -9 3 -12 hvcurveto
          1 vlineto
          9 -46 3 -33 -12 vvcurveto
          -13 -5 -8 -12 -12 vhcurveto
          -72 -100 rlineto
          53 -91 -99 14 -70 hhcurveto
          -42 callgsubr
          -177 60 -115 78 -73 vhcurveto
          -34 -41 -28 -33 -19 -19 -46 -27 -52 -14 -38 -9 rrcurveto
          1 vlineto
          -30 -7 -19 -18 -20 vvcurveto
          335 273 rmoveto
          -56 60 -41 90 131 vvcurveto
          112 47 123 68 73 vhcurveto
          26 66 100 84 103 hhcurveto
          55 79 -8 -39 72 hvcurveto
          -141 -191 -205 -275 -147 -186 rrcurveto
          73 -59 rmoveto
          137 183 220 292 139 180 rrcurveto
          64 -65 47 -105 -168 vvcurveto
          -347 -358 -26 -58 -45 -76 13 43 -70 vhcurveto
          endchar
        </CharString>
        <CharString name="otilde">
          -32 22 callgsubr
          190 68 callgsubr
          146 101 -56 931 -93 97 hintmask 11001010
          -83 callgsubr
          hintmask 00110100
          -287 1128 -95 callsubr
        </CharString>
        <CharString name="p">
          -136 -403 -21 28 -21 28 -21 874 90 576 90 185 -20 23 -20 hstemhm
          247 86 631 98 35 callgsubr
          hintmask 0011101110000000
          247 -176 rmoveto
          hintmask 0101101110000000
          -101 -150 -59 -52 vvcurveto
          -20 25 -9 28 vhcurveto
          hintmask 0011101110000000
          36 39 7 39 hhcurveto
          49 50 -4 -8 46 hvcurveto
          hintmask 1001101110000000
          -2 9 8 0 7 hhcurveto
          33 13 16 19 13 -9 16 -13 16 hvcurveto
          -48 58 -57 23 -5 86 -6 86 0 220 -6 333 -3 174 rcurveline
          -159 90 203 -13 60 hhcurveto
          112 265 70 295 341 -247 50 -126 -138 -153 -64 -141 -70 hvcurveto
          -1 78 -3 92 26 46 callgsubr
          27 -38 11 -33 vhcurveto
          hintmask 0011110110000000
          -29 -46 -14 -58 -31 -39 11 -25 hhcurveto
          -29 -12 -14 -18 -15 9 -14 37 -38 hvcurveto
          27 -29 44 -40 8 -36 rrcurveto
          hintmask 0011101110000000
          7 -35 13 -1328 -14 vvcurveto
          441 730 rmoveto
          -110 -225 48 234 129 141 165 184 93 193 -31 -269 -234 -191 -42 -85 hvcurveto
          endchar
        </CharString>
        <CharString name="paragraph">
          176 1475 89 79 -20 hstemhm
          187 102 172 130 -1 90 -87 108 302 90 hintmask 00000000
          hintmask 11110010
          461 -255 rmoveto
          -28 25 -14 30 vhcurveto
          22 12 10 40 54 70 -9 20 hhcurveto
          35 18 11 21 hvcurveto
          hintmask 11101010
          12 -6 16 -13 19 vhcurveto
          -36 53 -44 39 -2 47 rrcurveto
          -4 79 -2 86 91 vvcurveto
          hintmask 11100110
          321 21 384 371 vvcurveto
          72 -1 72 -2 70 vhcurveto
          5 33 33 2 32 hhcurveto
          66 70 -2 -2 71 hvcurveto
          3 -150 1 -189 -197 vvcurveto
          -363 -3 -394 -1 -244 vhcurveto
          -27 -51 -49 -40 -52 vhcurveto
          -15 -20 -23 -18 -25 vvcurveto
          -27 27 -13 28 vhcurveto
          22 13 10 38 52 66 -9 22 hhcurveto
          35 18 11 21 12 -6 16 -13 19 hvcurveto
          -36 53 -44 39 -2 47 rrcurveto
          -1 14 0 12 14 80 10 167 1257 vvcurveto
          7 hlineto
          26 -2 58 5 73 -107 rrcurveto
          -21 14 15 -9 12 hhcurveto
          19 14 22 35 hvcurveto
          44 -10 36 30 43 26 39 39 vvcurveto
          14 -5 9 -15 -12 -17 -6 -16 -27 vhcurveto
          -60 -99 -20 -13 -47 -47 -152 16 -111 hhcurveto
          -123 -495 -26 -444 -297 287 -101 118 -28 hvcurveto
          -1 -289 -1 -281 -164 52 callgsubr
          131 1024 rmoveto
          -98 11 -205 80 248 vvcurveto
          183 142 107 160 48 vhcurveto
          1 -100 1 -127 -140 -99 -1 -105 -106 vvcurveto
          endchar
        </CharString>
        <CharString name="parenleft">
          -152 -410 -21 hstem
          200 101 345 223 vstem
          626 -189 rmoveto
          10 -14 14 -39 -74 -22 -4 -24 -28 vvcurveto
          -30 13 -11 19 22 32 23 24 14 vhcurveto
          34 56 82 33 39 28 rrcurveto
          40 28 11 18 15 vvcurveto
          20 -22 6 -28 5 vhcurveto
          -52 8 -130 22 -26 33 rrcurveto
          -245 310 -148 289 298 vvcurveto
          259 128 438 212 190 vhcurveto
          60 54 77 27 47 8 rrcurveto
          29 5 15 19 19 vvcurveto
          17 -65 40 -76 58 vhcurveto
          44 -57 -56 42 -28 hhcurveto
          -31 -8 -22 -14 hvcurveto
          -38 19 -43 -79 vvcurveto
          -30 -3 -28 -12 -16 vhcurveto
          -167 -216 -185 -356 -390 vvcurveto
          -429 197 -186 229 -347 vhcurveto
          endchar
        </CharString>
        <CharString name="parenright">
          -205 -408 -21 hstemhm
          200 323 -305 285 296 101 71 callsubr
          219 -212 rmoveto
          4 -14 12 -16 34 -23 rrcurveto
          hintmask 11010000
          39 -27 82 -35 34 -55 rrcurveto
          -24 15 31 -23 23 hhcurveto
          18 12 12 29 hvcurveto
          28 -3 24 22 vvcurveto
          74 14 38 10 15 vhcurveto
          229 346 127 204 429 vvcurveto
          390 -215 437 -167 215 vhcurveto
          hintmask 10110000
          -12 15 -3 29 30 79 19 43 38 vvcurveto
          14 -8 22 -31 -29 -55 -42 -44 -57 vhcurveto
          hintmask 11010000
          -76 -58 -66 -40 -17 vvcurveto
          -19 16 -19 29 -5 vhcurveto
          47 -8 77 -27 60 -54 rrcurveto
          212 -190 158 -518 -259 vvcurveto
          -298 -78 -306 -245 -310 vhcurveto
          hintmask 10110000
          -26 -33 -130 -22 -52 -8 rrcurveto
          -28 -5 -22 -6 -20 vvcurveto
          -2 0 -3 1 -3 vhcurveto
          endchar
        </CharString>
        <CharString name="partialdiff">
          65 -37 87 858 87 489 91 hstem
          196 102 758 99 vstem
          196 404 rmoveto
          -260 105 -181 270 333 251 329 511 433 -127 339 -283 -220 -109 -176 -71 -25 vhcurveto
          -29 -83 -85 -50 -37 vvcurveto
          -15 18 -17 33 8 10 2 2 10 vhcurveto
          8 33 28 3 24 35 18 -12 32 hhcurveto
          22 21 7 17 8 -4 10 -12 14 hvcurveto
          -38 45 -25 30 30 vvcurveto
          10 2 9 6 10 vhcurveto
          41 23 81 124 133 hhcurveto
          133 188 -124 -488 hvcurveto
          -12 -1 -13 -12 vvcurveto
          66 -48 -100 94 -176 hhcurveto
          -275 -260 -295 -296 hvcurveto
          105 51 rmoveto
          148 12 151 305 267 hhcurveto
          179 96 -115 -76 44 hvcurveto
          -422 -35 -180 -245 -269 hhcurveto
          -225 -43 193 146 24 1 22 2 20 hvcurveto
          endchar
        </CharString>
        <CharString name="percent">
          558 69 callgsubr
          hstem
          62 callsubr
          vstem
          511 752 -78 callgsubr
        </CharString>
        <CharString name="period">
          -542 -34 71 callgsubr
          174 -93 callsubr
          endchar
        </CharString>
        <CharString name="periodcentered">
          -542 604 71 callgsubr
          812 -93 callsubr
          endchar
        </CharString>
        <CharString name="perthousand">
          1358 69 callgsubr
          hstemhm
          62 callsubr
          97 99 516 88 hintmask 1100000011000000
          1784 337 rmoveto
          40 callgsubr
          -4 callgsubr
          -26 -28 -4 -8 -28 vhcurveto
          -123 -21 -149 -144 -191 vvcurveto
          99 2 rmoveto
          74 32 101 67 48 vhcurveto
          28 12 rlineto
          -6 callgsubr
          hintmask 1111111100000000
          -1372 413 -78 callgsubr
        </CharString>
        <CharString name="pi">
          -528 892 84 hstem
          184 98 350 94 vstem
          72 -14 -61 callsubr
          38 -84 64 -2 78 hvcurveto
          -1 24 0 25 25 vvcurveto
          204 16 240 3 208 vhcurveto
          109 125 -1 -1 102 hvcurveto
          -3 -53 -2 -51 -47 vvcurveto
          -412 113 -196 4 -21 vhcurveto
          1 -5 0 -5 -6 vvcurveto
          -27 -9 -42 -17 -43 vhcurveto
          -4 -10 -2 -10 -9 vvcurveto
          -23 12 -16 20 13 16 7 16 19 vhcurveto
          61 53 73 35 57 8 rrcurveto
          27 4 13 16 18 vvcurveto
          19 -16 20 -32 8 vhcurveto
          -61 14 -57 -2 -18 26 rrcurveto
          -23 23 -96 230 372 vvcurveto
          34 1 36 2 37 vhcurveto
          60 41 -1 1 hhcurveto
          50 callsubr
          43 7 24 41 vvcurveto
          39 -12 7 -20 -54 -26 -93 -4 -79 vhcurveto
          -3 -57 -60 -1 -60 -180 -185 10 -143 -60 callgsubr
          57 callgsubr
          53 hlineto
          -1 -208 -20 -514 -3 -48 callsubr
          endchar
        </CharString>
        <CharString name="plus">
          231 612 84 -78 83 hstemhm
          720 87 -81 85 54 callsubr
          198 503 rmoveto
          58 3 38 107 63 5 370 1 rcurveline
          -7 -430 rlineto
          -17 -41 -44 -32 -31 vhcurveto
          -30 -30 -12 -20 -13 vvcurveto
          -13 12 -6 20 vhcurveto
          26 37 4 39 hhcurveto
          48 51 -3 -10 40 hvcurveto
          -1 4 4 -1 4 hhcurveto
          23 8 20 16 hvcurveto
          -3 58 -111 38 63 vvcurveto
          hintmask 10100000
          -1 418 385 -9 rlineto
          -6 64 59 -106 55 hhcurveto
          23 2 14 18 21 vvcurveto
          3 0 4 -1 4 vhcurveto
          -9 37 -3 40 40 36 6 36 31 vvcurveto
          40 -19 12 -19 vhcurveto
          -67 -5 -26 -114 -81 -4 rrcurveto
          hintmask 10010000
          34 callsubr
          51 callsubr
          5 -66 111 -26 4 -82 rrcurveto
          hintmask 01010000
          4 -332 -381 5 rlineto
          -17 -44 43 32 -31 hvcurveto
          30 -30 -20 12 -13 hhcurveto
          -13 -6 -13 -19 hvcurveto
          -26 4 -37 -39 vvcurveto
          -48 -3 -51 -10 -40 55 callsubr
          -4 vvcurveto
          hintmask 01100000
          -23 20 -8 16 vhcurveto
          endchar
        </CharString>
        <CharString name="plusminus">
          165 99 76 553 84 -77 79 542 -20 35 -20 hstemhm
          676 83 -80 85 hintmask 00000000
          hintmask 10101100
          165 38 rmoveto
          65 callgsubr
          58 44 105 63 hhcurveto
          125 -4 582 -14 9 -2 rrcurveto
          -15 62 65 -97 54 hhcurveto
          25 14 21 24 hvcurveto
          43 -7 52 48 26 3 26 20 vvcurveto
          40 -16 14 -19 -68 -37 -105 -5 -75 vhcurveto
          -1 -9 -26 0 -39 hhcurveto
          -56 -84 1 2 -105 hvcurveto
          hintmask 11001100
          -1 560 385 -9 rlineto
          -6 63 68 -96 55 hhcurveto
          28 2 8 24 26 vvcurveto
          -3 34 -14 26 39 27 2 24 24 vvcurveto
          69 -12 19 -25 vhcurveto
          -61 -4 -38 -114 -75 -5 rrcurveto
          hintmask 11001010
          34 callsubr
          hintmask 10110010
          51 callsubr
          4 -60 111 -37 5 -77 4 -332 rcurveline
          -381 2 rlineto
          -47 -61 118 -44 hhcurveto
          -19 -12 -15 -20 hvcurveto
          -32 11 -47 -47 vvcurveto
          -38 -3 -39 -8 -33 55 callsubr
          -4 vvcurveto
          -23 20 -8 16 vhcurveto
          58 3 38 109 63 5 370 -1 rcurveline
          -7 -560 -93 3 -107 2 -117 6 rlinecurve
          1 -31 -89 122 -30 hhcurveto
          -14 -5 -16 -24 -62 -2 -101 -20 -68 hvcurveto
          endchar
        </CharString>
        <CharString name="product">
          229 1471 91 hstemhm
          154 192 -63 90 790 90 -19 148 71 callsubr
          192 -185 rmoveto
          hintmask 11010000
          -16 -20 -22 -18 -25 vvcurveto
          -27 27 -13 28 -26 callgsubr
          38 16 11 21 hvcurveto
          hintmask 10110000
          13 -9 16 -12 18 vhcurveto
          -37 52 -42 40 -3 47 rrcurveto
          -1 13 0 73 108 vvcurveto
          389 4 843 2 101 vhcurveto
          3 0 4 -1 6 vhcurveto
          779 -3 hlineto
          2 -101 4 -843 -389 vvcurveto
          -108 0 -73 -1 -13 vhcurveto
          -3 -48 -42 -39 -37 -52 rrcurveto
          -13 -18 -8 -16 -13 vvcurveto
          -21 16 -11 38 vhcurveto
          21 67 9 53 hhcurveto
          hintmask 10101000
          38 13 -10 22 hhcurveto
          30 25 14 28 24 -24 18 -14 19 hvcurveto
          hintmask 10110000
          -40 53 -51 48 27 vvcurveto
          1520 vlineto
          8 12 16 3 19 36 49 -13 45 hhcurveto
          32 21 15 18 14 -11 17 -27 20 hvcurveto
          hintmask 11001000
          61 -82 -57 160 -40 hhcurveto
          -17 -15 -19 -40 -51 -22 -58 -20 -48 hvcurveto
          -837 5 rlineto
          -5 28 -4 30 29 25 7 28 19 vvcurveto
          27 -16 13 -12 -39 -86 -140 -42 -89 vhcurveto
          -34 -16 -15 -14 -17 vvcurveto
          -17 21 -18 35 -4 vhcurveto
          hintmask 10110000
          67 -8 71 5 27 -29 rrcurveto
          -1521 vlineto
          -27 -51 -48 -40 -53 vhcurveto
          endchar
        </CharString>
        <CharString name="q">
          -231 537 89 541 88 hstemhm
          106 100 528 85 -72 95 hintmask 00000000
          hintmask 11110000
          631 -188 rmoveto
          -31 -17 -20 -26 -21 vvcurveto
          -19 17 -14 39 vhcurveto
          46 24 3 25 19 18 -1 30 27 55 -10 13 hhcurveto
          52 18 9 25 79 -133 -22 -9 100 hvcurveto
          -2 19 0 27 37 vvcurveto
          hintmask 11101000
          293 23 667 253 vvcurveto
          104 27 62 80 34 vhcurveto
          24 10 5 30 13 vvcurveto
          24 -30 7 -30 vhcurveto
          -42 -41 -10 -99 -34 -33 9 -20 hhcurveto
          -25 -13 -9 -17 hvcurveto
          -69 136 -24 -85 vvcurveto
          -18 0 -98 -1 -25 vhcurveto
          105 -83 -112 18 -77 hhcurveto
          -158 -210 -123 -238 -328 291 -29 66 hvcurveto
          hintmask 11110000
          68 138 28 78 66 hvcurveto
          -14 -683 -3 -78 -15 -30 -72 -40 rlinecurve
          -164 814 rmoveto
          -88 -173 52 223 108 97 158 163 92 176 -37 -245 -235 -182 -24 -85 hvcurveto
          endchar
        </CharString>
        <CharString name="question">
          -141 -71 232 1541 95 hstem
          582 92 254 99 vstem
          522 426 rmoveto
          3 26 24 1 22 74 41 -13 18 hhcurveto
          25 18 10 17 8 -4 10 -9 10 hvcurveto
          -35 40 -48 35 54 vvcurveto
          54 15 163 31 93 vhcurveto
          76 200 231 32 300 vvcurveto
          259 -213 95 -142 -216 -130 -150 -108 -73 vhcurveto
          -38 -57 -95 -18 -37 vvcurveto
          -20 27 -15 30 vhcurveto
          4 4 1 5 69 62 -52 42 hhcurveto
          15 12 5 14 6 -3 9 -6 11 hvcurveto
          -20 35 -9 29 26 vvcurveto
          19 5 17 8 15 vhcurveto
          98 52 87 77 149 hhcurveto
          169 106 -96 -176 -236 -207 -31 -91 -218 hvcurveto
          -45 -107 -3 -188 -35 -112 -111 -6 -54 vvcurveto
          -11 9 -7 24 5 6 0 1 7 vhcurveto
          -49 -314 rmoveto
          7 -17 101 -106 19 -32 rrcurveto
          -20 12 11 -8 10 hhcurveto
          22 31 68 43 35 hvcurveto
          26 32 30 35 23 vvcurveto
          25 -30 6 -24 vhcurveto
          -33 -54 -5 -49 -33 -31 5 -20 hhcurveto
          -26 76 callsubr
          77 callsubr
          5 -8 hvcurveto
          endchar
        </CharString>
        <CharString name="questiondown">
          -141 -277 95 1541 232 hstem
          137 99 254 92 vstem
          642 1094 rmoveto
          -3 -26 -24 -1 -22 -74 -41 13 -18 hhcurveto
          -25 -18 -10 -17 -8 4 -10 9 -10 hvcurveto
          35 -40 48 -35 -54 vvcurveto
          -54 -15 -163 -31 -93 vhcurveto
          -76 -200 -231 -32 -300 vvcurveto
          -259 213 -95 142 216 130 150 108 73 vhcurveto
          38 57 95 18 37 vvcurveto
          20 -27 15 -30 vhcurveto
          -4 -4 -1 -5 -69 -62 52 -42 hhcurveto
          -15 -12 -5 -14 -6 3 -9 6 -11 hvcurveto
          20 -35 9 -29 -26 vvcurveto
          -19 -5 -17 -8 -15 vhcurveto
          -98 -52 -87 -77 -149 hhcurveto
          -169 -106 96 176 236 207 31 91 218 hvcurveto
          45 107 3 188 35 112 111 6 54 vvcurveto
          11 -9 7 -24 -5 -6 0 -1 -7 vhcurveto
          49 314 rmoveto
          -7 17 -101 106 -19 32 rrcurveto
          20 -12 -11 8 -10 hhcurveto
          -22 -31 -68 -43 -35 hvcurveto
          -26 -32 -30 -35 -23 vvcurveto
          -25 30 -6 24 vhcurveto
          33 54 5 49 33 31 -5 20 hhcurveto
          26 11 11 15 7 -2 8 -5 8 hvcurveto
          endchar
        </CharString>
        <CharString name="quotedbl">
          -158 1643 -20 hstemhm
          280 84 375 84 hintmask 11000000
          277 1158 -55 callgsubr
          hintmask 10100000
          453 -256 -55 callgsubr
          endchar
        </CharString>
        <CharString name="quotedblbase">
          -14 -217 445 hstemhm
          216 372 89 372 hintmask 11000000
          527 226 -32 callgsubr
          hintmask 10100000
          461 hmoveto
          -81 callsubr
          endchar
        </CharString>
        <CharString name="quotedblleft">
          -36 1311 445 hstemhm
          224 372 122 372 hintmask 11000000
          -35 callsubr
          hintmask 10100000
          494 hmoveto
          -58 callsubr
          endchar
        </CharString>
        <CharString name="quotedblright">
          -30 89 callsubr
          hstemhm
          216 372 123 372 hintmask 11000000
          527 1727 -32 callgsubr
          hintmask 10100000
          495 hmoveto
          -81 callsubr
          endchar
        </CharString>
        <CharString name="quoteleft">
          -474 1311 445 hstem
          224 372 vstem
          -35 callsubr
          endchar
        </CharString>
        <CharString name="quotereversed">
          -474 89 callsubr
          hstem
          224 372 vstem
          285 1727 rmoveto
          2 43 callgsubr
          -22 -24 -11 -24 -10 4 -12 9 -14 hvcurveto
          39 -64 103 -220 128 -79 rrcurveto
          -8 12 11 -3 11 hhcurveto
          34 21 35 22 8 -2 6 -5 3 hvcurveto
          -26 17 -119 88 48 vvcurveto
          28 29 24 31 40 vhcurveto
          54 70 1 11 13 vvcurveto
          15 -10 11 -23 vhcurveto
          -20 -45 -9 -52 hhcurveto
          -46 -48 4 9 -30 hvcurveto
          endchar
        </CharString>
        <CharString name="quoteright">
          -547 89 callsubr
          hstem
          216 372 vstem
          527 1727 -32 callgsubr
          endchar
        </CharString>
        <CharString name="quotesinglbase">
          80 callgsubr
          374 vstem
          205 -143 rmoveto
          -53 callgsubr
          103 221 39 64 3 5 rcurveline
          8 12 4 10 9 vvcurveto
          23 -25 12 -23 -5 -5 -1 78 callgsubr
          -8 callsubr
          -46 78 callsubr
          -23 76 callsubr
          -14 2 -10 -43 callsubr
          endchar
        </CharString>
        <CharString name="quotesingle">
          -637 1643 -20 hstem
          280 84 vstem
          277 1158 -55 callgsubr
          endchar
        </CharString>
        <CharString name="r">
          -322 1169 47 callsubr
          hstemhm
          277 80 hintmask 00000000
          hintmask 10011100
          187 -75 callgsubr
          hintmask 11001100
          74 callsubr
          hintmask 10101100
          -47 callgsubr
          hintmask 10011100
          72 callgsubr
          endchar
        </CharString>
        <CharString name="radical">
          65 -174 2002 hstem
          104 1498 vstem
          649 -130 rmoveto
          -23 13 17 -21 19 hhcurveto
          19 22 21 60 23 hvcurveto
          46 119 577 1506 36 39 35 38 46 43 39 5 rrcurveto
          36 4 25 26 22 vvcurveto
          15 -11 14 -28 4 vhcurveto
          -69 10 -119 32 -31 22 rrcurveto
          15 -21 -19 7 -15 hhcurveto
          -19 -11 -11 -17 -10 3 -11 8 -13 hvcurveto
          27 -46 38 -41 1 -41 rrcurveto
          -8 -1 -7 -3 -7 vhcurveto
          -18 -50 -624 -1585 0 vvcurveto
          0 -317 631 -12 36 vhcurveto
          -2 6 -1 7 7 60 38 61 44 vvcurveto
          16 -5 12 -15 -7 -8 -2 -5 -10 vhcurveto
          -58 -29 -77 -34 -53 -14 rrcurveto
          -33 -9 -26 -16 -19 vvcurveto
          -12 10 -13 24 -12 vhcurveto
          64 -31 34 -9 37 -47 36 -46 312 -645 28 -48 rrcurveto
          endchar
        </CharString>
        <CharString name="rcaron">
          -398 1169 47 callsubr
          91 479 hstemhm
          80 903 -739 80 hintmask 00000000
          hintmask 10011001
          154 -75 callgsubr
          hintmask 11001001
          74 callsubr
          hintmask 10101001
          -47 callgsubr
          hintmask 10011001
          72 callgsubr
          hintmask 00000110
          315 1392 -88 callgsubr
        </CharString>
        <CharString name="rcommaaccent">
          -398 -417 -21 1607 47 callsubr
          hstemhm
          104 342 -202 80 hintmask 00000000
          hintmask 01001101
          154 -75 callgsubr
          hintmask 01100101
          74 callsubr
          hintmask 01010101
          -47 callgsubr
          hintmask 01001101
          72 callgsubr
          hintmask 10000010
          -38 -193 -84 callsubr
        </CharString>
</ttFont>
